G04 #@! TF.GenerationSoftware,KiCad,Pcbnew,(5.1.9)-1*
G04 #@! TF.CreationDate,2021-06-05T11:28:23-05:00*
G04 #@! TF.ProjectId,RASPBERRY 4 PI HAT,52415350-4245-4525-9259-203420504920,rev?*
G04 #@! TF.SameCoordinates,Original*
G04 #@! TF.FileFunction,Soldermask,Bot*
G04 #@! TF.FilePolarity,Negative*
%FSLAX46Y46*%
G04 Gerber Fmt 4.6, Leading zero omitted, Abs format (unit mm)*
G04 Created by KiCad (PCBNEW (5.1.9)-1) date 2021-06-05 11:28:23*
%MOMM*%
%LPD*%
G01*
G04 APERTURE LIST*
%ADD10C,2.400000*%
%ADD11R,2.400000X2.400000*%
%ADD12O,1.700000X1.700000*%
%ADD13R,1.700000X1.700000*%
%ADD14C,0.700000*%
%ADD15C,4.400000*%
G04 APERTURE END LIST*
D10*
X187560000Y-97280000D03*
X187560000Y-100780000D03*
D11*
X187560000Y-104280000D03*
D12*
X163390000Y-74430000D03*
X163390000Y-76970000D03*
X160850000Y-74430000D03*
X160850000Y-76970000D03*
X158310000Y-74430000D03*
X158310000Y-76970000D03*
X155770000Y-74430000D03*
X155770000Y-76970000D03*
X153230000Y-74430000D03*
X153230000Y-76970000D03*
X150690000Y-74430000D03*
X150690000Y-76970000D03*
X148150000Y-74430000D03*
X148150000Y-76970000D03*
X145610000Y-74430000D03*
X145610000Y-76970000D03*
X143070000Y-74430000D03*
X143070000Y-76970000D03*
X140530000Y-74430000D03*
X140530000Y-76970000D03*
X137990000Y-74430000D03*
X137990000Y-76970000D03*
X135450000Y-74430000D03*
X135450000Y-76970000D03*
X132910000Y-74430000D03*
X132910000Y-76970000D03*
X130370000Y-74430000D03*
X130370000Y-76970000D03*
X127830000Y-74430000D03*
X127830000Y-76970000D03*
X125290000Y-74430000D03*
X125290000Y-76970000D03*
X122750000Y-74430000D03*
X122750000Y-76970000D03*
X120210000Y-74430000D03*
X120210000Y-76970000D03*
X117670000Y-74430000D03*
X117670000Y-76970000D03*
X115130000Y-74430000D03*
D13*
X115130000Y-76970000D03*
D14*
X111802726Y-121157274D03*
X110636000Y-120674000D03*
X109469274Y-121157274D03*
X108986000Y-122324000D03*
X109469274Y-123490726D03*
X110636000Y-123974000D03*
X111802726Y-123490726D03*
X112286000Y-122324000D03*
D15*
X110636000Y-122324000D03*
D14*
X169350726Y-121227274D03*
X168184000Y-120744000D03*
X167017274Y-121227274D03*
X166534000Y-122394000D03*
X167017274Y-123560726D03*
X168184000Y-124044000D03*
X169350726Y-123560726D03*
X169834000Y-122394000D03*
D15*
X168184000Y-122394000D03*
D14*
X169470000Y-74756548D03*
X168303274Y-74273274D03*
X167136548Y-74756548D03*
X166653274Y-75923274D03*
X167136548Y-77090000D03*
X168303274Y-77573274D03*
X169470000Y-77090000D03*
X169953274Y-75923274D03*
D15*
X168303274Y-75923274D03*
D14*
X111366726Y-74713274D03*
X110200000Y-74230000D03*
X109033274Y-74713274D03*
X108550000Y-75880000D03*
X109033274Y-77046726D03*
X110200000Y-77530000D03*
X111366726Y-77046726D03*
X111850000Y-75880000D03*
D15*
X110200000Y-75880000D03*
D11*
X153670000Y-121412000D03*
D10*
X157170000Y-121412000D03*
D11*
X143510000Y-121412000D03*
D10*
X147010000Y-121412000D03*
D11*
X187490000Y-91950000D03*
D10*
X187490000Y-88450000D03*
X187490000Y-84950000D03*
D11*
X187550000Y-116580000D03*
D10*
X187550000Y-113080000D03*
X187550000Y-109580000D03*
X110900000Y-99010000D03*
X110900000Y-95510000D03*
D11*
X110900000Y-92010000D03*
X110890000Y-104310000D03*
D10*
X110890000Y-107810000D03*
X110890000Y-111310000D03*
M02*
