M48
; DRILL file {KiCad (5.1.9)-1} date 06/05/21 11:28:21
; FORMAT={3:3/ absolute / metric / suppress leading zeros}
; #@! TF.CreationDate,2021-06-05T11:28:21-05:00
; #@! TF.GenerationSoftware,Kicad,Pcbnew,(5.1.9)-1
FMAT,2
METRIC,TZ
T1C0.300
T2C0.400
T3C1.000
T4C1.200
T5C2.200
%
G90
G05
T1
X149998Y-111795
X149998Y-112995
X151198Y-111795
X151198Y-112995
X152498Y-111795
X152498Y-112995
X153598Y-111795
X153598Y-112995
T2
X108550Y-75880
X108986Y-122324
X109033Y-74713
X109033Y-77047
X109469Y-121157
X109469Y-123491
X110200Y-74230
X110200Y-77530
X110636Y-120674
X110636Y-123974
X111367Y-74713
X111367Y-77047
X111803Y-121157
X111803Y-123491
X111850Y-75880
X112286Y-122324
X112610Y-106250
X113538Y-121412
X114540Y-123680
X115980Y-120500
X116380Y-103320
X116410Y-81920
X116770Y-92290
X116900Y-85025
X116930Y-93700
X117790Y-102720
X118080Y-111890
X128370Y-104480
X128720Y-122910
X130060Y-88340
X131630Y-97780
X131920Y-115970
X131990Y-106680
X132260Y-125080
X133858Y-87884
X133858Y-115570
X134112Y-97282
X134112Y-106426
X134620Y-124714
X135610Y-121430
X135730Y-111400
X135820Y-118970
X135880Y-102560
X135890Y-109220
X135900Y-83910
X135910Y-91500
X136000Y-100690
X136010Y-93430
X136150Y-82042
X137160Y-88900
X137419Y-98049
X137668Y-106680
X138938Y-80010
X139390Y-119600
X139700Y-117348
X140290Y-80990
X140610Y-110740
X142270Y-79756
X142301Y-118821
X143230Y-91290
X143340Y-84070
X144010Y-97930
X144160Y-84710
X147120Y-93610
X148500Y-91610
X148530Y-80610
X148590Y-110236
X148590Y-110236
X148590Y-110236
X148590Y-110236
X149850Y-98530
X150280Y-91520
X152910Y-119010
X153550Y-86850
X154040Y-94160
X154709Y-81801
X154940Y-115062
X155060Y-104020
X155700Y-89190
X155956Y-109728
X157420Y-118740
X157440Y-90080
X157490Y-83620
X157630Y-93590
X158310Y-80360
X159258Y-90414
X159550Y-115650
X160274Y-105664
X160343Y-90211
X160745Y-80210
X161363Y-89154
X163322Y-115316
X163420Y-111158
X163575Y-101040
X163610Y-80200
X163620Y-90420
X163640Y-120440
X164580Y-104820
X164950Y-101120
X166370Y-100990
X166534Y-122394
X166640Y-114920
X166650Y-89740
X166653Y-75923
X166760Y-109910
X166824Y-95952
X166830Y-94880
X166870Y-84568
X166870Y-105904
X166870Y-110984
X167017Y-121227
X167017Y-123561
X167124Y-78726
X167124Y-116064
X167137Y-74757
X167137Y-77090
X168184Y-120744
X168184Y-124044
X168303Y-74273
X168303Y-77573
X169351Y-121227
X169351Y-123561
X169470Y-74757
X169470Y-77090
X169834Y-122394
X169953Y-75923
X174950Y-81620
X175120Y-91970
X175190Y-112010
X175230Y-86650
X175300Y-117150
X175320Y-101700
X175380Y-107070
X175400Y-96880
T3
X115130Y-74430
X115130Y-76970
X117670Y-74430
X117670Y-76970
X120210Y-74430
X120210Y-76970
X122750Y-74430
X122750Y-76970
X125290Y-74430
X125290Y-76970
X127830Y-74430
X127830Y-76970
X130370Y-74430
X130370Y-76970
X132910Y-74430
X132910Y-76970
X135450Y-74430
X135450Y-76970
X137990Y-74430
X137990Y-76970
X140530Y-74430
X140530Y-76970
X143070Y-74430
X143070Y-76970
X145610Y-74430
X145610Y-76970
X148150Y-74430
X148150Y-76970
X150690Y-74430
X150690Y-76970
X153230Y-74430
X153230Y-76970
X155770Y-74430
X155770Y-76970
X158310Y-74430
X158310Y-76970
X160850Y-74430
X160850Y-76970
X163390Y-74430
X163390Y-76970
T4
X110890Y-104310
X110890Y-107810
X110890Y-111310
X110900Y-92010
X110900Y-95510
X110900Y-99010
X143510Y-121412
X147010Y-121412
X153670Y-121412
X157170Y-121412
X187490Y-84950
X187490Y-88450
X187490Y-91950
X187550Y-109580
X187550Y-113080
X187550Y-116580
X187560Y-97280
X187560Y-100780
X187560Y-104280
T5
X110200Y-75880
X110636Y-122324
X168184Y-122394
X168303Y-75923
T0
M30
