G04 #@! TF.GenerationSoftware,KiCad,Pcbnew,(5.1.9)-1*
G04 #@! TF.CreationDate,2021-06-05T11:28:22-05:00*
G04 #@! TF.ProjectId,RASPBERRY 4 PI HAT,52415350-4245-4525-9259-203420504920,rev?*
G04 #@! TF.SameCoordinates,Original*
G04 #@! TF.FileFunction,Copper,L2,Inr*
G04 #@! TF.FilePolarity,Positive*
%FSLAX46Y46*%
G04 Gerber Fmt 4.6, Leading zero omitted, Abs format (unit mm)*
G04 Created by KiCad (PCBNEW (5.1.9)-1) date 2021-06-05 11:28:22*
%MOMM*%
%LPD*%
G01*
G04 APERTURE LIST*
G04 #@! TA.AperFunction,ComponentPad*
%ADD10C,2.400000*%
G04 #@! TD*
G04 #@! TA.AperFunction,ComponentPad*
%ADD11R,2.400000X2.400000*%
G04 #@! TD*
G04 #@! TA.AperFunction,ComponentPad*
%ADD12O,1.700000X1.700000*%
G04 #@! TD*
G04 #@! TA.AperFunction,ComponentPad*
%ADD13R,1.700000X1.700000*%
G04 #@! TD*
G04 #@! TA.AperFunction,ComponentPad*
%ADD14C,0.700000*%
G04 #@! TD*
G04 #@! TA.AperFunction,ComponentPad*
%ADD15C,4.400000*%
G04 #@! TD*
G04 #@! TA.AperFunction,ComponentPad*
%ADD16C,0.600000*%
G04 #@! TD*
G04 #@! TA.AperFunction,ViaPad*
%ADD17C,0.800000*%
G04 #@! TD*
G04 #@! TA.AperFunction,Conductor*
%ADD18C,0.250000*%
G04 #@! TD*
G04 #@! TA.AperFunction,Conductor*
%ADD19C,0.750000*%
G04 #@! TD*
G04 #@! TA.AperFunction,Conductor*
%ADD20C,0.254000*%
G04 #@! TD*
G04 #@! TA.AperFunction,Conductor*
%ADD21C,0.100000*%
G04 #@! TD*
G04 APERTURE END LIST*
D10*
X187560000Y-97280000D03*
X187560000Y-100780000D03*
D11*
X187560000Y-104280000D03*
D12*
X163390000Y-74430000D03*
X163390000Y-76970000D03*
X160850000Y-74430000D03*
X160850000Y-76970000D03*
X158310000Y-74430000D03*
X158310000Y-76970000D03*
X155770000Y-74430000D03*
X155770000Y-76970000D03*
X153230000Y-74430000D03*
X153230000Y-76970000D03*
X150690000Y-74430000D03*
X150690000Y-76970000D03*
X148150000Y-74430000D03*
X148150000Y-76970000D03*
X145610000Y-74430000D03*
X145610000Y-76970000D03*
X143070000Y-74430000D03*
X143070000Y-76970000D03*
X140530000Y-74430000D03*
X140530000Y-76970000D03*
X137990000Y-74430000D03*
X137990000Y-76970000D03*
X135450000Y-74430000D03*
X135450000Y-76970000D03*
X132910000Y-74430000D03*
X132910000Y-76970000D03*
X130370000Y-74430000D03*
X130370000Y-76970000D03*
X127830000Y-74430000D03*
X127830000Y-76970000D03*
X125290000Y-74430000D03*
X125290000Y-76970000D03*
X122750000Y-74430000D03*
X122750000Y-76970000D03*
X120210000Y-74430000D03*
X120210000Y-76970000D03*
X117670000Y-74430000D03*
X117670000Y-76970000D03*
X115130000Y-74430000D03*
D13*
X115130000Y-76970000D03*
D14*
X111802726Y-121157274D03*
X110636000Y-120674000D03*
X109469274Y-121157274D03*
X108986000Y-122324000D03*
X109469274Y-123490726D03*
X110636000Y-123974000D03*
X111802726Y-123490726D03*
X112286000Y-122324000D03*
D15*
X110636000Y-122324000D03*
D14*
X169350726Y-121227274D03*
X168184000Y-120744000D03*
X167017274Y-121227274D03*
X166534000Y-122394000D03*
X167017274Y-123560726D03*
X168184000Y-124044000D03*
X169350726Y-123560726D03*
X169834000Y-122394000D03*
D15*
X168184000Y-122394000D03*
D14*
X169470000Y-74756548D03*
X168303274Y-74273274D03*
X167136548Y-74756548D03*
X166653274Y-75923274D03*
X167136548Y-77090000D03*
X168303274Y-77573274D03*
X169470000Y-77090000D03*
X169953274Y-75923274D03*
D15*
X168303274Y-75923274D03*
D14*
X111366726Y-74713274D03*
X110200000Y-74230000D03*
X109033274Y-74713274D03*
X108550000Y-75880000D03*
X109033274Y-77046726D03*
X110200000Y-77530000D03*
X111366726Y-77046726D03*
X111850000Y-75880000D03*
D15*
X110200000Y-75880000D03*
D16*
X149998000Y-112995000D03*
X151198000Y-112995000D03*
X151198000Y-111795000D03*
X149998000Y-111795000D03*
X153598000Y-112995000D03*
X152498000Y-112995000D03*
X152498000Y-111795000D03*
X153598000Y-111795000D03*
D11*
X153670000Y-121412000D03*
D10*
X157170000Y-121412000D03*
D11*
X143510000Y-121412000D03*
D10*
X147010000Y-121412000D03*
D11*
X187490000Y-91950000D03*
D10*
X187490000Y-88450000D03*
X187490000Y-84950000D03*
D11*
X187550000Y-116580000D03*
D10*
X187550000Y-113080000D03*
X187550000Y-109580000D03*
X110900000Y-99010000D03*
X110900000Y-95510000D03*
D11*
X110900000Y-92010000D03*
X110890000Y-104310000D03*
D10*
X110890000Y-107810000D03*
X110890000Y-111310000D03*
D17*
X139700000Y-117348000D03*
X133858000Y-115570000D03*
X134620000Y-124714000D03*
X137668000Y-106680000D03*
X134112000Y-106426000D03*
X137418653Y-98048653D03*
X134112000Y-97282000D03*
X137160000Y-88900000D03*
X133858000Y-87884000D03*
X138938000Y-80010000D03*
X153550000Y-86850000D03*
X160274000Y-105664000D03*
X167124000Y-78726000D03*
X166870000Y-84568000D03*
X166650000Y-89740000D03*
X166830000Y-94880000D03*
X164580000Y-104820000D03*
X166760000Y-109910000D03*
X166640000Y-114920000D03*
X159550000Y-115650000D03*
X164950000Y-101120000D03*
X128370000Y-104480000D03*
X128720000Y-122910000D03*
X166824000Y-95952000D03*
X155700000Y-89190000D03*
X166370000Y-100990000D03*
X157440000Y-90080000D03*
X159258000Y-90414000D03*
X166870000Y-105904000D03*
X160342691Y-90210540D03*
X166870000Y-110984000D03*
X161362686Y-89154271D03*
X167124000Y-116064000D03*
X148590000Y-110236000D03*
X148590000Y-110236000D03*
X148590000Y-110236000D03*
X148590000Y-110236000D03*
X155956000Y-109728000D03*
X148500000Y-91610000D03*
X163420000Y-111158000D03*
X163322000Y-115316000D03*
X163620000Y-90420000D03*
X163610000Y-80200000D03*
X163575000Y-101040000D03*
X155060000Y-104020000D03*
X150280000Y-91520000D03*
X157630000Y-93590000D03*
X135890000Y-109220000D03*
X135910000Y-91500000D03*
X136010000Y-93430000D03*
X136000000Y-100690000D03*
X135880000Y-102560000D03*
X135730000Y-111400000D03*
X135820000Y-118970000D03*
X135610000Y-121430000D03*
X136150000Y-82042001D03*
X135900000Y-83910000D03*
X130060000Y-88340000D03*
X131630000Y-97780000D03*
X131990000Y-106680000D03*
X131920000Y-115970000D03*
X132260000Y-125079999D03*
X112610000Y-106250000D03*
X116380000Y-103320000D03*
X116930000Y-93700000D03*
X174950000Y-81620000D03*
X175230000Y-86650000D03*
X175120000Y-91970000D03*
X175400000Y-96880000D03*
X175320000Y-101700000D03*
X175380000Y-107070000D03*
X175190000Y-112010000D03*
X175300000Y-117150000D03*
X116410000Y-81920000D03*
X116900000Y-85025000D03*
X114540000Y-123680000D03*
X115980000Y-120500000D03*
X154940000Y-115062000D03*
X163640000Y-120440000D03*
X139390000Y-119600000D03*
X143230000Y-91290000D03*
X144160000Y-84710000D03*
X143340000Y-84070000D03*
X142270000Y-79755999D03*
X158310000Y-80360000D03*
X157490000Y-83620000D03*
X142300653Y-118820653D03*
X152910000Y-119010000D03*
X144010000Y-97930000D03*
X140610000Y-110740000D03*
X157420000Y-118740000D03*
X147120000Y-93610000D03*
X113538000Y-121412000D03*
X118080000Y-111890000D03*
X117790000Y-102720000D03*
X116770000Y-92290000D03*
X154708653Y-81801347D03*
X160745000Y-80210000D03*
X148530000Y-80610000D03*
X140290000Y-80990000D03*
X154040000Y-94160000D03*
X149850000Y-98530000D03*
D18*
X160342691Y-90210540D02*
X160511460Y-90210540D01*
X115570000Y-74422000D02*
X114300000Y-74422000D01*
X115570000Y-74422000D02*
X118110000Y-74422000D01*
X115570000Y-74422000D02*
X114046000Y-74422000D01*
X113584000Y-74676000D02*
X113080000Y-75180000D01*
X113792000Y-74676000D02*
X113584000Y-74676000D01*
X114046000Y-74422000D02*
X113792000Y-74676000D01*
D19*
X163620000Y-80210000D02*
X163610000Y-80200000D01*
X163575000Y-101010002D02*
X163575000Y-101040000D01*
X161785000Y-99220002D02*
X163575000Y-101010002D01*
X161785000Y-92255000D02*
X161785000Y-99220002D01*
X161785000Y-92255000D02*
X163620000Y-90420000D01*
X161785000Y-109523000D02*
X163420000Y-111158000D01*
X161785000Y-99220002D02*
X161785000Y-109523000D01*
X161785000Y-113779000D02*
X163322000Y-115316000D01*
X161785000Y-109523000D02*
X161785000Y-113779000D01*
X155060000Y-104020000D02*
X152900000Y-101860000D01*
X152900000Y-94140000D02*
X150280000Y-91520000D01*
X152900000Y-101860000D02*
X152900000Y-94140000D01*
X160450000Y-93590000D02*
X161785000Y-92255000D01*
X157630000Y-93590000D02*
X160450000Y-93590000D01*
X159900000Y-85740000D02*
X163620000Y-82020000D01*
X151130000Y-85740000D02*
X159900000Y-85740000D01*
X163620000Y-82020000D02*
X163620000Y-80210000D01*
X148500000Y-91610000D02*
X148500000Y-88370000D01*
X163620000Y-90420000D02*
X163620000Y-82020000D01*
X135840000Y-118970000D02*
X135820000Y-118970000D01*
X147608002Y-86715000D02*
X150155000Y-86715000D01*
X142935003Y-82042001D02*
X147608002Y-86715000D01*
X136150000Y-82042001D02*
X142935003Y-82042001D01*
X150155000Y-86715000D02*
X151130000Y-85740000D01*
X148500000Y-88370000D02*
X150155000Y-86715000D01*
X135900000Y-83910000D02*
X135900000Y-84800000D01*
X135900000Y-84800000D02*
X134300000Y-86400000D01*
X134300000Y-86400000D02*
X132180000Y-86400000D01*
X130240000Y-88340000D02*
X130060000Y-88340000D01*
X132180000Y-86400000D02*
X130240000Y-88340000D01*
X142935003Y-82042001D02*
X142935003Y-82104997D01*
X142935003Y-82104997D02*
X139770000Y-85270000D01*
X139770000Y-88205685D02*
X136475685Y-91500000D01*
X136475685Y-91500000D02*
X135910000Y-91500000D01*
X139770000Y-85270000D02*
X139770000Y-88205685D01*
X136000000Y-97830000D02*
X136000000Y-100690000D01*
X139770000Y-88205685D02*
X139770000Y-94060000D01*
X138393654Y-104511344D02*
X135890000Y-107014998D01*
X135890000Y-107014998D02*
X135890000Y-109220000D01*
X138620000Y-97690000D02*
X138393654Y-97916346D01*
X138620000Y-95210000D02*
X138620000Y-97690000D01*
X139770000Y-94060000D02*
X138620000Y-95210000D01*
X138393654Y-97916346D02*
X138393654Y-104511344D01*
X138620000Y-95210000D02*
X136000000Y-97830000D01*
X135820000Y-118970000D02*
X135820000Y-113680000D01*
X135820000Y-113680000D02*
X137660000Y-111840000D01*
X137660000Y-108784998D02*
X135890000Y-107014998D01*
X137660000Y-111840000D02*
X137660000Y-108784998D01*
X135980000Y-93430000D02*
X131630000Y-97780000D01*
X136010000Y-93430000D02*
X135980000Y-93430000D01*
X135880000Y-102790000D02*
X131990000Y-106680000D01*
X135880000Y-102560000D02*
X135880000Y-102790000D01*
X135730000Y-112160000D02*
X131920000Y-115970000D01*
X135730000Y-111400000D02*
X135730000Y-112160000D01*
X135610000Y-121729999D02*
X132260000Y-125079999D01*
X135610000Y-121430000D02*
X135610000Y-121729999D01*
D18*
X161290000Y-77380000D02*
X161290000Y-76962000D01*
X158310000Y-80360000D02*
X161290000Y-77380000D01*
X156210000Y-81026000D02*
X156210000Y-76962000D01*
X157490000Y-82306000D02*
X156210000Y-81026000D01*
X157490000Y-83620000D02*
X157490000Y-82306000D01*
D19*
X148144000Y-114244000D02*
X152910000Y-119010000D01*
X139426000Y-98816000D02*
X139426000Y-106365002D01*
X140312000Y-97930000D02*
X139426000Y-98816000D01*
X140860000Y-97930000D02*
X140312000Y-97930000D01*
X144010000Y-97930000D02*
X140860000Y-97930000D01*
X142614000Y-114244000D02*
X139426000Y-111056000D01*
X148144000Y-114244000D02*
X142614000Y-114244000D01*
X139426000Y-106365002D02*
X139426000Y-111056000D01*
X140610000Y-110740000D02*
X140610000Y-108130000D01*
X140610000Y-108130000D02*
X140610000Y-107870000D01*
X140610000Y-107870000D02*
X144360000Y-104120000D01*
X157420000Y-109130000D02*
X157420000Y-118740000D01*
X152410000Y-104120000D02*
X157420000Y-109130000D01*
X147120000Y-102090000D02*
X145090000Y-104120000D01*
X147120000Y-93610000D02*
X147120000Y-102090000D01*
X145090000Y-104120000D02*
X152410000Y-104120000D01*
X144360000Y-104120000D02*
X145090000Y-104120000D01*
D18*
X187396000Y-109530000D02*
X187960000Y-109530000D01*
X186690000Y-110236000D02*
X187396000Y-109530000D01*
X135890000Y-76962000D02*
X137958999Y-79030999D01*
X154651347Y-81801347D02*
X154708653Y-81801347D01*
X151880999Y-79030999D02*
X154651347Y-81801347D01*
X149469001Y-79030999D02*
X149469001Y-79670999D01*
X149469001Y-79030999D02*
X151880999Y-79030999D01*
X149469001Y-79670999D02*
X148530000Y-80610000D01*
X140290000Y-80288998D02*
X140290000Y-80990000D01*
X139032001Y-79030999D02*
X140290000Y-80288998D01*
X138969001Y-79030999D02*
X139032001Y-79030999D01*
X137958999Y-79030999D02*
X138969001Y-79030999D01*
X138969001Y-79030999D02*
X149469001Y-79030999D01*
X134085001Y-75605001D02*
X135450000Y-76970000D01*
X116494999Y-75605001D02*
X134085001Y-75605001D01*
X115130000Y-76970000D02*
X116494999Y-75605001D01*
D20*
X114363080Y-73158359D02*
X114129731Y-73332412D01*
X113934822Y-73548645D01*
X113785843Y-73798748D01*
X113688519Y-74073109D01*
X113809186Y-74303000D01*
X115003000Y-74303000D01*
X115003000Y-74283000D01*
X115257000Y-74283000D01*
X115257000Y-74303000D01*
X117543000Y-74303000D01*
X117543000Y-74283000D01*
X117797000Y-74283000D01*
X117797000Y-74303000D01*
X117817000Y-74303000D01*
X117817000Y-74557000D01*
X117797000Y-74557000D01*
X117797000Y-74577000D01*
X117543000Y-74577000D01*
X117543000Y-74557000D01*
X115257000Y-74557000D01*
X115257000Y-74577000D01*
X115003000Y-74577000D01*
X115003000Y-74557000D01*
X113809186Y-74557000D01*
X113688519Y-74786891D01*
X113785843Y-75061252D01*
X113934822Y-75311355D01*
X114111626Y-75507502D01*
X114035820Y-75530498D01*
X113925506Y-75589463D01*
X113828815Y-75668815D01*
X113749463Y-75765506D01*
X113690498Y-75875820D01*
X113654188Y-75995518D01*
X113641928Y-76120000D01*
X113641928Y-77820000D01*
X113654188Y-77944482D01*
X113690498Y-78064180D01*
X113749463Y-78174494D01*
X113828815Y-78271185D01*
X113925506Y-78350537D01*
X114035820Y-78409502D01*
X114155518Y-78445812D01*
X114280000Y-78458072D01*
X115980000Y-78458072D01*
X116104482Y-78445812D01*
X116224180Y-78409502D01*
X116334494Y-78350537D01*
X116431185Y-78271185D01*
X116510537Y-78174494D01*
X116569502Y-78064180D01*
X116591513Y-77991620D01*
X116723368Y-78123475D01*
X116966589Y-78285990D01*
X117236842Y-78397932D01*
X117523740Y-78455000D01*
X117816260Y-78455000D01*
X118103158Y-78397932D01*
X118373411Y-78285990D01*
X118616632Y-78123475D01*
X118823475Y-77916632D01*
X118940000Y-77742240D01*
X119056525Y-77916632D01*
X119263368Y-78123475D01*
X119506589Y-78285990D01*
X119776842Y-78397932D01*
X120063740Y-78455000D01*
X120356260Y-78455000D01*
X120643158Y-78397932D01*
X120913411Y-78285990D01*
X121156632Y-78123475D01*
X121363475Y-77916632D01*
X121480000Y-77742240D01*
X121596525Y-77916632D01*
X121803368Y-78123475D01*
X122046589Y-78285990D01*
X122316842Y-78397932D01*
X122603740Y-78455000D01*
X122896260Y-78455000D01*
X123183158Y-78397932D01*
X123453411Y-78285990D01*
X123696632Y-78123475D01*
X123903475Y-77916632D01*
X124020000Y-77742240D01*
X124136525Y-77916632D01*
X124343368Y-78123475D01*
X124586589Y-78285990D01*
X124856842Y-78397932D01*
X125143740Y-78455000D01*
X125436260Y-78455000D01*
X125723158Y-78397932D01*
X125993411Y-78285990D01*
X126236632Y-78123475D01*
X126443475Y-77916632D01*
X126560000Y-77742240D01*
X126676525Y-77916632D01*
X126883368Y-78123475D01*
X127126589Y-78285990D01*
X127396842Y-78397932D01*
X127683740Y-78455000D01*
X127976260Y-78455000D01*
X128263158Y-78397932D01*
X128533411Y-78285990D01*
X128776632Y-78123475D01*
X128983475Y-77916632D01*
X129100000Y-77742240D01*
X129216525Y-77916632D01*
X129423368Y-78123475D01*
X129666589Y-78285990D01*
X129936842Y-78397932D01*
X130223740Y-78455000D01*
X130516260Y-78455000D01*
X130803158Y-78397932D01*
X131073411Y-78285990D01*
X131316632Y-78123475D01*
X131523475Y-77916632D01*
X131640000Y-77742240D01*
X131756525Y-77916632D01*
X131963368Y-78123475D01*
X132206589Y-78285990D01*
X132476842Y-78397932D01*
X132763740Y-78455000D01*
X133056260Y-78455000D01*
X133343158Y-78397932D01*
X133613411Y-78285990D01*
X133856632Y-78123475D01*
X134063475Y-77916632D01*
X134180000Y-77742240D01*
X134296525Y-77916632D01*
X134503368Y-78123475D01*
X134746589Y-78285990D01*
X135016842Y-78397932D01*
X135303740Y-78455000D01*
X135596260Y-78455000D01*
X135883158Y-78397932D01*
X136143354Y-78290156D01*
X137395204Y-79542007D01*
X137418998Y-79571000D01*
X137447991Y-79594794D01*
X137447995Y-79594798D01*
X137506980Y-79643205D01*
X137534723Y-79665973D01*
X137666752Y-79736545D01*
X137810013Y-79780002D01*
X137921666Y-79790999D01*
X137921675Y-79790999D01*
X137926196Y-79791444D01*
X137903000Y-79908061D01*
X137903000Y-80111939D01*
X137942774Y-80311898D01*
X138020795Y-80500256D01*
X138134063Y-80669774D01*
X138278226Y-80813937D01*
X138447744Y-80927205D01*
X138636102Y-81005226D01*
X138836061Y-81045000D01*
X139039939Y-81045000D01*
X139239898Y-81005226D01*
X139255000Y-80998971D01*
X139255000Y-81091939D01*
X139294774Y-81291898D01*
X139372795Y-81480256D01*
X139486063Y-81649774D01*
X139630226Y-81793937D01*
X139799744Y-81907205D01*
X139988102Y-81985226D01*
X140188061Y-82025000D01*
X140391939Y-82025000D01*
X140591898Y-81985226D01*
X140780256Y-81907205D01*
X140949774Y-81793937D01*
X141093937Y-81649774D01*
X141207205Y-81480256D01*
X141285226Y-81291898D01*
X141325000Y-81091939D01*
X141325000Y-80888061D01*
X141285226Y-80688102D01*
X141207205Y-80499744D01*
X141093937Y-80330226D01*
X141053589Y-80289878D01*
X141053676Y-80288997D01*
X141050000Y-80251674D01*
X141050000Y-80251665D01*
X141039003Y-80140012D01*
X140995546Y-79996751D01*
X140924974Y-79864722D01*
X140864471Y-79790999D01*
X141235000Y-79790999D01*
X141235000Y-79857938D01*
X141274774Y-80057897D01*
X141352795Y-80246255D01*
X141466063Y-80415773D01*
X141610226Y-80559936D01*
X141779744Y-80673204D01*
X141968102Y-80751225D01*
X142168061Y-80790999D01*
X142371939Y-80790999D01*
X142571898Y-80751225D01*
X142760256Y-80673204D01*
X142929774Y-80559936D01*
X143073937Y-80415773D01*
X143187205Y-80246255D01*
X143265226Y-80057897D01*
X143305000Y-79857938D01*
X143305000Y-79790999D01*
X147892771Y-79790999D01*
X147870226Y-79806063D01*
X147726063Y-79950226D01*
X147612795Y-80119744D01*
X147534774Y-80308102D01*
X147495000Y-80508061D01*
X147495000Y-80711939D01*
X147534774Y-80911898D01*
X147612795Y-81100256D01*
X147726063Y-81269774D01*
X147870226Y-81413937D01*
X148039744Y-81527205D01*
X148228102Y-81605226D01*
X148428061Y-81645000D01*
X148631939Y-81645000D01*
X148831898Y-81605226D01*
X149020256Y-81527205D01*
X149189774Y-81413937D01*
X149333937Y-81269774D01*
X149447205Y-81100256D01*
X149525226Y-80911898D01*
X149565000Y-80711939D01*
X149565000Y-80649802D01*
X149980004Y-80234798D01*
X150009002Y-80211000D01*
X150035333Y-80178916D01*
X150103975Y-80095276D01*
X150174547Y-79963246D01*
X150177048Y-79955000D01*
X150218004Y-79819985D01*
X150220859Y-79790999D01*
X151566198Y-79790999D01*
X153673653Y-81898455D01*
X153673653Y-81903286D01*
X153713427Y-82103245D01*
X153791448Y-82291603D01*
X153904716Y-82461121D01*
X154048879Y-82605284D01*
X154218397Y-82718552D01*
X154406755Y-82796573D01*
X154606714Y-82836347D01*
X154810592Y-82836347D01*
X155010551Y-82796573D01*
X155198909Y-82718552D01*
X155368427Y-82605284D01*
X155512590Y-82461121D01*
X155625858Y-82291603D01*
X155703879Y-82103245D01*
X155743653Y-81903286D01*
X155743653Y-81699408D01*
X155727525Y-81618326D01*
X156730001Y-82620803D01*
X156730001Y-82916288D01*
X156686063Y-82960226D01*
X156572795Y-83129744D01*
X156494774Y-83318102D01*
X156455000Y-83518061D01*
X156455000Y-83721939D01*
X156494774Y-83921898D01*
X156572795Y-84110256D01*
X156686063Y-84279774D01*
X156830226Y-84423937D01*
X156999744Y-84537205D01*
X157188102Y-84615226D01*
X157388061Y-84655000D01*
X157591939Y-84655000D01*
X157791898Y-84615226D01*
X157980256Y-84537205D01*
X158086730Y-84466061D01*
X165835000Y-84466061D01*
X165835000Y-84669939D01*
X165874774Y-84869898D01*
X165952795Y-85058256D01*
X166066063Y-85227774D01*
X166210226Y-85371937D01*
X166379744Y-85485205D01*
X166568102Y-85563226D01*
X166768061Y-85603000D01*
X166971939Y-85603000D01*
X167171898Y-85563226D01*
X167360256Y-85485205D01*
X167529774Y-85371937D01*
X167673937Y-85227774D01*
X167787205Y-85058256D01*
X167865226Y-84869898D01*
X167905000Y-84669939D01*
X167905000Y-84466061D01*
X167865226Y-84266102D01*
X167787205Y-84077744D01*
X167673937Y-83908226D01*
X167529774Y-83764063D01*
X167360256Y-83650795D01*
X167171898Y-83572774D01*
X166971939Y-83533000D01*
X166768061Y-83533000D01*
X166568102Y-83572774D01*
X166379744Y-83650795D01*
X166210226Y-83764063D01*
X166066063Y-83908226D01*
X165952795Y-84077744D01*
X165874774Y-84266102D01*
X165835000Y-84466061D01*
X158086730Y-84466061D01*
X158149774Y-84423937D01*
X158293937Y-84279774D01*
X158407205Y-84110256D01*
X158485226Y-83921898D01*
X158525000Y-83721939D01*
X158525000Y-83518061D01*
X158485226Y-83318102D01*
X158407205Y-83129744D01*
X158293937Y-82960226D01*
X158250000Y-82916289D01*
X158250000Y-82343322D01*
X158253676Y-82305999D01*
X158250000Y-82268676D01*
X158250000Y-82268667D01*
X158239003Y-82157014D01*
X158195546Y-82013753D01*
X158124974Y-81881724D01*
X158030001Y-81765999D01*
X158001003Y-81742201D01*
X157776863Y-81518061D01*
X173915000Y-81518061D01*
X173915000Y-81721939D01*
X173954774Y-81921898D01*
X174032795Y-82110256D01*
X174146063Y-82279774D01*
X174290226Y-82423937D01*
X174459744Y-82537205D01*
X174648102Y-82615226D01*
X174848061Y-82655000D01*
X175051939Y-82655000D01*
X175251898Y-82615226D01*
X175440256Y-82537205D01*
X175609774Y-82423937D01*
X175753937Y-82279774D01*
X175867205Y-82110256D01*
X175945226Y-81921898D01*
X175985000Y-81721939D01*
X175985000Y-81518061D01*
X175945226Y-81318102D01*
X175867205Y-81129744D01*
X175753937Y-80960226D01*
X175609774Y-80816063D01*
X175440256Y-80702795D01*
X175251898Y-80624774D01*
X175051939Y-80585000D01*
X174848061Y-80585000D01*
X174648102Y-80624774D01*
X174459744Y-80702795D01*
X174290226Y-80816063D01*
X174146063Y-80960226D01*
X174032795Y-81129744D01*
X173954774Y-81318102D01*
X173915000Y-81518061D01*
X157776863Y-81518061D01*
X156970000Y-80711199D01*
X156970000Y-77847002D01*
X157040000Y-77742240D01*
X157156525Y-77916632D01*
X157363368Y-78123475D01*
X157606589Y-78285990D01*
X157876842Y-78397932D01*
X158163740Y-78455000D01*
X158456260Y-78455000D01*
X158743158Y-78397932D01*
X159013411Y-78285990D01*
X159256632Y-78123475D01*
X159463475Y-77916632D01*
X159580000Y-77742240D01*
X159689332Y-77905866D01*
X158270199Y-79325000D01*
X158208061Y-79325000D01*
X158008102Y-79364774D01*
X157819744Y-79442795D01*
X157650226Y-79556063D01*
X157506063Y-79700226D01*
X157392795Y-79869744D01*
X157314774Y-80058102D01*
X157275000Y-80258061D01*
X157275000Y-80461939D01*
X157314774Y-80661898D01*
X157392795Y-80850256D01*
X157506063Y-81019774D01*
X157650226Y-81163937D01*
X157819744Y-81277205D01*
X158008102Y-81355226D01*
X158208061Y-81395000D01*
X158411939Y-81395000D01*
X158611898Y-81355226D01*
X158800256Y-81277205D01*
X158969774Y-81163937D01*
X159113937Y-81019774D01*
X159227205Y-80850256D01*
X159305226Y-80661898D01*
X159345000Y-80461939D01*
X159345000Y-80399801D01*
X159728190Y-80016611D01*
X159710000Y-80108061D01*
X159710000Y-80311939D01*
X159749774Y-80511898D01*
X159827795Y-80700256D01*
X159941063Y-80869774D01*
X160085226Y-81013937D01*
X160254744Y-81127205D01*
X160443102Y-81205226D01*
X160643061Y-81245000D01*
X160846939Y-81245000D01*
X161046898Y-81205226D01*
X161235256Y-81127205D01*
X161404774Y-81013937D01*
X161548937Y-80869774D01*
X161662205Y-80700256D01*
X161740226Y-80511898D01*
X161780000Y-80311939D01*
X161780000Y-80108061D01*
X161740226Y-79908102D01*
X161662205Y-79719744D01*
X161548937Y-79550226D01*
X161404774Y-79406063D01*
X161235256Y-79292795D01*
X161046898Y-79214774D01*
X160846939Y-79175000D01*
X160643061Y-79175000D01*
X160551612Y-79193190D01*
X161391922Y-78352881D01*
X161553411Y-78285990D01*
X161796632Y-78123475D01*
X162003475Y-77916632D01*
X162120000Y-77742240D01*
X162236525Y-77916632D01*
X162443368Y-78123475D01*
X162686589Y-78285990D01*
X162956842Y-78397932D01*
X163243740Y-78455000D01*
X163536260Y-78455000D01*
X163823158Y-78397932D01*
X164093411Y-78285990D01*
X164336632Y-78123475D01*
X164543475Y-77916632D01*
X164705990Y-77673411D01*
X164817932Y-77403158D01*
X164875000Y-77116260D01*
X164875000Y-76823740D01*
X164817932Y-76536842D01*
X164705990Y-76266589D01*
X164543475Y-76023368D01*
X164336632Y-75816525D01*
X164162240Y-75700000D01*
X164245973Y-75644051D01*
X165468274Y-75644051D01*
X165468274Y-76202497D01*
X165577222Y-76750213D01*
X165790930Y-77266150D01*
X166101186Y-77730481D01*
X166378497Y-78007792D01*
X166320063Y-78066226D01*
X166206795Y-78235744D01*
X166128774Y-78424102D01*
X166089000Y-78624061D01*
X166089000Y-78827939D01*
X166128774Y-79027898D01*
X166206795Y-79216256D01*
X166320063Y-79385774D01*
X166464226Y-79529937D01*
X166633744Y-79643205D01*
X166822102Y-79721226D01*
X167022061Y-79761000D01*
X167225939Y-79761000D01*
X167425898Y-79721226D01*
X167614256Y-79643205D01*
X167783774Y-79529937D01*
X167927937Y-79385774D01*
X168041205Y-79216256D01*
X168119226Y-79027898D01*
X168159000Y-78827939D01*
X168159000Y-78758274D01*
X168582497Y-78758274D01*
X169130213Y-78649326D01*
X169646150Y-78435618D01*
X170110481Y-78125362D01*
X170505362Y-77730481D01*
X170815618Y-77266150D01*
X171029326Y-76750213D01*
X171138274Y-76202497D01*
X171138274Y-75644051D01*
X171029326Y-75096335D01*
X170815618Y-74580398D01*
X170505362Y-74116067D01*
X170110481Y-73721186D01*
X169646150Y-73410930D01*
X169130213Y-73197222D01*
X168582497Y-73088274D01*
X168024051Y-73088274D01*
X167476335Y-73197222D01*
X166960398Y-73410930D01*
X166496067Y-73721186D01*
X166101186Y-74116067D01*
X165790930Y-74580398D01*
X165577222Y-75096335D01*
X165468274Y-75644051D01*
X164245973Y-75644051D01*
X164336632Y-75583475D01*
X164543475Y-75376632D01*
X164705990Y-75133411D01*
X164817932Y-74863158D01*
X164875000Y-74576260D01*
X164875000Y-74283740D01*
X164817932Y-73996842D01*
X164705990Y-73726589D01*
X164543475Y-73483368D01*
X164336632Y-73276525D01*
X164093411Y-73114010D01*
X163999235Y-73075001D01*
X190302512Y-73075001D01*
X190547643Y-73229160D01*
X190852911Y-73517484D01*
X191084999Y-73843643D01*
X191085000Y-124262509D01*
X190930840Y-124507643D01*
X190642516Y-124812911D01*
X190316357Y-125044999D01*
X169192133Y-125044999D01*
X169526876Y-124906344D01*
X169991207Y-124596088D01*
X170386088Y-124201207D01*
X170696344Y-123736876D01*
X170910052Y-123220939D01*
X171019000Y-122673223D01*
X171019000Y-122114777D01*
X170910052Y-121567061D01*
X170696344Y-121051124D01*
X170386088Y-120586793D01*
X169991207Y-120191912D01*
X169526876Y-119881656D01*
X169010939Y-119667948D01*
X168463223Y-119559000D01*
X167904777Y-119559000D01*
X167357061Y-119667948D01*
X166841124Y-119881656D01*
X166376793Y-120191912D01*
X165981912Y-120586793D01*
X165671656Y-121051124D01*
X165457948Y-121567061D01*
X165349000Y-122114777D01*
X165349000Y-122673223D01*
X165457948Y-123220939D01*
X165671656Y-123736876D01*
X165981912Y-124201207D01*
X166376793Y-124596088D01*
X166841124Y-124906344D01*
X167175867Y-125044999D01*
X135603172Y-125044999D01*
X135615226Y-125015898D01*
X135655000Y-124815939D01*
X135655000Y-124612061D01*
X135615226Y-124412102D01*
X135537205Y-124223744D01*
X135423937Y-124054226D01*
X135279774Y-123910063D01*
X135110256Y-123796795D01*
X134921898Y-123718774D01*
X134721939Y-123679000D01*
X134518061Y-123679000D01*
X134318102Y-123718774D01*
X134129744Y-123796795D01*
X133960226Y-123910063D01*
X133816063Y-124054226D01*
X133702795Y-124223744D01*
X133624774Y-124412102D01*
X133585000Y-124612061D01*
X133585000Y-124815939D01*
X133624774Y-125015898D01*
X133636828Y-125044999D01*
X111475138Y-125044999D01*
X111978876Y-124836344D01*
X112443207Y-124526088D01*
X112838088Y-124131207D01*
X113148344Y-123666876D01*
X113185132Y-123578061D01*
X113505000Y-123578061D01*
X113505000Y-123781939D01*
X113544774Y-123981898D01*
X113622795Y-124170256D01*
X113736063Y-124339774D01*
X113880226Y-124483937D01*
X114049744Y-124597205D01*
X114238102Y-124675226D01*
X114438061Y-124715000D01*
X114641939Y-124715000D01*
X114841898Y-124675226D01*
X115030256Y-124597205D01*
X115199774Y-124483937D01*
X115343937Y-124339774D01*
X115457205Y-124170256D01*
X115535226Y-123981898D01*
X115575000Y-123781939D01*
X115575000Y-123578061D01*
X115535226Y-123378102D01*
X115457205Y-123189744D01*
X115343937Y-123020226D01*
X115199774Y-122876063D01*
X115098002Y-122808061D01*
X127685000Y-122808061D01*
X127685000Y-123011939D01*
X127724774Y-123211898D01*
X127802795Y-123400256D01*
X127916063Y-123569774D01*
X128060226Y-123713937D01*
X128229744Y-123827205D01*
X128418102Y-123905226D01*
X128618061Y-123945000D01*
X128821939Y-123945000D01*
X129021898Y-123905226D01*
X129210256Y-123827205D01*
X129379774Y-123713937D01*
X129523937Y-123569774D01*
X129637205Y-123400256D01*
X129715226Y-123211898D01*
X129755000Y-123011939D01*
X129755000Y-122808061D01*
X129715226Y-122608102D01*
X129637205Y-122419744D01*
X129523937Y-122250226D01*
X129379774Y-122106063D01*
X129210256Y-121992795D01*
X129021898Y-121914774D01*
X128821939Y-121875000D01*
X128618061Y-121875000D01*
X128418102Y-121914774D01*
X128229744Y-121992795D01*
X128060226Y-122106063D01*
X127916063Y-122250226D01*
X127802795Y-122419744D01*
X127724774Y-122608102D01*
X127685000Y-122808061D01*
X115098002Y-122808061D01*
X115030256Y-122762795D01*
X114841898Y-122684774D01*
X114641939Y-122645000D01*
X114438061Y-122645000D01*
X114238102Y-122684774D01*
X114049744Y-122762795D01*
X113880226Y-122876063D01*
X113736063Y-123020226D01*
X113622795Y-123189744D01*
X113544774Y-123378102D01*
X113505000Y-123578061D01*
X113185132Y-123578061D01*
X113362052Y-123150939D01*
X113471000Y-122603223D01*
X113471000Y-122447000D01*
X113639939Y-122447000D01*
X113839898Y-122407226D01*
X114028256Y-122329205D01*
X114197774Y-122215937D01*
X114341937Y-122071774D01*
X114455205Y-121902256D01*
X114533226Y-121713898D01*
X114573000Y-121513939D01*
X114573000Y-121310061D01*
X114533226Y-121110102D01*
X114455205Y-120921744D01*
X114341937Y-120752226D01*
X114197774Y-120608063D01*
X114028256Y-120494795D01*
X113839898Y-120416774D01*
X113745821Y-120398061D01*
X114945000Y-120398061D01*
X114945000Y-120601939D01*
X114984774Y-120801898D01*
X115062795Y-120990256D01*
X115176063Y-121159774D01*
X115320226Y-121303937D01*
X115489744Y-121417205D01*
X115678102Y-121495226D01*
X115878061Y-121535000D01*
X116081939Y-121535000D01*
X116281898Y-121495226D01*
X116470256Y-121417205D01*
X116639774Y-121303937D01*
X116783937Y-121159774D01*
X116897205Y-120990256D01*
X116975226Y-120801898D01*
X117015000Y-120601939D01*
X117015000Y-120398061D01*
X116975226Y-120198102D01*
X116897205Y-120009744D01*
X116783937Y-119840226D01*
X116639774Y-119696063D01*
X116470256Y-119582795D01*
X116281898Y-119504774D01*
X116248150Y-119498061D01*
X138355000Y-119498061D01*
X138355000Y-119701939D01*
X138394774Y-119901898D01*
X138472795Y-120090256D01*
X138586063Y-120259774D01*
X138730226Y-120403937D01*
X138899744Y-120517205D01*
X139088102Y-120595226D01*
X139288061Y-120635000D01*
X139491939Y-120635000D01*
X139691898Y-120595226D01*
X139880256Y-120517205D01*
X140049774Y-120403937D01*
X140193937Y-120259774D01*
X140307205Y-120090256D01*
X140385226Y-119901898D01*
X140425000Y-119701939D01*
X140425000Y-119498061D01*
X140385226Y-119298102D01*
X140307205Y-119109744D01*
X140193937Y-118940226D01*
X140049774Y-118796063D01*
X139934013Y-118718714D01*
X141265653Y-118718714D01*
X141265653Y-118922592D01*
X141305427Y-119122551D01*
X141383448Y-119310909D01*
X141496716Y-119480427D01*
X141640879Y-119624590D01*
X141810397Y-119737858D01*
X141861165Y-119758887D01*
X141858815Y-119760815D01*
X141779463Y-119857506D01*
X141720498Y-119967820D01*
X141684188Y-120087518D01*
X141671928Y-120212000D01*
X141671928Y-122612000D01*
X141684188Y-122736482D01*
X141720498Y-122856180D01*
X141779463Y-122966494D01*
X141858815Y-123063185D01*
X141955506Y-123142537D01*
X142065820Y-123201502D01*
X142185518Y-123237812D01*
X142310000Y-123250072D01*
X144710000Y-123250072D01*
X144834482Y-123237812D01*
X144954180Y-123201502D01*
X145064494Y-123142537D01*
X145161185Y-123063185D01*
X145240537Y-122966494D01*
X145299502Y-122856180D01*
X145335812Y-122736482D01*
X145348072Y-122612000D01*
X145348072Y-122194838D01*
X145383844Y-122281199D01*
X145584662Y-122581744D01*
X145840256Y-122837338D01*
X146140801Y-123038156D01*
X146474750Y-123176482D01*
X146829268Y-123247000D01*
X147190732Y-123247000D01*
X147545250Y-123176482D01*
X147879199Y-123038156D01*
X148179744Y-122837338D01*
X148435338Y-122581744D01*
X148636156Y-122281199D01*
X148774482Y-121947250D01*
X148845000Y-121592732D01*
X148845000Y-121231268D01*
X148774482Y-120876750D01*
X148636156Y-120542801D01*
X148435338Y-120242256D01*
X148179744Y-119986662D01*
X147879199Y-119785844D01*
X147545250Y-119647518D01*
X147190732Y-119577000D01*
X146829268Y-119577000D01*
X146474750Y-119647518D01*
X146140801Y-119785844D01*
X145840256Y-119986662D01*
X145584662Y-120242256D01*
X145383844Y-120542801D01*
X145348072Y-120629162D01*
X145348072Y-120212000D01*
X145335812Y-120087518D01*
X145299502Y-119967820D01*
X145240537Y-119857506D01*
X145161185Y-119760815D01*
X145064494Y-119681463D01*
X144954180Y-119622498D01*
X144834482Y-119586188D01*
X144710000Y-119573928D01*
X143011089Y-119573928D01*
X143104590Y-119480427D01*
X143217858Y-119310909D01*
X143295879Y-119122551D01*
X143335653Y-118922592D01*
X143335653Y-118718714D01*
X143295879Y-118518755D01*
X143217858Y-118330397D01*
X143104590Y-118160879D01*
X142960427Y-118016716D01*
X142790909Y-117903448D01*
X142602551Y-117825427D01*
X142402592Y-117785653D01*
X142198714Y-117785653D01*
X141998755Y-117825427D01*
X141810397Y-117903448D01*
X141640879Y-118016716D01*
X141496716Y-118160879D01*
X141383448Y-118330397D01*
X141305427Y-118518755D01*
X141265653Y-118718714D01*
X139934013Y-118718714D01*
X139880256Y-118682795D01*
X139691898Y-118604774D01*
X139491939Y-118565000D01*
X139288061Y-118565000D01*
X139088102Y-118604774D01*
X138899744Y-118682795D01*
X138730226Y-118796063D01*
X138586063Y-118940226D01*
X138472795Y-119109744D01*
X138394774Y-119298102D01*
X138355000Y-119498061D01*
X116248150Y-119498061D01*
X116081939Y-119465000D01*
X115878061Y-119465000D01*
X115678102Y-119504774D01*
X115489744Y-119582795D01*
X115320226Y-119696063D01*
X115176063Y-119840226D01*
X115062795Y-120009744D01*
X114984774Y-120198102D01*
X114945000Y-120398061D01*
X113745821Y-120398061D01*
X113639939Y-120377000D01*
X113436061Y-120377000D01*
X113236102Y-120416774D01*
X113047744Y-120494795D01*
X112892638Y-120598433D01*
X112838088Y-120516793D01*
X112443207Y-120121912D01*
X111978876Y-119811656D01*
X111462939Y-119597948D01*
X110915223Y-119489000D01*
X110356777Y-119489000D01*
X109809061Y-119597948D01*
X109293124Y-119811656D01*
X108828793Y-120121912D01*
X108433912Y-120516793D01*
X108123656Y-120981124D01*
X107909948Y-121497061D01*
X107801000Y-122044777D01*
X107801000Y-122603223D01*
X107909948Y-123150939D01*
X108123656Y-123666876D01*
X108433912Y-124131207D01*
X108828793Y-124526088D01*
X109293124Y-124836344D01*
X109796862Y-125044999D01*
X108147489Y-125044999D01*
X107902357Y-124890840D01*
X107597089Y-124602516D01*
X107365001Y-124276357D01*
X107365001Y-117246061D01*
X138665000Y-117246061D01*
X138665000Y-117449939D01*
X138704774Y-117649898D01*
X138782795Y-117838256D01*
X138896063Y-118007774D01*
X139040226Y-118151937D01*
X139209744Y-118265205D01*
X139398102Y-118343226D01*
X139598061Y-118383000D01*
X139801939Y-118383000D01*
X140001898Y-118343226D01*
X140190256Y-118265205D01*
X140359774Y-118151937D01*
X140503937Y-118007774D01*
X140617205Y-117838256D01*
X140695226Y-117649898D01*
X140735000Y-117449939D01*
X140735000Y-117246061D01*
X140695226Y-117046102D01*
X140617205Y-116857744D01*
X140503937Y-116688226D01*
X140359774Y-116544063D01*
X140190256Y-116430795D01*
X140001898Y-116352774D01*
X139801939Y-116313000D01*
X139598061Y-116313000D01*
X139398102Y-116352774D01*
X139209744Y-116430795D01*
X139040226Y-116544063D01*
X138896063Y-116688226D01*
X138782795Y-116857744D01*
X138704774Y-117046102D01*
X138665000Y-117246061D01*
X107365001Y-117246061D01*
X107365001Y-115468061D01*
X132823000Y-115468061D01*
X132823000Y-115671939D01*
X132862774Y-115871898D01*
X132940795Y-116060256D01*
X133054063Y-116229774D01*
X133198226Y-116373937D01*
X133367744Y-116487205D01*
X133556102Y-116565226D01*
X133756061Y-116605000D01*
X133959939Y-116605000D01*
X134159898Y-116565226D01*
X134348256Y-116487205D01*
X134517774Y-116373937D01*
X134661937Y-116229774D01*
X134775205Y-116060256D01*
X134853226Y-115871898D01*
X134893000Y-115671939D01*
X134893000Y-115468061D01*
X134853226Y-115268102D01*
X134775205Y-115079744D01*
X134661937Y-114910226D01*
X134517774Y-114766063D01*
X134348256Y-114652795D01*
X134159898Y-114574774D01*
X133959939Y-114535000D01*
X133756061Y-114535000D01*
X133556102Y-114574774D01*
X133367744Y-114652795D01*
X133198226Y-114766063D01*
X133054063Y-114910226D01*
X132940795Y-115079744D01*
X132862774Y-115268102D01*
X132823000Y-115468061D01*
X107365001Y-115468061D01*
X107365001Y-103110000D01*
X109051928Y-103110000D01*
X109051928Y-105510000D01*
X109064188Y-105634482D01*
X109100498Y-105754180D01*
X109159463Y-105864494D01*
X109238815Y-105961185D01*
X109335506Y-106040537D01*
X109445820Y-106099502D01*
X109565518Y-106135812D01*
X109690000Y-106148072D01*
X110107162Y-106148072D01*
X110020801Y-106183844D01*
X109720256Y-106384662D01*
X109464662Y-106640256D01*
X109263844Y-106940801D01*
X109125518Y-107274750D01*
X109055000Y-107629268D01*
X109055000Y-107990732D01*
X109125518Y-108345250D01*
X109263844Y-108679199D01*
X109464662Y-108979744D01*
X109720256Y-109235338D01*
X110020801Y-109436156D01*
X110319787Y-109560000D01*
X110020801Y-109683844D01*
X109720256Y-109884662D01*
X109464662Y-110140256D01*
X109263844Y-110440801D01*
X109125518Y-110774750D01*
X109055000Y-111129268D01*
X109055000Y-111490732D01*
X109125518Y-111845250D01*
X109263844Y-112179199D01*
X109464662Y-112479744D01*
X109720256Y-112735338D01*
X110020801Y-112936156D01*
X110354750Y-113074482D01*
X110709268Y-113145000D01*
X111070732Y-113145000D01*
X111425250Y-113074482D01*
X111759199Y-112936156D01*
X112059744Y-112735338D01*
X112315338Y-112479744D01*
X112516156Y-112179199D01*
X112654482Y-111845250D01*
X112665857Y-111788061D01*
X117045000Y-111788061D01*
X117045000Y-111991939D01*
X117084774Y-112191898D01*
X117162795Y-112380256D01*
X117276063Y-112549774D01*
X117420226Y-112693937D01*
X117589744Y-112807205D01*
X117778102Y-112885226D01*
X117978061Y-112925000D01*
X118181939Y-112925000D01*
X118381898Y-112885226D01*
X118570256Y-112807205D01*
X118739774Y-112693937D01*
X118883937Y-112549774D01*
X118997205Y-112380256D01*
X119075226Y-112191898D01*
X119115000Y-111991939D01*
X119115000Y-111788061D01*
X119075226Y-111588102D01*
X118997205Y-111399744D01*
X118883937Y-111230226D01*
X118739774Y-111086063D01*
X118570256Y-110972795D01*
X118381898Y-110894774D01*
X118181939Y-110855000D01*
X117978061Y-110855000D01*
X117778102Y-110894774D01*
X117589744Y-110972795D01*
X117420226Y-111086063D01*
X117276063Y-111230226D01*
X117162795Y-111399744D01*
X117084774Y-111588102D01*
X117045000Y-111788061D01*
X112665857Y-111788061D01*
X112725000Y-111490732D01*
X112725000Y-111129268D01*
X112654482Y-110774750D01*
X112516156Y-110440801D01*
X112315338Y-110140256D01*
X112059744Y-109884662D01*
X111759199Y-109683844D01*
X111460213Y-109560000D01*
X111759199Y-109436156D01*
X112059744Y-109235338D01*
X112315338Y-108979744D01*
X112516156Y-108679199D01*
X112654482Y-108345250D01*
X112725000Y-107990732D01*
X112725000Y-107629268D01*
X112656521Y-107285000D01*
X112711939Y-107285000D01*
X112911898Y-107245226D01*
X113100256Y-107167205D01*
X113269774Y-107053937D01*
X113413937Y-106909774D01*
X113527205Y-106740256D01*
X113605226Y-106551898D01*
X113645000Y-106351939D01*
X113645000Y-106324061D01*
X133077000Y-106324061D01*
X133077000Y-106527939D01*
X133116774Y-106727898D01*
X133194795Y-106916256D01*
X133308063Y-107085774D01*
X133452226Y-107229937D01*
X133621744Y-107343205D01*
X133810102Y-107421226D01*
X134010061Y-107461000D01*
X134213939Y-107461000D01*
X134413898Y-107421226D01*
X134602256Y-107343205D01*
X134771774Y-107229937D01*
X134915937Y-107085774D01*
X135029205Y-106916256D01*
X135107226Y-106727898D01*
X135137030Y-106578061D01*
X136633000Y-106578061D01*
X136633000Y-106781939D01*
X136672774Y-106981898D01*
X136750795Y-107170256D01*
X136864063Y-107339774D01*
X137008226Y-107483937D01*
X137177744Y-107597205D01*
X137366102Y-107675226D01*
X137566061Y-107715000D01*
X137769939Y-107715000D01*
X137969898Y-107675226D01*
X138158256Y-107597205D01*
X138327774Y-107483937D01*
X138416000Y-107395711D01*
X138416001Y-111006382D01*
X138411114Y-111056000D01*
X138430615Y-111253994D01*
X138488368Y-111444379D01*
X138582154Y-111619840D01*
X138612819Y-111657205D01*
X138708368Y-111773633D01*
X138746901Y-111805256D01*
X141864743Y-114923099D01*
X141896367Y-114961633D01*
X142050160Y-115087847D01*
X142184670Y-115159744D01*
X142225620Y-115181632D01*
X142416005Y-115239385D01*
X142614000Y-115258886D01*
X142663608Y-115254000D01*
X147725645Y-115254000D01*
X152034870Y-119563226D01*
X152106063Y-119669774D01*
X152116970Y-119680681D01*
X152115506Y-119681463D01*
X152018815Y-119760815D01*
X151939463Y-119857506D01*
X151880498Y-119967820D01*
X151844188Y-120087518D01*
X151831928Y-120212000D01*
X151831928Y-122612000D01*
X151844188Y-122736482D01*
X151880498Y-122856180D01*
X151939463Y-122966494D01*
X152018815Y-123063185D01*
X152115506Y-123142537D01*
X152225820Y-123201502D01*
X152345518Y-123237812D01*
X152470000Y-123250072D01*
X154870000Y-123250072D01*
X154994482Y-123237812D01*
X155114180Y-123201502D01*
X155224494Y-123142537D01*
X155321185Y-123063185D01*
X155400537Y-122966494D01*
X155459502Y-122856180D01*
X155495812Y-122736482D01*
X155508072Y-122612000D01*
X155508072Y-122194838D01*
X155543844Y-122281199D01*
X155744662Y-122581744D01*
X156000256Y-122837338D01*
X156300801Y-123038156D01*
X156634750Y-123176482D01*
X156989268Y-123247000D01*
X157350732Y-123247000D01*
X157705250Y-123176482D01*
X158039199Y-123038156D01*
X158339744Y-122837338D01*
X158595338Y-122581744D01*
X158796156Y-122281199D01*
X158934482Y-121947250D01*
X159005000Y-121592732D01*
X159005000Y-121231268D01*
X158934482Y-120876750D01*
X158796156Y-120542801D01*
X158659353Y-120338061D01*
X162605000Y-120338061D01*
X162605000Y-120541939D01*
X162644774Y-120741898D01*
X162722795Y-120930256D01*
X162836063Y-121099774D01*
X162980226Y-121243937D01*
X163149744Y-121357205D01*
X163338102Y-121435226D01*
X163538061Y-121475000D01*
X163741939Y-121475000D01*
X163941898Y-121435226D01*
X164130256Y-121357205D01*
X164299774Y-121243937D01*
X164443937Y-121099774D01*
X164557205Y-120930256D01*
X164635226Y-120741898D01*
X164675000Y-120541939D01*
X164675000Y-120338061D01*
X164635226Y-120138102D01*
X164557205Y-119949744D01*
X164443937Y-119780226D01*
X164299774Y-119636063D01*
X164130256Y-119522795D01*
X163941898Y-119444774D01*
X163741939Y-119405000D01*
X163538061Y-119405000D01*
X163338102Y-119444774D01*
X163149744Y-119522795D01*
X162980226Y-119636063D01*
X162836063Y-119780226D01*
X162722795Y-119949744D01*
X162644774Y-120138102D01*
X162605000Y-120338061D01*
X158659353Y-120338061D01*
X158595338Y-120242256D01*
X158339744Y-119986662D01*
X158039199Y-119785844D01*
X157819447Y-119694820D01*
X157910256Y-119657205D01*
X158079774Y-119543937D01*
X158223937Y-119399774D01*
X158337205Y-119230256D01*
X158415226Y-119041898D01*
X158455000Y-118841939D01*
X158455000Y-118638061D01*
X158430000Y-118512377D01*
X158430000Y-115548061D01*
X158515000Y-115548061D01*
X158515000Y-115751939D01*
X158554774Y-115951898D01*
X158632795Y-116140256D01*
X158746063Y-116309774D01*
X158890226Y-116453937D01*
X159059744Y-116567205D01*
X159248102Y-116645226D01*
X159448061Y-116685000D01*
X159651939Y-116685000D01*
X159851898Y-116645226D01*
X160040256Y-116567205D01*
X160209774Y-116453937D01*
X160353937Y-116309774D01*
X160467205Y-116140256D01*
X160545226Y-115951898D01*
X160585000Y-115751939D01*
X160585000Y-115548061D01*
X160545226Y-115348102D01*
X160467205Y-115159744D01*
X160353937Y-114990226D01*
X160209774Y-114846063D01*
X160167866Y-114818061D01*
X165605000Y-114818061D01*
X165605000Y-115021939D01*
X165644774Y-115221898D01*
X165722795Y-115410256D01*
X165836063Y-115579774D01*
X165980226Y-115723937D01*
X166118048Y-115816026D01*
X166089000Y-115962061D01*
X166089000Y-116165939D01*
X166128774Y-116365898D01*
X166206795Y-116554256D01*
X166320063Y-116723774D01*
X166464226Y-116867937D01*
X166633744Y-116981205D01*
X166822102Y-117059226D01*
X167022061Y-117099000D01*
X167225939Y-117099000D01*
X167425898Y-117059226D01*
X167452852Y-117048061D01*
X174265000Y-117048061D01*
X174265000Y-117251939D01*
X174304774Y-117451898D01*
X174382795Y-117640256D01*
X174496063Y-117809774D01*
X174640226Y-117953937D01*
X174809744Y-118067205D01*
X174998102Y-118145226D01*
X175198061Y-118185000D01*
X175401939Y-118185000D01*
X175601898Y-118145226D01*
X175790256Y-118067205D01*
X175959774Y-117953937D01*
X176103937Y-117809774D01*
X176217205Y-117640256D01*
X176295226Y-117451898D01*
X176335000Y-117251939D01*
X176335000Y-117048061D01*
X176295226Y-116848102D01*
X176217205Y-116659744D01*
X176103937Y-116490226D01*
X175959774Y-116346063D01*
X175790256Y-116232795D01*
X175601898Y-116154774D01*
X175401939Y-116115000D01*
X175198061Y-116115000D01*
X174998102Y-116154774D01*
X174809744Y-116232795D01*
X174640226Y-116346063D01*
X174496063Y-116490226D01*
X174382795Y-116659744D01*
X174304774Y-116848102D01*
X174265000Y-117048061D01*
X167452852Y-117048061D01*
X167614256Y-116981205D01*
X167783774Y-116867937D01*
X167927937Y-116723774D01*
X168041205Y-116554256D01*
X168119226Y-116365898D01*
X168159000Y-116165939D01*
X168159000Y-115962061D01*
X168119226Y-115762102D01*
X168041205Y-115573744D01*
X167927937Y-115404226D01*
X167903711Y-115380000D01*
X185711928Y-115380000D01*
X185711928Y-117780000D01*
X185724188Y-117904482D01*
X185760498Y-118024180D01*
X185819463Y-118134494D01*
X185898815Y-118231185D01*
X185995506Y-118310537D01*
X186105820Y-118369502D01*
X186225518Y-118405812D01*
X186350000Y-118418072D01*
X188750000Y-118418072D01*
X188874482Y-118405812D01*
X188994180Y-118369502D01*
X189104494Y-118310537D01*
X189201185Y-118231185D01*
X189280537Y-118134494D01*
X189339502Y-118024180D01*
X189375812Y-117904482D01*
X189388072Y-117780000D01*
X189388072Y-115380000D01*
X189375812Y-115255518D01*
X189339502Y-115135820D01*
X189280537Y-115025506D01*
X189201185Y-114928815D01*
X189104494Y-114849463D01*
X188994180Y-114790498D01*
X188874482Y-114754188D01*
X188750000Y-114741928D01*
X188332838Y-114741928D01*
X188419199Y-114706156D01*
X188719744Y-114505338D01*
X188975338Y-114249744D01*
X189176156Y-113949199D01*
X189314482Y-113615250D01*
X189385000Y-113260732D01*
X189385000Y-112899268D01*
X189314482Y-112544750D01*
X189176156Y-112210801D01*
X188975338Y-111910256D01*
X188719744Y-111654662D01*
X188419199Y-111453844D01*
X188120213Y-111330000D01*
X188419199Y-111206156D01*
X188719744Y-111005338D01*
X188975338Y-110749744D01*
X189176156Y-110449199D01*
X189314482Y-110115250D01*
X189385000Y-109760732D01*
X189385000Y-109399268D01*
X189314482Y-109044750D01*
X189176156Y-108710801D01*
X188975338Y-108410256D01*
X188719744Y-108154662D01*
X188419199Y-107953844D01*
X188085250Y-107815518D01*
X187730732Y-107745000D01*
X187369268Y-107745000D01*
X187014750Y-107815518D01*
X186680801Y-107953844D01*
X186380256Y-108154662D01*
X186124662Y-108410256D01*
X185923844Y-108710801D01*
X185785518Y-109044750D01*
X185715000Y-109399268D01*
X185715000Y-109760732D01*
X185785518Y-110115250D01*
X185923844Y-110449199D01*
X186015615Y-110586544D01*
X186055026Y-110660276D01*
X186108063Y-110724902D01*
X186124662Y-110749744D01*
X186145789Y-110770871D01*
X186149999Y-110776001D01*
X186155129Y-110780211D01*
X186380256Y-111005338D01*
X186680801Y-111206156D01*
X186979787Y-111330000D01*
X186680801Y-111453844D01*
X186380256Y-111654662D01*
X186124662Y-111910256D01*
X185923844Y-112210801D01*
X185785518Y-112544750D01*
X185715000Y-112899268D01*
X185715000Y-113260732D01*
X185785518Y-113615250D01*
X185923844Y-113949199D01*
X186124662Y-114249744D01*
X186380256Y-114505338D01*
X186680801Y-114706156D01*
X186767162Y-114741928D01*
X186350000Y-114741928D01*
X186225518Y-114754188D01*
X186105820Y-114790498D01*
X185995506Y-114849463D01*
X185898815Y-114928815D01*
X185819463Y-115025506D01*
X185760498Y-115135820D01*
X185724188Y-115255518D01*
X185711928Y-115380000D01*
X167903711Y-115380000D01*
X167783774Y-115260063D01*
X167645952Y-115167974D01*
X167675000Y-115021939D01*
X167675000Y-114818061D01*
X167635226Y-114618102D01*
X167557205Y-114429744D01*
X167443937Y-114260226D01*
X167299774Y-114116063D01*
X167130256Y-114002795D01*
X166941898Y-113924774D01*
X166741939Y-113885000D01*
X166538061Y-113885000D01*
X166338102Y-113924774D01*
X166149744Y-114002795D01*
X165980226Y-114116063D01*
X165836063Y-114260226D01*
X165722795Y-114429744D01*
X165644774Y-114618102D01*
X165605000Y-114818061D01*
X160167866Y-114818061D01*
X160040256Y-114732795D01*
X159851898Y-114654774D01*
X159651939Y-114615000D01*
X159448061Y-114615000D01*
X159248102Y-114654774D01*
X159059744Y-114732795D01*
X158890226Y-114846063D01*
X158746063Y-114990226D01*
X158632795Y-115159744D01*
X158554774Y-115348102D01*
X158515000Y-115548061D01*
X158430000Y-115548061D01*
X158430000Y-109808061D01*
X165725000Y-109808061D01*
X165725000Y-110011939D01*
X165764774Y-110211898D01*
X165842795Y-110400256D01*
X165934605Y-110537659D01*
X165874774Y-110682102D01*
X165835000Y-110882061D01*
X165835000Y-111085939D01*
X165874774Y-111285898D01*
X165952795Y-111474256D01*
X166066063Y-111643774D01*
X166210226Y-111787937D01*
X166379744Y-111901205D01*
X166568102Y-111979226D01*
X166768061Y-112019000D01*
X166971939Y-112019000D01*
X167171898Y-111979226D01*
X167343704Y-111908061D01*
X174155000Y-111908061D01*
X174155000Y-112111939D01*
X174194774Y-112311898D01*
X174272795Y-112500256D01*
X174386063Y-112669774D01*
X174530226Y-112813937D01*
X174699744Y-112927205D01*
X174888102Y-113005226D01*
X175088061Y-113045000D01*
X175291939Y-113045000D01*
X175491898Y-113005226D01*
X175680256Y-112927205D01*
X175849774Y-112813937D01*
X175993937Y-112669774D01*
X176107205Y-112500256D01*
X176185226Y-112311898D01*
X176225000Y-112111939D01*
X176225000Y-111908061D01*
X176185226Y-111708102D01*
X176107205Y-111519744D01*
X175993937Y-111350226D01*
X175849774Y-111206063D01*
X175680256Y-111092795D01*
X175491898Y-111014774D01*
X175291939Y-110975000D01*
X175088061Y-110975000D01*
X174888102Y-111014774D01*
X174699744Y-111092795D01*
X174530226Y-111206063D01*
X174386063Y-111350226D01*
X174272795Y-111519744D01*
X174194774Y-111708102D01*
X174155000Y-111908061D01*
X167343704Y-111908061D01*
X167360256Y-111901205D01*
X167529774Y-111787937D01*
X167673937Y-111643774D01*
X167787205Y-111474256D01*
X167865226Y-111285898D01*
X167905000Y-111085939D01*
X167905000Y-110882061D01*
X167865226Y-110682102D01*
X167787205Y-110493744D01*
X167695395Y-110356341D01*
X167755226Y-110211898D01*
X167795000Y-110011939D01*
X167795000Y-109808061D01*
X167755226Y-109608102D01*
X167677205Y-109419744D01*
X167563937Y-109250226D01*
X167419774Y-109106063D01*
X167250256Y-108992795D01*
X167061898Y-108914774D01*
X166861939Y-108875000D01*
X166658061Y-108875000D01*
X166458102Y-108914774D01*
X166269744Y-108992795D01*
X166100226Y-109106063D01*
X165956063Y-109250226D01*
X165842795Y-109419744D01*
X165764774Y-109608102D01*
X165725000Y-109808061D01*
X158430000Y-109808061D01*
X158430000Y-109179608D01*
X158434886Y-109130000D01*
X158415385Y-108932005D01*
X158357632Y-108741620D01*
X158352904Y-108732774D01*
X158263847Y-108566160D01*
X158137633Y-108412367D01*
X158099100Y-108380744D01*
X156686417Y-106968061D01*
X174345000Y-106968061D01*
X174345000Y-107171939D01*
X174384774Y-107371898D01*
X174462795Y-107560256D01*
X174576063Y-107729774D01*
X174720226Y-107873937D01*
X174889744Y-107987205D01*
X175078102Y-108065226D01*
X175278061Y-108105000D01*
X175481939Y-108105000D01*
X175681898Y-108065226D01*
X175870256Y-107987205D01*
X176039774Y-107873937D01*
X176183937Y-107729774D01*
X176297205Y-107560256D01*
X176375226Y-107371898D01*
X176415000Y-107171939D01*
X176415000Y-106968061D01*
X176375226Y-106768102D01*
X176297205Y-106579744D01*
X176183937Y-106410226D01*
X176039774Y-106266063D01*
X175870256Y-106152795D01*
X175681898Y-106074774D01*
X175481939Y-106035000D01*
X175278061Y-106035000D01*
X175078102Y-106074774D01*
X174889744Y-106152795D01*
X174720226Y-106266063D01*
X174576063Y-106410226D01*
X174462795Y-106579744D01*
X174384774Y-106768102D01*
X174345000Y-106968061D01*
X156686417Y-106968061D01*
X155280417Y-105562061D01*
X159239000Y-105562061D01*
X159239000Y-105765939D01*
X159278774Y-105965898D01*
X159356795Y-106154256D01*
X159470063Y-106323774D01*
X159614226Y-106467937D01*
X159783744Y-106581205D01*
X159972102Y-106659226D01*
X160172061Y-106699000D01*
X160375939Y-106699000D01*
X160575898Y-106659226D01*
X160764256Y-106581205D01*
X160933774Y-106467937D01*
X161077937Y-106323774D01*
X161191205Y-106154256D01*
X161269226Y-105965898D01*
X161309000Y-105765939D01*
X161309000Y-105562061D01*
X161269226Y-105362102D01*
X161191205Y-105173744D01*
X161077937Y-105004226D01*
X160933774Y-104860063D01*
X160764256Y-104746795D01*
X160694887Y-104718061D01*
X163545000Y-104718061D01*
X163545000Y-104921939D01*
X163584774Y-105121898D01*
X163662795Y-105310256D01*
X163776063Y-105479774D01*
X163920226Y-105623937D01*
X164089744Y-105737205D01*
X164278102Y-105815226D01*
X164478061Y-105855000D01*
X164681939Y-105855000D01*
X164881898Y-105815226D01*
X164913680Y-105802061D01*
X165835000Y-105802061D01*
X165835000Y-106005939D01*
X165874774Y-106205898D01*
X165952795Y-106394256D01*
X166066063Y-106563774D01*
X166210226Y-106707937D01*
X166379744Y-106821205D01*
X166568102Y-106899226D01*
X166768061Y-106939000D01*
X166971939Y-106939000D01*
X167171898Y-106899226D01*
X167360256Y-106821205D01*
X167529774Y-106707937D01*
X167673937Y-106563774D01*
X167787205Y-106394256D01*
X167865226Y-106205898D01*
X167905000Y-106005939D01*
X167905000Y-105802061D01*
X167865226Y-105602102D01*
X167787205Y-105413744D01*
X167673937Y-105244226D01*
X167529774Y-105100063D01*
X167360256Y-104986795D01*
X167171898Y-104908774D01*
X166971939Y-104869000D01*
X166768061Y-104869000D01*
X166568102Y-104908774D01*
X166379744Y-104986795D01*
X166210226Y-105100063D01*
X166066063Y-105244226D01*
X165952795Y-105413744D01*
X165874774Y-105602102D01*
X165835000Y-105802061D01*
X164913680Y-105802061D01*
X165070256Y-105737205D01*
X165239774Y-105623937D01*
X165383937Y-105479774D01*
X165497205Y-105310256D01*
X165575226Y-105121898D01*
X165615000Y-104921939D01*
X165615000Y-104718061D01*
X165575226Y-104518102D01*
X165497205Y-104329744D01*
X165383937Y-104160226D01*
X165239774Y-104016063D01*
X165070256Y-103902795D01*
X164881898Y-103824774D01*
X164681939Y-103785000D01*
X164478061Y-103785000D01*
X164278102Y-103824774D01*
X164089744Y-103902795D01*
X163920226Y-104016063D01*
X163776063Y-104160226D01*
X163662795Y-104329744D01*
X163584774Y-104518102D01*
X163545000Y-104718061D01*
X160694887Y-104718061D01*
X160575898Y-104668774D01*
X160375939Y-104629000D01*
X160172061Y-104629000D01*
X159972102Y-104668774D01*
X159783744Y-104746795D01*
X159614226Y-104860063D01*
X159470063Y-105004226D01*
X159356795Y-105173744D01*
X159278774Y-105362102D01*
X159239000Y-105562061D01*
X155280417Y-105562061D01*
X153159261Y-103440906D01*
X153127633Y-103402367D01*
X152973840Y-103276153D01*
X152798380Y-103182368D01*
X152607994Y-103124615D01*
X152459608Y-103110000D01*
X152410000Y-103105114D01*
X152360392Y-103110000D01*
X147528356Y-103110000D01*
X147558356Y-103080000D01*
X185721928Y-103080000D01*
X185721928Y-105480000D01*
X185734188Y-105604482D01*
X185770498Y-105724180D01*
X185829463Y-105834494D01*
X185908815Y-105931185D01*
X186005506Y-106010537D01*
X186115820Y-106069502D01*
X186235518Y-106105812D01*
X186360000Y-106118072D01*
X188760000Y-106118072D01*
X188884482Y-106105812D01*
X189004180Y-106069502D01*
X189114494Y-106010537D01*
X189211185Y-105931185D01*
X189290537Y-105834494D01*
X189349502Y-105724180D01*
X189385812Y-105604482D01*
X189398072Y-105480000D01*
X189398072Y-103080000D01*
X189385812Y-102955518D01*
X189349502Y-102835820D01*
X189290537Y-102725506D01*
X189211185Y-102628815D01*
X189114494Y-102549463D01*
X189004180Y-102490498D01*
X188884482Y-102454188D01*
X188760000Y-102441928D01*
X188342838Y-102441928D01*
X188429199Y-102406156D01*
X188729744Y-102205338D01*
X188985338Y-101949744D01*
X189186156Y-101649199D01*
X189324482Y-101315250D01*
X189395000Y-100960732D01*
X189395000Y-100599268D01*
X189324482Y-100244750D01*
X189186156Y-99910801D01*
X188985338Y-99610256D01*
X188729744Y-99354662D01*
X188429199Y-99153844D01*
X188130213Y-99030000D01*
X188429199Y-98906156D01*
X188729744Y-98705338D01*
X188985338Y-98449744D01*
X189186156Y-98149199D01*
X189324482Y-97815250D01*
X189395000Y-97460732D01*
X189395000Y-97099268D01*
X189324482Y-96744750D01*
X189186156Y-96410801D01*
X188985338Y-96110256D01*
X188729744Y-95854662D01*
X188429199Y-95653844D01*
X188095250Y-95515518D01*
X187740732Y-95445000D01*
X187379268Y-95445000D01*
X187024750Y-95515518D01*
X186690801Y-95653844D01*
X186390256Y-95854662D01*
X186134662Y-96110256D01*
X185933844Y-96410801D01*
X185795518Y-96744750D01*
X185725000Y-97099268D01*
X185725000Y-97460732D01*
X185795518Y-97815250D01*
X185933844Y-98149199D01*
X186134662Y-98449744D01*
X186390256Y-98705338D01*
X186690801Y-98906156D01*
X186989787Y-99030000D01*
X186690801Y-99153844D01*
X186390256Y-99354662D01*
X186134662Y-99610256D01*
X185933844Y-99910801D01*
X185795518Y-100244750D01*
X185725000Y-100599268D01*
X185725000Y-100960732D01*
X185795518Y-101315250D01*
X185933844Y-101649199D01*
X186134662Y-101949744D01*
X186390256Y-102205338D01*
X186690801Y-102406156D01*
X186777162Y-102441928D01*
X186360000Y-102441928D01*
X186235518Y-102454188D01*
X186115820Y-102490498D01*
X186005506Y-102549463D01*
X185908815Y-102628815D01*
X185829463Y-102725506D01*
X185770498Y-102835820D01*
X185734188Y-102955518D01*
X185721928Y-103080000D01*
X147558356Y-103080000D01*
X147799100Y-102839256D01*
X147837633Y-102807633D01*
X147963847Y-102653840D01*
X148057632Y-102478380D01*
X148079541Y-102406156D01*
X148115385Y-102287995D01*
X148134886Y-102090000D01*
X148130000Y-102040392D01*
X148130000Y-101018061D01*
X163915000Y-101018061D01*
X163915000Y-101221939D01*
X163954774Y-101421898D01*
X164032795Y-101610256D01*
X164146063Y-101779774D01*
X164290226Y-101923937D01*
X164459744Y-102037205D01*
X164648102Y-102115226D01*
X164848061Y-102155000D01*
X165051939Y-102155000D01*
X165251898Y-102115226D01*
X165440256Y-102037205D01*
X165609774Y-101923937D01*
X165727939Y-101805772D01*
X165879744Y-101907205D01*
X166068102Y-101985226D01*
X166268061Y-102025000D01*
X166471939Y-102025000D01*
X166671898Y-101985226D01*
X166860256Y-101907205D01*
X167029774Y-101793937D01*
X167173937Y-101649774D01*
X167208490Y-101598061D01*
X174285000Y-101598061D01*
X174285000Y-101801939D01*
X174324774Y-102001898D01*
X174402795Y-102190256D01*
X174516063Y-102359774D01*
X174660226Y-102503937D01*
X174829744Y-102617205D01*
X175018102Y-102695226D01*
X175218061Y-102735000D01*
X175421939Y-102735000D01*
X175621898Y-102695226D01*
X175810256Y-102617205D01*
X175979774Y-102503937D01*
X176123937Y-102359774D01*
X176237205Y-102190256D01*
X176315226Y-102001898D01*
X176355000Y-101801939D01*
X176355000Y-101598061D01*
X176315226Y-101398102D01*
X176237205Y-101209744D01*
X176123937Y-101040226D01*
X175979774Y-100896063D01*
X175810256Y-100782795D01*
X175621898Y-100704774D01*
X175421939Y-100665000D01*
X175218061Y-100665000D01*
X175018102Y-100704774D01*
X174829744Y-100782795D01*
X174660226Y-100896063D01*
X174516063Y-101040226D01*
X174402795Y-101209744D01*
X174324774Y-101398102D01*
X174285000Y-101598061D01*
X167208490Y-101598061D01*
X167287205Y-101480256D01*
X167365226Y-101291898D01*
X167405000Y-101091939D01*
X167405000Y-100888061D01*
X167365226Y-100688102D01*
X167287205Y-100499744D01*
X167173937Y-100330226D01*
X167029774Y-100186063D01*
X166860256Y-100072795D01*
X166671898Y-99994774D01*
X166471939Y-99955000D01*
X166268061Y-99955000D01*
X166068102Y-99994774D01*
X165879744Y-100072795D01*
X165710226Y-100186063D01*
X165592061Y-100304228D01*
X165440256Y-100202795D01*
X165251898Y-100124774D01*
X165051939Y-100085000D01*
X164848061Y-100085000D01*
X164648102Y-100124774D01*
X164459744Y-100202795D01*
X164290226Y-100316063D01*
X164146063Y-100460226D01*
X164032795Y-100629744D01*
X163954774Y-100818102D01*
X163915000Y-101018061D01*
X148130000Y-101018061D01*
X148130000Y-98428061D01*
X148815000Y-98428061D01*
X148815000Y-98631939D01*
X148854774Y-98831898D01*
X148932795Y-99020256D01*
X149046063Y-99189774D01*
X149190226Y-99333937D01*
X149359744Y-99447205D01*
X149548102Y-99525226D01*
X149748061Y-99565000D01*
X149951939Y-99565000D01*
X150151898Y-99525226D01*
X150340256Y-99447205D01*
X150509774Y-99333937D01*
X150653937Y-99189774D01*
X150767205Y-99020256D01*
X150845226Y-98831898D01*
X150885000Y-98631939D01*
X150885000Y-98428061D01*
X150845226Y-98228102D01*
X150767205Y-98039744D01*
X150653937Y-97870226D01*
X150509774Y-97726063D01*
X150340256Y-97612795D01*
X150151898Y-97534774D01*
X149951939Y-97495000D01*
X149748061Y-97495000D01*
X149548102Y-97534774D01*
X149359744Y-97612795D01*
X149190226Y-97726063D01*
X149046063Y-97870226D01*
X148932795Y-98039744D01*
X148854774Y-98228102D01*
X148815000Y-98428061D01*
X148130000Y-98428061D01*
X148130000Y-95850061D01*
X165789000Y-95850061D01*
X165789000Y-96053939D01*
X165828774Y-96253898D01*
X165906795Y-96442256D01*
X166020063Y-96611774D01*
X166164226Y-96755937D01*
X166333744Y-96869205D01*
X166522102Y-96947226D01*
X166722061Y-96987000D01*
X166925939Y-96987000D01*
X167125898Y-96947226D01*
X167314256Y-96869205D01*
X167450663Y-96778061D01*
X174365000Y-96778061D01*
X174365000Y-96981939D01*
X174404774Y-97181898D01*
X174482795Y-97370256D01*
X174596063Y-97539774D01*
X174740226Y-97683937D01*
X174909744Y-97797205D01*
X175098102Y-97875226D01*
X175298061Y-97915000D01*
X175501939Y-97915000D01*
X175701898Y-97875226D01*
X175890256Y-97797205D01*
X176059774Y-97683937D01*
X176203937Y-97539774D01*
X176317205Y-97370256D01*
X176395226Y-97181898D01*
X176435000Y-96981939D01*
X176435000Y-96778061D01*
X176395226Y-96578102D01*
X176317205Y-96389744D01*
X176203937Y-96220226D01*
X176059774Y-96076063D01*
X175890256Y-95962795D01*
X175701898Y-95884774D01*
X175501939Y-95845000D01*
X175298061Y-95845000D01*
X175098102Y-95884774D01*
X174909744Y-95962795D01*
X174740226Y-96076063D01*
X174596063Y-96220226D01*
X174482795Y-96389744D01*
X174404774Y-96578102D01*
X174365000Y-96778061D01*
X167450663Y-96778061D01*
X167483774Y-96755937D01*
X167627937Y-96611774D01*
X167741205Y-96442256D01*
X167819226Y-96253898D01*
X167859000Y-96053939D01*
X167859000Y-95850061D01*
X167819226Y-95650102D01*
X167741205Y-95461744D01*
X167713640Y-95420490D01*
X167747205Y-95370256D01*
X167825226Y-95181898D01*
X167865000Y-94981939D01*
X167865000Y-94778061D01*
X167825226Y-94578102D01*
X167747205Y-94389744D01*
X167633937Y-94220226D01*
X167489774Y-94076063D01*
X167320256Y-93962795D01*
X167131898Y-93884774D01*
X166931939Y-93845000D01*
X166728061Y-93845000D01*
X166528102Y-93884774D01*
X166339744Y-93962795D01*
X166170226Y-94076063D01*
X166026063Y-94220226D01*
X165912795Y-94389744D01*
X165834774Y-94578102D01*
X165795000Y-94778061D01*
X165795000Y-94981939D01*
X165834774Y-95181898D01*
X165912795Y-95370256D01*
X165940360Y-95411510D01*
X165906795Y-95461744D01*
X165828774Y-95650102D01*
X165789000Y-95850061D01*
X148130000Y-95850061D01*
X148130000Y-94058061D01*
X153005000Y-94058061D01*
X153005000Y-94261939D01*
X153044774Y-94461898D01*
X153122795Y-94650256D01*
X153236063Y-94819774D01*
X153380226Y-94963937D01*
X153549744Y-95077205D01*
X153738102Y-95155226D01*
X153938061Y-95195000D01*
X154141939Y-95195000D01*
X154341898Y-95155226D01*
X154530256Y-95077205D01*
X154699774Y-94963937D01*
X154843937Y-94819774D01*
X154957205Y-94650256D01*
X155035226Y-94461898D01*
X155075000Y-94261939D01*
X155075000Y-94058061D01*
X155035226Y-93858102D01*
X154957205Y-93669744D01*
X154843937Y-93500226D01*
X154699774Y-93356063D01*
X154530256Y-93242795D01*
X154341898Y-93164774D01*
X154141939Y-93125000D01*
X153938061Y-93125000D01*
X153738102Y-93164774D01*
X153549744Y-93242795D01*
X153380226Y-93356063D01*
X153236063Y-93500226D01*
X153122795Y-93669744D01*
X153044774Y-93858102D01*
X153005000Y-94058061D01*
X148130000Y-94058061D01*
X148130000Y-93837623D01*
X148155000Y-93711939D01*
X148155000Y-93508061D01*
X148115226Y-93308102D01*
X148037205Y-93119744D01*
X147923937Y-92950226D01*
X147779774Y-92806063D01*
X147610256Y-92692795D01*
X147421898Y-92614774D01*
X147221939Y-92575000D01*
X147018061Y-92575000D01*
X146818102Y-92614774D01*
X146629744Y-92692795D01*
X146460226Y-92806063D01*
X146316063Y-92950226D01*
X146202795Y-93119744D01*
X146124774Y-93308102D01*
X146085000Y-93508061D01*
X146085000Y-93711939D01*
X146110000Y-93837624D01*
X146110001Y-101671643D01*
X144671645Y-103110000D01*
X144409608Y-103110000D01*
X144360000Y-103105114D01*
X144162005Y-103124615D01*
X143971620Y-103182368D01*
X143796160Y-103276153D01*
X143642367Y-103402367D01*
X143610744Y-103440900D01*
X140436000Y-106615645D01*
X140436000Y-99234355D01*
X140730355Y-98940000D01*
X143782377Y-98940000D01*
X143908061Y-98965000D01*
X144111939Y-98965000D01*
X144311898Y-98925226D01*
X144500256Y-98847205D01*
X144669774Y-98733937D01*
X144813937Y-98589774D01*
X144927205Y-98420256D01*
X145005226Y-98231898D01*
X145045000Y-98031939D01*
X145045000Y-97828061D01*
X145005226Y-97628102D01*
X144927205Y-97439744D01*
X144813937Y-97270226D01*
X144669774Y-97126063D01*
X144500256Y-97012795D01*
X144311898Y-96934774D01*
X144111939Y-96895000D01*
X143908061Y-96895000D01*
X143782377Y-96920000D01*
X140361604Y-96920000D01*
X140311999Y-96915114D01*
X140262394Y-96920000D01*
X140262392Y-96920000D01*
X140114006Y-96934615D01*
X139923620Y-96992368D01*
X139748160Y-97086153D01*
X139594367Y-97212367D01*
X139562739Y-97250906D01*
X138746906Y-98066739D01*
X138708367Y-98098367D01*
X138582153Y-98252160D01*
X138492305Y-98420256D01*
X138488368Y-98427621D01*
X138430615Y-98618006D01*
X138411114Y-98816000D01*
X138416000Y-98865608D01*
X138416001Y-105964290D01*
X138327774Y-105876063D01*
X138158256Y-105762795D01*
X137969898Y-105684774D01*
X137769939Y-105645000D01*
X137566061Y-105645000D01*
X137366102Y-105684774D01*
X137177744Y-105762795D01*
X137008226Y-105876063D01*
X136864063Y-106020226D01*
X136750795Y-106189744D01*
X136672774Y-106378102D01*
X136633000Y-106578061D01*
X135137030Y-106578061D01*
X135147000Y-106527939D01*
X135147000Y-106324061D01*
X135107226Y-106124102D01*
X135029205Y-105935744D01*
X134915937Y-105766226D01*
X134771774Y-105622063D01*
X134602256Y-105508795D01*
X134413898Y-105430774D01*
X134213939Y-105391000D01*
X134010061Y-105391000D01*
X133810102Y-105430774D01*
X133621744Y-105508795D01*
X133452226Y-105622063D01*
X133308063Y-105766226D01*
X133194795Y-105935744D01*
X133116774Y-106124102D01*
X133077000Y-106324061D01*
X113645000Y-106324061D01*
X113645000Y-106148061D01*
X113605226Y-105948102D01*
X113527205Y-105759744D01*
X113413937Y-105590226D01*
X113269774Y-105446063D01*
X113100256Y-105332795D01*
X112911898Y-105254774D01*
X112728072Y-105218209D01*
X112728072Y-104378061D01*
X127335000Y-104378061D01*
X127335000Y-104581939D01*
X127374774Y-104781898D01*
X127452795Y-104970256D01*
X127566063Y-105139774D01*
X127710226Y-105283937D01*
X127879744Y-105397205D01*
X128068102Y-105475226D01*
X128268061Y-105515000D01*
X128471939Y-105515000D01*
X128671898Y-105475226D01*
X128860256Y-105397205D01*
X129029774Y-105283937D01*
X129173937Y-105139774D01*
X129287205Y-104970256D01*
X129365226Y-104781898D01*
X129405000Y-104581939D01*
X129405000Y-104378061D01*
X129365226Y-104178102D01*
X129287205Y-103989744D01*
X129173937Y-103820226D01*
X129029774Y-103676063D01*
X128860256Y-103562795D01*
X128671898Y-103484774D01*
X128471939Y-103445000D01*
X128268061Y-103445000D01*
X128068102Y-103484774D01*
X127879744Y-103562795D01*
X127710226Y-103676063D01*
X127566063Y-103820226D01*
X127452795Y-103989744D01*
X127374774Y-104178102D01*
X127335000Y-104378061D01*
X112728072Y-104378061D01*
X112728072Y-103218061D01*
X115345000Y-103218061D01*
X115345000Y-103421939D01*
X115384774Y-103621898D01*
X115462795Y-103810256D01*
X115576063Y-103979774D01*
X115720226Y-104123937D01*
X115889744Y-104237205D01*
X116078102Y-104315226D01*
X116278061Y-104355000D01*
X116481939Y-104355000D01*
X116681898Y-104315226D01*
X116870256Y-104237205D01*
X117039774Y-104123937D01*
X117183937Y-103979774D01*
X117297205Y-103810256D01*
X117358760Y-103661650D01*
X117488102Y-103715226D01*
X117688061Y-103755000D01*
X117891939Y-103755000D01*
X118091898Y-103715226D01*
X118280256Y-103637205D01*
X118449774Y-103523937D01*
X118593937Y-103379774D01*
X118707205Y-103210256D01*
X118785226Y-103021898D01*
X118825000Y-102821939D01*
X118825000Y-102618061D01*
X118785226Y-102418102D01*
X118707205Y-102229744D01*
X118593937Y-102060226D01*
X118449774Y-101916063D01*
X118280256Y-101802795D01*
X118091898Y-101724774D01*
X117891939Y-101685000D01*
X117688061Y-101685000D01*
X117488102Y-101724774D01*
X117299744Y-101802795D01*
X117130226Y-101916063D01*
X116986063Y-102060226D01*
X116872795Y-102229744D01*
X116811240Y-102378350D01*
X116681898Y-102324774D01*
X116481939Y-102285000D01*
X116278061Y-102285000D01*
X116078102Y-102324774D01*
X115889744Y-102402795D01*
X115720226Y-102516063D01*
X115576063Y-102660226D01*
X115462795Y-102829744D01*
X115384774Y-103018102D01*
X115345000Y-103218061D01*
X112728072Y-103218061D01*
X112728072Y-103110000D01*
X112715812Y-102985518D01*
X112679502Y-102865820D01*
X112620537Y-102755506D01*
X112541185Y-102658815D01*
X112444494Y-102579463D01*
X112334180Y-102520498D01*
X112214482Y-102484188D01*
X112090000Y-102471928D01*
X109690000Y-102471928D01*
X109565518Y-102484188D01*
X109445820Y-102520498D01*
X109335506Y-102579463D01*
X109238815Y-102658815D01*
X109159463Y-102755506D01*
X109100498Y-102865820D01*
X109064188Y-102985518D01*
X109051928Y-103110000D01*
X107365001Y-103110000D01*
X107365001Y-90810000D01*
X109061928Y-90810000D01*
X109061928Y-93210000D01*
X109074188Y-93334482D01*
X109110498Y-93454180D01*
X109169463Y-93564494D01*
X109248815Y-93661185D01*
X109345506Y-93740537D01*
X109455820Y-93799502D01*
X109575518Y-93835812D01*
X109700000Y-93848072D01*
X110117162Y-93848072D01*
X110030801Y-93883844D01*
X109730256Y-94084662D01*
X109474662Y-94340256D01*
X109273844Y-94640801D01*
X109135518Y-94974750D01*
X109065000Y-95329268D01*
X109065000Y-95690732D01*
X109135518Y-96045250D01*
X109273844Y-96379199D01*
X109474662Y-96679744D01*
X109730256Y-96935338D01*
X110030801Y-97136156D01*
X110329787Y-97260000D01*
X110030801Y-97383844D01*
X109730256Y-97584662D01*
X109474662Y-97840256D01*
X109273844Y-98140801D01*
X109135518Y-98474750D01*
X109065000Y-98829268D01*
X109065000Y-99190732D01*
X109135518Y-99545250D01*
X109273844Y-99879199D01*
X109474662Y-100179744D01*
X109730256Y-100435338D01*
X110030801Y-100636156D01*
X110364750Y-100774482D01*
X110719268Y-100845000D01*
X111080732Y-100845000D01*
X111435250Y-100774482D01*
X111769199Y-100636156D01*
X112069744Y-100435338D01*
X112325338Y-100179744D01*
X112526156Y-99879199D01*
X112664482Y-99545250D01*
X112735000Y-99190732D01*
X112735000Y-98829268D01*
X112664482Y-98474750D01*
X112526156Y-98140801D01*
X112325338Y-97840256D01*
X112069744Y-97584662D01*
X111769199Y-97383844D01*
X111470213Y-97260000D01*
X111663202Y-97180061D01*
X133077000Y-97180061D01*
X133077000Y-97383939D01*
X133116774Y-97583898D01*
X133194795Y-97772256D01*
X133308063Y-97941774D01*
X133452226Y-98085937D01*
X133621744Y-98199205D01*
X133810102Y-98277226D01*
X134010061Y-98317000D01*
X134213939Y-98317000D01*
X134413898Y-98277226D01*
X134602256Y-98199205D01*
X134771774Y-98085937D01*
X134910997Y-97946714D01*
X136383653Y-97946714D01*
X136383653Y-98150592D01*
X136423427Y-98350551D01*
X136501448Y-98538909D01*
X136614716Y-98708427D01*
X136758879Y-98852590D01*
X136928397Y-98965858D01*
X137116755Y-99043879D01*
X137316714Y-99083653D01*
X137520592Y-99083653D01*
X137720551Y-99043879D01*
X137908909Y-98965858D01*
X138078427Y-98852590D01*
X138222590Y-98708427D01*
X138335858Y-98538909D01*
X138413879Y-98350551D01*
X138453653Y-98150592D01*
X138453653Y-97946714D01*
X138413879Y-97746755D01*
X138335858Y-97558397D01*
X138222590Y-97388879D01*
X138078427Y-97244716D01*
X137908909Y-97131448D01*
X137720551Y-97053427D01*
X137520592Y-97013653D01*
X137316714Y-97013653D01*
X137116755Y-97053427D01*
X136928397Y-97131448D01*
X136758879Y-97244716D01*
X136614716Y-97388879D01*
X136501448Y-97558397D01*
X136423427Y-97746755D01*
X136383653Y-97946714D01*
X134910997Y-97946714D01*
X134915937Y-97941774D01*
X135029205Y-97772256D01*
X135107226Y-97583898D01*
X135147000Y-97383939D01*
X135147000Y-97180061D01*
X135107226Y-96980102D01*
X135029205Y-96791744D01*
X134915937Y-96622226D01*
X134771774Y-96478063D01*
X134602256Y-96364795D01*
X134413898Y-96286774D01*
X134213939Y-96247000D01*
X134010061Y-96247000D01*
X133810102Y-96286774D01*
X133621744Y-96364795D01*
X133452226Y-96478063D01*
X133308063Y-96622226D01*
X133194795Y-96791744D01*
X133116774Y-96980102D01*
X133077000Y-97180061D01*
X111663202Y-97180061D01*
X111769199Y-97136156D01*
X112069744Y-96935338D01*
X112325338Y-96679744D01*
X112526156Y-96379199D01*
X112664482Y-96045250D01*
X112735000Y-95690732D01*
X112735000Y-95329268D01*
X112664482Y-94974750D01*
X112526156Y-94640801D01*
X112325338Y-94340256D01*
X112069744Y-94084662D01*
X111769199Y-93883844D01*
X111682838Y-93848072D01*
X112100000Y-93848072D01*
X112224482Y-93835812D01*
X112344180Y-93799502D01*
X112454494Y-93740537D01*
X112551185Y-93661185D01*
X112630537Y-93564494D01*
X112689502Y-93454180D01*
X112725812Y-93334482D01*
X112738072Y-93210000D01*
X112738072Y-92188061D01*
X115735000Y-92188061D01*
X115735000Y-92391939D01*
X115774774Y-92591898D01*
X115852795Y-92780256D01*
X115966063Y-92949774D01*
X116098206Y-93081917D01*
X116012795Y-93209744D01*
X115934774Y-93398102D01*
X115895000Y-93598061D01*
X115895000Y-93801939D01*
X115934774Y-94001898D01*
X116012795Y-94190256D01*
X116126063Y-94359774D01*
X116270226Y-94503937D01*
X116439744Y-94617205D01*
X116628102Y-94695226D01*
X116828061Y-94735000D01*
X117031939Y-94735000D01*
X117231898Y-94695226D01*
X117420256Y-94617205D01*
X117589774Y-94503937D01*
X117733937Y-94359774D01*
X117847205Y-94190256D01*
X117925226Y-94001898D01*
X117965000Y-93801939D01*
X117965000Y-93598061D01*
X117925226Y-93398102D01*
X117847205Y-93209744D01*
X117733937Y-93040226D01*
X117601794Y-92908083D01*
X117687205Y-92780256D01*
X117765226Y-92591898D01*
X117805000Y-92391939D01*
X117805000Y-92188061D01*
X117765226Y-91988102D01*
X117687205Y-91799744D01*
X117573937Y-91630226D01*
X117429774Y-91486063D01*
X117260256Y-91372795D01*
X117071898Y-91294774D01*
X116871939Y-91255000D01*
X116668061Y-91255000D01*
X116468102Y-91294774D01*
X116279744Y-91372795D01*
X116110226Y-91486063D01*
X115966063Y-91630226D01*
X115852795Y-91799744D01*
X115774774Y-91988102D01*
X115735000Y-92188061D01*
X112738072Y-92188061D01*
X112738072Y-91188061D01*
X142195000Y-91188061D01*
X142195000Y-91391939D01*
X142234774Y-91591898D01*
X142312795Y-91780256D01*
X142426063Y-91949774D01*
X142570226Y-92093937D01*
X142739744Y-92207205D01*
X142928102Y-92285226D01*
X143128061Y-92325000D01*
X143331939Y-92325000D01*
X143531898Y-92285226D01*
X143720256Y-92207205D01*
X143889774Y-92093937D01*
X144033937Y-91949774D01*
X144088535Y-91868061D01*
X174085000Y-91868061D01*
X174085000Y-92071939D01*
X174124774Y-92271898D01*
X174202795Y-92460256D01*
X174316063Y-92629774D01*
X174460226Y-92773937D01*
X174629744Y-92887205D01*
X174818102Y-92965226D01*
X175018061Y-93005000D01*
X175221939Y-93005000D01*
X175421898Y-92965226D01*
X175610256Y-92887205D01*
X175779774Y-92773937D01*
X175923937Y-92629774D01*
X176037205Y-92460256D01*
X176115226Y-92271898D01*
X176155000Y-92071939D01*
X176155000Y-91868061D01*
X176115226Y-91668102D01*
X176037205Y-91479744D01*
X175923937Y-91310226D01*
X175779774Y-91166063D01*
X175610256Y-91052795D01*
X175421898Y-90974774D01*
X175221939Y-90935000D01*
X175018061Y-90935000D01*
X174818102Y-90974774D01*
X174629744Y-91052795D01*
X174460226Y-91166063D01*
X174316063Y-91310226D01*
X174202795Y-91479744D01*
X174124774Y-91668102D01*
X174085000Y-91868061D01*
X144088535Y-91868061D01*
X144147205Y-91780256D01*
X144225226Y-91591898D01*
X144265000Y-91391939D01*
X144265000Y-91188061D01*
X144225226Y-90988102D01*
X144147205Y-90799744D01*
X144033937Y-90630226D01*
X143889774Y-90486063D01*
X143720256Y-90372795D01*
X143531898Y-90294774D01*
X143331939Y-90255000D01*
X143128061Y-90255000D01*
X142928102Y-90294774D01*
X142739744Y-90372795D01*
X142570226Y-90486063D01*
X142426063Y-90630226D01*
X142312795Y-90799744D01*
X142234774Y-90988102D01*
X142195000Y-91188061D01*
X112738072Y-91188061D01*
X112738072Y-90810000D01*
X112725812Y-90685518D01*
X112689502Y-90565820D01*
X112630537Y-90455506D01*
X112551185Y-90358815D01*
X112454494Y-90279463D01*
X112344180Y-90220498D01*
X112224482Y-90184188D01*
X112100000Y-90171928D01*
X109700000Y-90171928D01*
X109575518Y-90184188D01*
X109455820Y-90220498D01*
X109345506Y-90279463D01*
X109248815Y-90358815D01*
X109169463Y-90455506D01*
X109110498Y-90565820D01*
X109074188Y-90685518D01*
X109061928Y-90810000D01*
X107365001Y-90810000D01*
X107365001Y-87782061D01*
X132823000Y-87782061D01*
X132823000Y-87985939D01*
X132862774Y-88185898D01*
X132940795Y-88374256D01*
X133054063Y-88543774D01*
X133198226Y-88687937D01*
X133367744Y-88801205D01*
X133556102Y-88879226D01*
X133756061Y-88919000D01*
X133959939Y-88919000D01*
X134159898Y-88879226D01*
X134348256Y-88801205D01*
X134352961Y-88798061D01*
X136125000Y-88798061D01*
X136125000Y-89001939D01*
X136164774Y-89201898D01*
X136242795Y-89390256D01*
X136356063Y-89559774D01*
X136500226Y-89703937D01*
X136669744Y-89817205D01*
X136858102Y-89895226D01*
X137058061Y-89935000D01*
X137261939Y-89935000D01*
X137461898Y-89895226D01*
X137650256Y-89817205D01*
X137819774Y-89703937D01*
X137963937Y-89559774D01*
X138077205Y-89390256D01*
X138155226Y-89201898D01*
X138177869Y-89088061D01*
X154665000Y-89088061D01*
X154665000Y-89291939D01*
X154704774Y-89491898D01*
X154782795Y-89680256D01*
X154896063Y-89849774D01*
X155040226Y-89993937D01*
X155209744Y-90107205D01*
X155398102Y-90185226D01*
X155598061Y-90225000D01*
X155801939Y-90225000D01*
X156001898Y-90185226D01*
X156190256Y-90107205D01*
X156359774Y-89993937D01*
X156412288Y-89941423D01*
X156405000Y-89978061D01*
X156405000Y-90181939D01*
X156444774Y-90381898D01*
X156522795Y-90570256D01*
X156636063Y-90739774D01*
X156780226Y-90883937D01*
X156949744Y-90997205D01*
X157138102Y-91075226D01*
X157338061Y-91115000D01*
X157541939Y-91115000D01*
X157741898Y-91075226D01*
X157930256Y-90997205D01*
X158099774Y-90883937D01*
X158243937Y-90739774D01*
X158262112Y-90712572D01*
X158262774Y-90715898D01*
X158340795Y-90904256D01*
X158454063Y-91073774D01*
X158598226Y-91217937D01*
X158767744Y-91331205D01*
X158956102Y-91409226D01*
X159156061Y-91449000D01*
X159359939Y-91449000D01*
X159559898Y-91409226D01*
X159748256Y-91331205D01*
X159917774Y-91217937D01*
X159962412Y-91173299D01*
X160040793Y-91205766D01*
X160240752Y-91245540D01*
X160444630Y-91245540D01*
X160644589Y-91205766D01*
X160832947Y-91127745D01*
X161002465Y-91014477D01*
X161146628Y-90870314D01*
X161259896Y-90700796D01*
X161337917Y-90512438D01*
X161377691Y-90312479D01*
X161377691Y-90189271D01*
X161464625Y-90189271D01*
X161664584Y-90149497D01*
X161852942Y-90071476D01*
X162022460Y-89958208D01*
X162166623Y-89814045D01*
X162279891Y-89644527D01*
X162282569Y-89638061D01*
X165615000Y-89638061D01*
X165615000Y-89841939D01*
X165654774Y-90041898D01*
X165732795Y-90230256D01*
X165846063Y-90399774D01*
X165990226Y-90543937D01*
X166159744Y-90657205D01*
X166348102Y-90735226D01*
X166548061Y-90775000D01*
X166751939Y-90775000D01*
X166877623Y-90750000D01*
X185651928Y-90750000D01*
X185651928Y-93150000D01*
X185664188Y-93274482D01*
X185700498Y-93394180D01*
X185759463Y-93504494D01*
X185838815Y-93601185D01*
X185935506Y-93680537D01*
X186045820Y-93739502D01*
X186165518Y-93775812D01*
X186290000Y-93788072D01*
X188690000Y-93788072D01*
X188814482Y-93775812D01*
X188934180Y-93739502D01*
X189044494Y-93680537D01*
X189141185Y-93601185D01*
X189220537Y-93504494D01*
X189279502Y-93394180D01*
X189315812Y-93274482D01*
X189328072Y-93150000D01*
X189328072Y-90750000D01*
X189315812Y-90625518D01*
X189279502Y-90505820D01*
X189220537Y-90395506D01*
X189141185Y-90298815D01*
X189044494Y-90219463D01*
X188934180Y-90160498D01*
X188814482Y-90124188D01*
X188690000Y-90111928D01*
X188272838Y-90111928D01*
X188359199Y-90076156D01*
X188659744Y-89875338D01*
X188915338Y-89619744D01*
X189116156Y-89319199D01*
X189254482Y-88985250D01*
X189325000Y-88630732D01*
X189325000Y-88269268D01*
X189254482Y-87914750D01*
X189116156Y-87580801D01*
X188915338Y-87280256D01*
X188659744Y-87024662D01*
X188359199Y-86823844D01*
X188060213Y-86700000D01*
X188359199Y-86576156D01*
X188659744Y-86375338D01*
X188915338Y-86119744D01*
X189116156Y-85819199D01*
X189254482Y-85485250D01*
X189325000Y-85130732D01*
X189325000Y-84769268D01*
X189254482Y-84414750D01*
X189116156Y-84080801D01*
X188915338Y-83780256D01*
X188659744Y-83524662D01*
X188359199Y-83323844D01*
X188025250Y-83185518D01*
X187670732Y-83115000D01*
X187309268Y-83115000D01*
X186954750Y-83185518D01*
X186620801Y-83323844D01*
X186320256Y-83524662D01*
X186064662Y-83780256D01*
X185863844Y-84080801D01*
X185725518Y-84414750D01*
X185655000Y-84769268D01*
X185655000Y-85130732D01*
X185725518Y-85485250D01*
X185863844Y-85819199D01*
X186064662Y-86119744D01*
X186320256Y-86375338D01*
X186620801Y-86576156D01*
X186919787Y-86700000D01*
X186620801Y-86823844D01*
X186320256Y-87024662D01*
X186064662Y-87280256D01*
X185863844Y-87580801D01*
X185725518Y-87914750D01*
X185655000Y-88269268D01*
X185655000Y-88630732D01*
X185725518Y-88985250D01*
X185863844Y-89319199D01*
X186064662Y-89619744D01*
X186320256Y-89875338D01*
X186620801Y-90076156D01*
X186707162Y-90111928D01*
X186290000Y-90111928D01*
X186165518Y-90124188D01*
X186045820Y-90160498D01*
X185935506Y-90219463D01*
X185838815Y-90298815D01*
X185759463Y-90395506D01*
X185700498Y-90505820D01*
X185664188Y-90625518D01*
X185651928Y-90750000D01*
X166877623Y-90750000D01*
X166951898Y-90735226D01*
X167140256Y-90657205D01*
X167309774Y-90543937D01*
X167453937Y-90399774D01*
X167567205Y-90230256D01*
X167645226Y-90041898D01*
X167685000Y-89841939D01*
X167685000Y-89638061D01*
X167645226Y-89438102D01*
X167567205Y-89249744D01*
X167453937Y-89080226D01*
X167309774Y-88936063D01*
X167140256Y-88822795D01*
X166951898Y-88744774D01*
X166751939Y-88705000D01*
X166548061Y-88705000D01*
X166348102Y-88744774D01*
X166159744Y-88822795D01*
X165990226Y-88936063D01*
X165846063Y-89080226D01*
X165732795Y-89249744D01*
X165654774Y-89438102D01*
X165615000Y-89638061D01*
X162282569Y-89638061D01*
X162357912Y-89456169D01*
X162397686Y-89256210D01*
X162397686Y-89052332D01*
X162357912Y-88852373D01*
X162279891Y-88664015D01*
X162166623Y-88494497D01*
X162022460Y-88350334D01*
X161852942Y-88237066D01*
X161664584Y-88159045D01*
X161464625Y-88119271D01*
X161260747Y-88119271D01*
X161060788Y-88159045D01*
X160872430Y-88237066D01*
X160702912Y-88350334D01*
X160558749Y-88494497D01*
X160445481Y-88664015D01*
X160367460Y-88852373D01*
X160327686Y-89052332D01*
X160327686Y-89175540D01*
X160240752Y-89175540D01*
X160040793Y-89215314D01*
X159852435Y-89293335D01*
X159682917Y-89406603D01*
X159638279Y-89451241D01*
X159559898Y-89418774D01*
X159359939Y-89379000D01*
X159156061Y-89379000D01*
X158956102Y-89418774D01*
X158767744Y-89496795D01*
X158598226Y-89610063D01*
X158454063Y-89754226D01*
X158435888Y-89781428D01*
X158435226Y-89778102D01*
X158357205Y-89589744D01*
X158243937Y-89420226D01*
X158099774Y-89276063D01*
X157930256Y-89162795D01*
X157741898Y-89084774D01*
X157541939Y-89045000D01*
X157338061Y-89045000D01*
X157138102Y-89084774D01*
X156949744Y-89162795D01*
X156780226Y-89276063D01*
X156727712Y-89328577D01*
X156735000Y-89291939D01*
X156735000Y-89088061D01*
X156695226Y-88888102D01*
X156617205Y-88699744D01*
X156503937Y-88530226D01*
X156359774Y-88386063D01*
X156190256Y-88272795D01*
X156001898Y-88194774D01*
X155801939Y-88155000D01*
X155598061Y-88155000D01*
X155398102Y-88194774D01*
X155209744Y-88272795D01*
X155040226Y-88386063D01*
X154896063Y-88530226D01*
X154782795Y-88699744D01*
X154704774Y-88888102D01*
X154665000Y-89088061D01*
X138177869Y-89088061D01*
X138195000Y-89001939D01*
X138195000Y-88798061D01*
X138155226Y-88598102D01*
X138077205Y-88409744D01*
X137963937Y-88240226D01*
X137819774Y-88096063D01*
X137650256Y-87982795D01*
X137461898Y-87904774D01*
X137261939Y-87865000D01*
X137058061Y-87865000D01*
X136858102Y-87904774D01*
X136669744Y-87982795D01*
X136500226Y-88096063D01*
X136356063Y-88240226D01*
X136242795Y-88409744D01*
X136164774Y-88598102D01*
X136125000Y-88798061D01*
X134352961Y-88798061D01*
X134517774Y-88687937D01*
X134661937Y-88543774D01*
X134775205Y-88374256D01*
X134853226Y-88185898D01*
X134893000Y-87985939D01*
X134893000Y-87782061D01*
X134853226Y-87582102D01*
X134775205Y-87393744D01*
X134661937Y-87224226D01*
X134517774Y-87080063D01*
X134348256Y-86966795D01*
X134159898Y-86888774D01*
X133959939Y-86849000D01*
X133756061Y-86849000D01*
X133556102Y-86888774D01*
X133367744Y-86966795D01*
X133198226Y-87080063D01*
X133054063Y-87224226D01*
X132940795Y-87393744D01*
X132862774Y-87582102D01*
X132823000Y-87782061D01*
X107365001Y-87782061D01*
X107365001Y-86748061D01*
X152515000Y-86748061D01*
X152515000Y-86951939D01*
X152554774Y-87151898D01*
X152632795Y-87340256D01*
X152746063Y-87509774D01*
X152890226Y-87653937D01*
X153059744Y-87767205D01*
X153248102Y-87845226D01*
X153448061Y-87885000D01*
X153651939Y-87885000D01*
X153851898Y-87845226D01*
X154040256Y-87767205D01*
X154209774Y-87653937D01*
X154353937Y-87509774D01*
X154467205Y-87340256D01*
X154545226Y-87151898D01*
X154585000Y-86951939D01*
X154585000Y-86748061D01*
X154545226Y-86548102D01*
X154545210Y-86548061D01*
X174195000Y-86548061D01*
X174195000Y-86751939D01*
X174234774Y-86951898D01*
X174312795Y-87140256D01*
X174426063Y-87309774D01*
X174570226Y-87453937D01*
X174739744Y-87567205D01*
X174928102Y-87645226D01*
X175128061Y-87685000D01*
X175331939Y-87685000D01*
X175531898Y-87645226D01*
X175720256Y-87567205D01*
X175889774Y-87453937D01*
X176033937Y-87309774D01*
X176147205Y-87140256D01*
X176225226Y-86951898D01*
X176265000Y-86751939D01*
X176265000Y-86548061D01*
X176225226Y-86348102D01*
X176147205Y-86159744D01*
X176033937Y-85990226D01*
X175889774Y-85846063D01*
X175720256Y-85732795D01*
X175531898Y-85654774D01*
X175331939Y-85615000D01*
X175128061Y-85615000D01*
X174928102Y-85654774D01*
X174739744Y-85732795D01*
X174570226Y-85846063D01*
X174426063Y-85990226D01*
X174312795Y-86159744D01*
X174234774Y-86348102D01*
X174195000Y-86548061D01*
X154545210Y-86548061D01*
X154467205Y-86359744D01*
X154353937Y-86190226D01*
X154209774Y-86046063D01*
X154040256Y-85932795D01*
X153851898Y-85854774D01*
X153651939Y-85815000D01*
X153448061Y-85815000D01*
X153248102Y-85854774D01*
X153059744Y-85932795D01*
X152890226Y-86046063D01*
X152746063Y-86190226D01*
X152632795Y-86359744D01*
X152554774Y-86548102D01*
X152515000Y-86748061D01*
X107365001Y-86748061D01*
X107365001Y-84923061D01*
X115865000Y-84923061D01*
X115865000Y-85126939D01*
X115904774Y-85326898D01*
X115982795Y-85515256D01*
X116096063Y-85684774D01*
X116240226Y-85828937D01*
X116409744Y-85942205D01*
X116598102Y-86020226D01*
X116798061Y-86060000D01*
X117001939Y-86060000D01*
X117201898Y-86020226D01*
X117390256Y-85942205D01*
X117559774Y-85828937D01*
X117703937Y-85684774D01*
X117817205Y-85515256D01*
X117895226Y-85326898D01*
X117935000Y-85126939D01*
X117935000Y-84923061D01*
X117895226Y-84723102D01*
X117817205Y-84534744D01*
X117703937Y-84365226D01*
X117559774Y-84221063D01*
X117390256Y-84107795D01*
X117201898Y-84029774D01*
X117001939Y-83990000D01*
X116798061Y-83990000D01*
X116598102Y-84029774D01*
X116409744Y-84107795D01*
X116240226Y-84221063D01*
X116096063Y-84365226D01*
X115982795Y-84534744D01*
X115904774Y-84723102D01*
X115865000Y-84923061D01*
X107365001Y-84923061D01*
X107365001Y-83968061D01*
X142305000Y-83968061D01*
X142305000Y-84171939D01*
X142344774Y-84371898D01*
X142422795Y-84560256D01*
X142536063Y-84729774D01*
X142680226Y-84873937D01*
X142849744Y-84987205D01*
X143038102Y-85065226D01*
X143200221Y-85097473D01*
X143242795Y-85200256D01*
X143356063Y-85369774D01*
X143500226Y-85513937D01*
X143669744Y-85627205D01*
X143858102Y-85705226D01*
X144058061Y-85745000D01*
X144261939Y-85745000D01*
X144461898Y-85705226D01*
X144650256Y-85627205D01*
X144819774Y-85513937D01*
X144963937Y-85369774D01*
X145077205Y-85200256D01*
X145155226Y-85011898D01*
X145195000Y-84811939D01*
X145195000Y-84608061D01*
X145155226Y-84408102D01*
X145077205Y-84219744D01*
X144963937Y-84050226D01*
X144819774Y-83906063D01*
X144650256Y-83792795D01*
X144461898Y-83714774D01*
X144299779Y-83682527D01*
X144257205Y-83579744D01*
X144143937Y-83410226D01*
X143999774Y-83266063D01*
X143830256Y-83152795D01*
X143641898Y-83074774D01*
X143441939Y-83035000D01*
X143238061Y-83035000D01*
X143038102Y-83074774D01*
X142849744Y-83152795D01*
X142680226Y-83266063D01*
X142536063Y-83410226D01*
X142422795Y-83579744D01*
X142344774Y-83768102D01*
X142305000Y-83968061D01*
X107365001Y-83968061D01*
X107365001Y-81818061D01*
X115375000Y-81818061D01*
X115375000Y-82021939D01*
X115414774Y-82221898D01*
X115492795Y-82410256D01*
X115606063Y-82579774D01*
X115750226Y-82723937D01*
X115919744Y-82837205D01*
X116108102Y-82915226D01*
X116308061Y-82955000D01*
X116511939Y-82955000D01*
X116711898Y-82915226D01*
X116900256Y-82837205D01*
X117069774Y-82723937D01*
X117213937Y-82579774D01*
X117327205Y-82410256D01*
X117405226Y-82221898D01*
X117445000Y-82021939D01*
X117445000Y-81818061D01*
X117405226Y-81618102D01*
X117327205Y-81429744D01*
X117213937Y-81260226D01*
X117069774Y-81116063D01*
X116900256Y-81002795D01*
X116711898Y-80924774D01*
X116511939Y-80885000D01*
X116308061Y-80885000D01*
X116108102Y-80924774D01*
X115919744Y-81002795D01*
X115750226Y-81116063D01*
X115606063Y-81260226D01*
X115492795Y-81429744D01*
X115414774Y-81618102D01*
X115375000Y-81818061D01*
X107365001Y-81818061D01*
X107365001Y-76159228D01*
X107473948Y-76706939D01*
X107687656Y-77222876D01*
X107997912Y-77687207D01*
X108392793Y-78082088D01*
X108857124Y-78392344D01*
X109373061Y-78606052D01*
X109920777Y-78715000D01*
X110479223Y-78715000D01*
X111026939Y-78606052D01*
X111542876Y-78392344D01*
X112007207Y-78082088D01*
X112402088Y-77687207D01*
X112712344Y-77222876D01*
X112926052Y-76706939D01*
X113035000Y-76159223D01*
X113035000Y-75600777D01*
X112926052Y-75053061D01*
X112712344Y-74537124D01*
X112402088Y-74072793D01*
X112007207Y-73677912D01*
X111542876Y-73367656D01*
X111026939Y-73153948D01*
X110630048Y-73075001D01*
X114538088Y-73075001D01*
X114363080Y-73158359D01*
G04 #@! TA.AperFunction,Conductor*
D21*
G36*
X114363080Y-73158359D02*
G01*
X114129731Y-73332412D01*
X113934822Y-73548645D01*
X113785843Y-73798748D01*
X113688519Y-74073109D01*
X113809186Y-74303000D01*
X115003000Y-74303000D01*
X115003000Y-74283000D01*
X115257000Y-74283000D01*
X115257000Y-74303000D01*
X117543000Y-74303000D01*
X117543000Y-74283000D01*
X117797000Y-74283000D01*
X117797000Y-74303000D01*
X117817000Y-74303000D01*
X117817000Y-74557000D01*
X117797000Y-74557000D01*
X117797000Y-74577000D01*
X117543000Y-74577000D01*
X117543000Y-74557000D01*
X115257000Y-74557000D01*
X115257000Y-74577000D01*
X115003000Y-74577000D01*
X115003000Y-74557000D01*
X113809186Y-74557000D01*
X113688519Y-74786891D01*
X113785843Y-75061252D01*
X113934822Y-75311355D01*
X114111626Y-75507502D01*
X114035820Y-75530498D01*
X113925506Y-75589463D01*
X113828815Y-75668815D01*
X113749463Y-75765506D01*
X113690498Y-75875820D01*
X113654188Y-75995518D01*
X113641928Y-76120000D01*
X113641928Y-77820000D01*
X113654188Y-77944482D01*
X113690498Y-78064180D01*
X113749463Y-78174494D01*
X113828815Y-78271185D01*
X113925506Y-78350537D01*
X114035820Y-78409502D01*
X114155518Y-78445812D01*
X114280000Y-78458072D01*
X115980000Y-78458072D01*
X116104482Y-78445812D01*
X116224180Y-78409502D01*
X116334494Y-78350537D01*
X116431185Y-78271185D01*
X116510537Y-78174494D01*
X116569502Y-78064180D01*
X116591513Y-77991620D01*
X116723368Y-78123475D01*
X116966589Y-78285990D01*
X117236842Y-78397932D01*
X117523740Y-78455000D01*
X117816260Y-78455000D01*
X118103158Y-78397932D01*
X118373411Y-78285990D01*
X118616632Y-78123475D01*
X118823475Y-77916632D01*
X118940000Y-77742240D01*
X119056525Y-77916632D01*
X119263368Y-78123475D01*
X119506589Y-78285990D01*
X119776842Y-78397932D01*
X120063740Y-78455000D01*
X120356260Y-78455000D01*
X120643158Y-78397932D01*
X120913411Y-78285990D01*
X121156632Y-78123475D01*
X121363475Y-77916632D01*
X121480000Y-77742240D01*
X121596525Y-77916632D01*
X121803368Y-78123475D01*
X122046589Y-78285990D01*
X122316842Y-78397932D01*
X122603740Y-78455000D01*
X122896260Y-78455000D01*
X123183158Y-78397932D01*
X123453411Y-78285990D01*
X123696632Y-78123475D01*
X123903475Y-77916632D01*
X124020000Y-77742240D01*
X124136525Y-77916632D01*
X124343368Y-78123475D01*
X124586589Y-78285990D01*
X124856842Y-78397932D01*
X125143740Y-78455000D01*
X125436260Y-78455000D01*
X125723158Y-78397932D01*
X125993411Y-78285990D01*
X126236632Y-78123475D01*
X126443475Y-77916632D01*
X126560000Y-77742240D01*
X126676525Y-77916632D01*
X126883368Y-78123475D01*
X127126589Y-78285990D01*
X127396842Y-78397932D01*
X127683740Y-78455000D01*
X127976260Y-78455000D01*
X128263158Y-78397932D01*
X128533411Y-78285990D01*
X128776632Y-78123475D01*
X128983475Y-77916632D01*
X129100000Y-77742240D01*
X129216525Y-77916632D01*
X129423368Y-78123475D01*
X129666589Y-78285990D01*
X129936842Y-78397932D01*
X130223740Y-78455000D01*
X130516260Y-78455000D01*
X130803158Y-78397932D01*
X131073411Y-78285990D01*
X131316632Y-78123475D01*
X131523475Y-77916632D01*
X131640000Y-77742240D01*
X131756525Y-77916632D01*
X131963368Y-78123475D01*
X132206589Y-78285990D01*
X132476842Y-78397932D01*
X132763740Y-78455000D01*
X133056260Y-78455000D01*
X133343158Y-78397932D01*
X133613411Y-78285990D01*
X133856632Y-78123475D01*
X134063475Y-77916632D01*
X134180000Y-77742240D01*
X134296525Y-77916632D01*
X134503368Y-78123475D01*
X134746589Y-78285990D01*
X135016842Y-78397932D01*
X135303740Y-78455000D01*
X135596260Y-78455000D01*
X135883158Y-78397932D01*
X136143354Y-78290156D01*
X137395204Y-79542007D01*
X137418998Y-79571000D01*
X137447991Y-79594794D01*
X137447995Y-79594798D01*
X137506980Y-79643205D01*
X137534723Y-79665973D01*
X137666752Y-79736545D01*
X137810013Y-79780002D01*
X137921666Y-79790999D01*
X137921675Y-79790999D01*
X137926196Y-79791444D01*
X137903000Y-79908061D01*
X137903000Y-80111939D01*
X137942774Y-80311898D01*
X138020795Y-80500256D01*
X138134063Y-80669774D01*
X138278226Y-80813937D01*
X138447744Y-80927205D01*
X138636102Y-81005226D01*
X138836061Y-81045000D01*
X139039939Y-81045000D01*
X139239898Y-81005226D01*
X139255000Y-80998971D01*
X139255000Y-81091939D01*
X139294774Y-81291898D01*
X139372795Y-81480256D01*
X139486063Y-81649774D01*
X139630226Y-81793937D01*
X139799744Y-81907205D01*
X139988102Y-81985226D01*
X140188061Y-82025000D01*
X140391939Y-82025000D01*
X140591898Y-81985226D01*
X140780256Y-81907205D01*
X140949774Y-81793937D01*
X141093937Y-81649774D01*
X141207205Y-81480256D01*
X141285226Y-81291898D01*
X141325000Y-81091939D01*
X141325000Y-80888061D01*
X141285226Y-80688102D01*
X141207205Y-80499744D01*
X141093937Y-80330226D01*
X141053589Y-80289878D01*
X141053676Y-80288997D01*
X141050000Y-80251674D01*
X141050000Y-80251665D01*
X141039003Y-80140012D01*
X140995546Y-79996751D01*
X140924974Y-79864722D01*
X140864471Y-79790999D01*
X141235000Y-79790999D01*
X141235000Y-79857938D01*
X141274774Y-80057897D01*
X141352795Y-80246255D01*
X141466063Y-80415773D01*
X141610226Y-80559936D01*
X141779744Y-80673204D01*
X141968102Y-80751225D01*
X142168061Y-80790999D01*
X142371939Y-80790999D01*
X142571898Y-80751225D01*
X142760256Y-80673204D01*
X142929774Y-80559936D01*
X143073937Y-80415773D01*
X143187205Y-80246255D01*
X143265226Y-80057897D01*
X143305000Y-79857938D01*
X143305000Y-79790999D01*
X147892771Y-79790999D01*
X147870226Y-79806063D01*
X147726063Y-79950226D01*
X147612795Y-80119744D01*
X147534774Y-80308102D01*
X147495000Y-80508061D01*
X147495000Y-80711939D01*
X147534774Y-80911898D01*
X147612795Y-81100256D01*
X147726063Y-81269774D01*
X147870226Y-81413937D01*
X148039744Y-81527205D01*
X148228102Y-81605226D01*
X148428061Y-81645000D01*
X148631939Y-81645000D01*
X148831898Y-81605226D01*
X149020256Y-81527205D01*
X149189774Y-81413937D01*
X149333937Y-81269774D01*
X149447205Y-81100256D01*
X149525226Y-80911898D01*
X149565000Y-80711939D01*
X149565000Y-80649802D01*
X149980004Y-80234798D01*
X150009002Y-80211000D01*
X150035333Y-80178916D01*
X150103975Y-80095276D01*
X150174547Y-79963246D01*
X150177048Y-79955000D01*
X150218004Y-79819985D01*
X150220859Y-79790999D01*
X151566198Y-79790999D01*
X153673653Y-81898455D01*
X153673653Y-81903286D01*
X153713427Y-82103245D01*
X153791448Y-82291603D01*
X153904716Y-82461121D01*
X154048879Y-82605284D01*
X154218397Y-82718552D01*
X154406755Y-82796573D01*
X154606714Y-82836347D01*
X154810592Y-82836347D01*
X155010551Y-82796573D01*
X155198909Y-82718552D01*
X155368427Y-82605284D01*
X155512590Y-82461121D01*
X155625858Y-82291603D01*
X155703879Y-82103245D01*
X155743653Y-81903286D01*
X155743653Y-81699408D01*
X155727525Y-81618326D01*
X156730001Y-82620803D01*
X156730001Y-82916288D01*
X156686063Y-82960226D01*
X156572795Y-83129744D01*
X156494774Y-83318102D01*
X156455000Y-83518061D01*
X156455000Y-83721939D01*
X156494774Y-83921898D01*
X156572795Y-84110256D01*
X156686063Y-84279774D01*
X156830226Y-84423937D01*
X156999744Y-84537205D01*
X157188102Y-84615226D01*
X157388061Y-84655000D01*
X157591939Y-84655000D01*
X157791898Y-84615226D01*
X157980256Y-84537205D01*
X158086730Y-84466061D01*
X165835000Y-84466061D01*
X165835000Y-84669939D01*
X165874774Y-84869898D01*
X165952795Y-85058256D01*
X166066063Y-85227774D01*
X166210226Y-85371937D01*
X166379744Y-85485205D01*
X166568102Y-85563226D01*
X166768061Y-85603000D01*
X166971939Y-85603000D01*
X167171898Y-85563226D01*
X167360256Y-85485205D01*
X167529774Y-85371937D01*
X167673937Y-85227774D01*
X167787205Y-85058256D01*
X167865226Y-84869898D01*
X167905000Y-84669939D01*
X167905000Y-84466061D01*
X167865226Y-84266102D01*
X167787205Y-84077744D01*
X167673937Y-83908226D01*
X167529774Y-83764063D01*
X167360256Y-83650795D01*
X167171898Y-83572774D01*
X166971939Y-83533000D01*
X166768061Y-83533000D01*
X166568102Y-83572774D01*
X166379744Y-83650795D01*
X166210226Y-83764063D01*
X166066063Y-83908226D01*
X165952795Y-84077744D01*
X165874774Y-84266102D01*
X165835000Y-84466061D01*
X158086730Y-84466061D01*
X158149774Y-84423937D01*
X158293937Y-84279774D01*
X158407205Y-84110256D01*
X158485226Y-83921898D01*
X158525000Y-83721939D01*
X158525000Y-83518061D01*
X158485226Y-83318102D01*
X158407205Y-83129744D01*
X158293937Y-82960226D01*
X158250000Y-82916289D01*
X158250000Y-82343322D01*
X158253676Y-82305999D01*
X158250000Y-82268676D01*
X158250000Y-82268667D01*
X158239003Y-82157014D01*
X158195546Y-82013753D01*
X158124974Y-81881724D01*
X158030001Y-81765999D01*
X158001003Y-81742201D01*
X157776863Y-81518061D01*
X173915000Y-81518061D01*
X173915000Y-81721939D01*
X173954774Y-81921898D01*
X174032795Y-82110256D01*
X174146063Y-82279774D01*
X174290226Y-82423937D01*
X174459744Y-82537205D01*
X174648102Y-82615226D01*
X174848061Y-82655000D01*
X175051939Y-82655000D01*
X175251898Y-82615226D01*
X175440256Y-82537205D01*
X175609774Y-82423937D01*
X175753937Y-82279774D01*
X175867205Y-82110256D01*
X175945226Y-81921898D01*
X175985000Y-81721939D01*
X175985000Y-81518061D01*
X175945226Y-81318102D01*
X175867205Y-81129744D01*
X175753937Y-80960226D01*
X175609774Y-80816063D01*
X175440256Y-80702795D01*
X175251898Y-80624774D01*
X175051939Y-80585000D01*
X174848061Y-80585000D01*
X174648102Y-80624774D01*
X174459744Y-80702795D01*
X174290226Y-80816063D01*
X174146063Y-80960226D01*
X174032795Y-81129744D01*
X173954774Y-81318102D01*
X173915000Y-81518061D01*
X157776863Y-81518061D01*
X156970000Y-80711199D01*
X156970000Y-77847002D01*
X157040000Y-77742240D01*
X157156525Y-77916632D01*
X157363368Y-78123475D01*
X157606589Y-78285990D01*
X157876842Y-78397932D01*
X158163740Y-78455000D01*
X158456260Y-78455000D01*
X158743158Y-78397932D01*
X159013411Y-78285990D01*
X159256632Y-78123475D01*
X159463475Y-77916632D01*
X159580000Y-77742240D01*
X159689332Y-77905866D01*
X158270199Y-79325000D01*
X158208061Y-79325000D01*
X158008102Y-79364774D01*
X157819744Y-79442795D01*
X157650226Y-79556063D01*
X157506063Y-79700226D01*
X157392795Y-79869744D01*
X157314774Y-80058102D01*
X157275000Y-80258061D01*
X157275000Y-80461939D01*
X157314774Y-80661898D01*
X157392795Y-80850256D01*
X157506063Y-81019774D01*
X157650226Y-81163937D01*
X157819744Y-81277205D01*
X158008102Y-81355226D01*
X158208061Y-81395000D01*
X158411939Y-81395000D01*
X158611898Y-81355226D01*
X158800256Y-81277205D01*
X158969774Y-81163937D01*
X159113937Y-81019774D01*
X159227205Y-80850256D01*
X159305226Y-80661898D01*
X159345000Y-80461939D01*
X159345000Y-80399801D01*
X159728190Y-80016611D01*
X159710000Y-80108061D01*
X159710000Y-80311939D01*
X159749774Y-80511898D01*
X159827795Y-80700256D01*
X159941063Y-80869774D01*
X160085226Y-81013937D01*
X160254744Y-81127205D01*
X160443102Y-81205226D01*
X160643061Y-81245000D01*
X160846939Y-81245000D01*
X161046898Y-81205226D01*
X161235256Y-81127205D01*
X161404774Y-81013937D01*
X161548937Y-80869774D01*
X161662205Y-80700256D01*
X161740226Y-80511898D01*
X161780000Y-80311939D01*
X161780000Y-80108061D01*
X161740226Y-79908102D01*
X161662205Y-79719744D01*
X161548937Y-79550226D01*
X161404774Y-79406063D01*
X161235256Y-79292795D01*
X161046898Y-79214774D01*
X160846939Y-79175000D01*
X160643061Y-79175000D01*
X160551612Y-79193190D01*
X161391922Y-78352881D01*
X161553411Y-78285990D01*
X161796632Y-78123475D01*
X162003475Y-77916632D01*
X162120000Y-77742240D01*
X162236525Y-77916632D01*
X162443368Y-78123475D01*
X162686589Y-78285990D01*
X162956842Y-78397932D01*
X163243740Y-78455000D01*
X163536260Y-78455000D01*
X163823158Y-78397932D01*
X164093411Y-78285990D01*
X164336632Y-78123475D01*
X164543475Y-77916632D01*
X164705990Y-77673411D01*
X164817932Y-77403158D01*
X164875000Y-77116260D01*
X164875000Y-76823740D01*
X164817932Y-76536842D01*
X164705990Y-76266589D01*
X164543475Y-76023368D01*
X164336632Y-75816525D01*
X164162240Y-75700000D01*
X164245973Y-75644051D01*
X165468274Y-75644051D01*
X165468274Y-76202497D01*
X165577222Y-76750213D01*
X165790930Y-77266150D01*
X166101186Y-77730481D01*
X166378497Y-78007792D01*
X166320063Y-78066226D01*
X166206795Y-78235744D01*
X166128774Y-78424102D01*
X166089000Y-78624061D01*
X166089000Y-78827939D01*
X166128774Y-79027898D01*
X166206795Y-79216256D01*
X166320063Y-79385774D01*
X166464226Y-79529937D01*
X166633744Y-79643205D01*
X166822102Y-79721226D01*
X167022061Y-79761000D01*
X167225939Y-79761000D01*
X167425898Y-79721226D01*
X167614256Y-79643205D01*
X167783774Y-79529937D01*
X167927937Y-79385774D01*
X168041205Y-79216256D01*
X168119226Y-79027898D01*
X168159000Y-78827939D01*
X168159000Y-78758274D01*
X168582497Y-78758274D01*
X169130213Y-78649326D01*
X169646150Y-78435618D01*
X170110481Y-78125362D01*
X170505362Y-77730481D01*
X170815618Y-77266150D01*
X171029326Y-76750213D01*
X171138274Y-76202497D01*
X171138274Y-75644051D01*
X171029326Y-75096335D01*
X170815618Y-74580398D01*
X170505362Y-74116067D01*
X170110481Y-73721186D01*
X169646150Y-73410930D01*
X169130213Y-73197222D01*
X168582497Y-73088274D01*
X168024051Y-73088274D01*
X167476335Y-73197222D01*
X166960398Y-73410930D01*
X166496067Y-73721186D01*
X166101186Y-74116067D01*
X165790930Y-74580398D01*
X165577222Y-75096335D01*
X165468274Y-75644051D01*
X164245973Y-75644051D01*
X164336632Y-75583475D01*
X164543475Y-75376632D01*
X164705990Y-75133411D01*
X164817932Y-74863158D01*
X164875000Y-74576260D01*
X164875000Y-74283740D01*
X164817932Y-73996842D01*
X164705990Y-73726589D01*
X164543475Y-73483368D01*
X164336632Y-73276525D01*
X164093411Y-73114010D01*
X163999235Y-73075001D01*
X190302512Y-73075001D01*
X190547643Y-73229160D01*
X190852911Y-73517484D01*
X191084999Y-73843643D01*
X191085000Y-124262509D01*
X190930840Y-124507643D01*
X190642516Y-124812911D01*
X190316357Y-125044999D01*
X169192133Y-125044999D01*
X169526876Y-124906344D01*
X169991207Y-124596088D01*
X170386088Y-124201207D01*
X170696344Y-123736876D01*
X170910052Y-123220939D01*
X171019000Y-122673223D01*
X171019000Y-122114777D01*
X170910052Y-121567061D01*
X170696344Y-121051124D01*
X170386088Y-120586793D01*
X169991207Y-120191912D01*
X169526876Y-119881656D01*
X169010939Y-119667948D01*
X168463223Y-119559000D01*
X167904777Y-119559000D01*
X167357061Y-119667948D01*
X166841124Y-119881656D01*
X166376793Y-120191912D01*
X165981912Y-120586793D01*
X165671656Y-121051124D01*
X165457948Y-121567061D01*
X165349000Y-122114777D01*
X165349000Y-122673223D01*
X165457948Y-123220939D01*
X165671656Y-123736876D01*
X165981912Y-124201207D01*
X166376793Y-124596088D01*
X166841124Y-124906344D01*
X167175867Y-125044999D01*
X135603172Y-125044999D01*
X135615226Y-125015898D01*
X135655000Y-124815939D01*
X135655000Y-124612061D01*
X135615226Y-124412102D01*
X135537205Y-124223744D01*
X135423937Y-124054226D01*
X135279774Y-123910063D01*
X135110256Y-123796795D01*
X134921898Y-123718774D01*
X134721939Y-123679000D01*
X134518061Y-123679000D01*
X134318102Y-123718774D01*
X134129744Y-123796795D01*
X133960226Y-123910063D01*
X133816063Y-124054226D01*
X133702795Y-124223744D01*
X133624774Y-124412102D01*
X133585000Y-124612061D01*
X133585000Y-124815939D01*
X133624774Y-125015898D01*
X133636828Y-125044999D01*
X111475138Y-125044999D01*
X111978876Y-124836344D01*
X112443207Y-124526088D01*
X112838088Y-124131207D01*
X113148344Y-123666876D01*
X113185132Y-123578061D01*
X113505000Y-123578061D01*
X113505000Y-123781939D01*
X113544774Y-123981898D01*
X113622795Y-124170256D01*
X113736063Y-124339774D01*
X113880226Y-124483937D01*
X114049744Y-124597205D01*
X114238102Y-124675226D01*
X114438061Y-124715000D01*
X114641939Y-124715000D01*
X114841898Y-124675226D01*
X115030256Y-124597205D01*
X115199774Y-124483937D01*
X115343937Y-124339774D01*
X115457205Y-124170256D01*
X115535226Y-123981898D01*
X115575000Y-123781939D01*
X115575000Y-123578061D01*
X115535226Y-123378102D01*
X115457205Y-123189744D01*
X115343937Y-123020226D01*
X115199774Y-122876063D01*
X115098002Y-122808061D01*
X127685000Y-122808061D01*
X127685000Y-123011939D01*
X127724774Y-123211898D01*
X127802795Y-123400256D01*
X127916063Y-123569774D01*
X128060226Y-123713937D01*
X128229744Y-123827205D01*
X128418102Y-123905226D01*
X128618061Y-123945000D01*
X128821939Y-123945000D01*
X129021898Y-123905226D01*
X129210256Y-123827205D01*
X129379774Y-123713937D01*
X129523937Y-123569774D01*
X129637205Y-123400256D01*
X129715226Y-123211898D01*
X129755000Y-123011939D01*
X129755000Y-122808061D01*
X129715226Y-122608102D01*
X129637205Y-122419744D01*
X129523937Y-122250226D01*
X129379774Y-122106063D01*
X129210256Y-121992795D01*
X129021898Y-121914774D01*
X128821939Y-121875000D01*
X128618061Y-121875000D01*
X128418102Y-121914774D01*
X128229744Y-121992795D01*
X128060226Y-122106063D01*
X127916063Y-122250226D01*
X127802795Y-122419744D01*
X127724774Y-122608102D01*
X127685000Y-122808061D01*
X115098002Y-122808061D01*
X115030256Y-122762795D01*
X114841898Y-122684774D01*
X114641939Y-122645000D01*
X114438061Y-122645000D01*
X114238102Y-122684774D01*
X114049744Y-122762795D01*
X113880226Y-122876063D01*
X113736063Y-123020226D01*
X113622795Y-123189744D01*
X113544774Y-123378102D01*
X113505000Y-123578061D01*
X113185132Y-123578061D01*
X113362052Y-123150939D01*
X113471000Y-122603223D01*
X113471000Y-122447000D01*
X113639939Y-122447000D01*
X113839898Y-122407226D01*
X114028256Y-122329205D01*
X114197774Y-122215937D01*
X114341937Y-122071774D01*
X114455205Y-121902256D01*
X114533226Y-121713898D01*
X114573000Y-121513939D01*
X114573000Y-121310061D01*
X114533226Y-121110102D01*
X114455205Y-120921744D01*
X114341937Y-120752226D01*
X114197774Y-120608063D01*
X114028256Y-120494795D01*
X113839898Y-120416774D01*
X113745821Y-120398061D01*
X114945000Y-120398061D01*
X114945000Y-120601939D01*
X114984774Y-120801898D01*
X115062795Y-120990256D01*
X115176063Y-121159774D01*
X115320226Y-121303937D01*
X115489744Y-121417205D01*
X115678102Y-121495226D01*
X115878061Y-121535000D01*
X116081939Y-121535000D01*
X116281898Y-121495226D01*
X116470256Y-121417205D01*
X116639774Y-121303937D01*
X116783937Y-121159774D01*
X116897205Y-120990256D01*
X116975226Y-120801898D01*
X117015000Y-120601939D01*
X117015000Y-120398061D01*
X116975226Y-120198102D01*
X116897205Y-120009744D01*
X116783937Y-119840226D01*
X116639774Y-119696063D01*
X116470256Y-119582795D01*
X116281898Y-119504774D01*
X116248150Y-119498061D01*
X138355000Y-119498061D01*
X138355000Y-119701939D01*
X138394774Y-119901898D01*
X138472795Y-120090256D01*
X138586063Y-120259774D01*
X138730226Y-120403937D01*
X138899744Y-120517205D01*
X139088102Y-120595226D01*
X139288061Y-120635000D01*
X139491939Y-120635000D01*
X139691898Y-120595226D01*
X139880256Y-120517205D01*
X140049774Y-120403937D01*
X140193937Y-120259774D01*
X140307205Y-120090256D01*
X140385226Y-119901898D01*
X140425000Y-119701939D01*
X140425000Y-119498061D01*
X140385226Y-119298102D01*
X140307205Y-119109744D01*
X140193937Y-118940226D01*
X140049774Y-118796063D01*
X139934013Y-118718714D01*
X141265653Y-118718714D01*
X141265653Y-118922592D01*
X141305427Y-119122551D01*
X141383448Y-119310909D01*
X141496716Y-119480427D01*
X141640879Y-119624590D01*
X141810397Y-119737858D01*
X141861165Y-119758887D01*
X141858815Y-119760815D01*
X141779463Y-119857506D01*
X141720498Y-119967820D01*
X141684188Y-120087518D01*
X141671928Y-120212000D01*
X141671928Y-122612000D01*
X141684188Y-122736482D01*
X141720498Y-122856180D01*
X141779463Y-122966494D01*
X141858815Y-123063185D01*
X141955506Y-123142537D01*
X142065820Y-123201502D01*
X142185518Y-123237812D01*
X142310000Y-123250072D01*
X144710000Y-123250072D01*
X144834482Y-123237812D01*
X144954180Y-123201502D01*
X145064494Y-123142537D01*
X145161185Y-123063185D01*
X145240537Y-122966494D01*
X145299502Y-122856180D01*
X145335812Y-122736482D01*
X145348072Y-122612000D01*
X145348072Y-122194838D01*
X145383844Y-122281199D01*
X145584662Y-122581744D01*
X145840256Y-122837338D01*
X146140801Y-123038156D01*
X146474750Y-123176482D01*
X146829268Y-123247000D01*
X147190732Y-123247000D01*
X147545250Y-123176482D01*
X147879199Y-123038156D01*
X148179744Y-122837338D01*
X148435338Y-122581744D01*
X148636156Y-122281199D01*
X148774482Y-121947250D01*
X148845000Y-121592732D01*
X148845000Y-121231268D01*
X148774482Y-120876750D01*
X148636156Y-120542801D01*
X148435338Y-120242256D01*
X148179744Y-119986662D01*
X147879199Y-119785844D01*
X147545250Y-119647518D01*
X147190732Y-119577000D01*
X146829268Y-119577000D01*
X146474750Y-119647518D01*
X146140801Y-119785844D01*
X145840256Y-119986662D01*
X145584662Y-120242256D01*
X145383844Y-120542801D01*
X145348072Y-120629162D01*
X145348072Y-120212000D01*
X145335812Y-120087518D01*
X145299502Y-119967820D01*
X145240537Y-119857506D01*
X145161185Y-119760815D01*
X145064494Y-119681463D01*
X144954180Y-119622498D01*
X144834482Y-119586188D01*
X144710000Y-119573928D01*
X143011089Y-119573928D01*
X143104590Y-119480427D01*
X143217858Y-119310909D01*
X143295879Y-119122551D01*
X143335653Y-118922592D01*
X143335653Y-118718714D01*
X143295879Y-118518755D01*
X143217858Y-118330397D01*
X143104590Y-118160879D01*
X142960427Y-118016716D01*
X142790909Y-117903448D01*
X142602551Y-117825427D01*
X142402592Y-117785653D01*
X142198714Y-117785653D01*
X141998755Y-117825427D01*
X141810397Y-117903448D01*
X141640879Y-118016716D01*
X141496716Y-118160879D01*
X141383448Y-118330397D01*
X141305427Y-118518755D01*
X141265653Y-118718714D01*
X139934013Y-118718714D01*
X139880256Y-118682795D01*
X139691898Y-118604774D01*
X139491939Y-118565000D01*
X139288061Y-118565000D01*
X139088102Y-118604774D01*
X138899744Y-118682795D01*
X138730226Y-118796063D01*
X138586063Y-118940226D01*
X138472795Y-119109744D01*
X138394774Y-119298102D01*
X138355000Y-119498061D01*
X116248150Y-119498061D01*
X116081939Y-119465000D01*
X115878061Y-119465000D01*
X115678102Y-119504774D01*
X115489744Y-119582795D01*
X115320226Y-119696063D01*
X115176063Y-119840226D01*
X115062795Y-120009744D01*
X114984774Y-120198102D01*
X114945000Y-120398061D01*
X113745821Y-120398061D01*
X113639939Y-120377000D01*
X113436061Y-120377000D01*
X113236102Y-120416774D01*
X113047744Y-120494795D01*
X112892638Y-120598433D01*
X112838088Y-120516793D01*
X112443207Y-120121912D01*
X111978876Y-119811656D01*
X111462939Y-119597948D01*
X110915223Y-119489000D01*
X110356777Y-119489000D01*
X109809061Y-119597948D01*
X109293124Y-119811656D01*
X108828793Y-120121912D01*
X108433912Y-120516793D01*
X108123656Y-120981124D01*
X107909948Y-121497061D01*
X107801000Y-122044777D01*
X107801000Y-122603223D01*
X107909948Y-123150939D01*
X108123656Y-123666876D01*
X108433912Y-124131207D01*
X108828793Y-124526088D01*
X109293124Y-124836344D01*
X109796862Y-125044999D01*
X108147489Y-125044999D01*
X107902357Y-124890840D01*
X107597089Y-124602516D01*
X107365001Y-124276357D01*
X107365001Y-117246061D01*
X138665000Y-117246061D01*
X138665000Y-117449939D01*
X138704774Y-117649898D01*
X138782795Y-117838256D01*
X138896063Y-118007774D01*
X139040226Y-118151937D01*
X139209744Y-118265205D01*
X139398102Y-118343226D01*
X139598061Y-118383000D01*
X139801939Y-118383000D01*
X140001898Y-118343226D01*
X140190256Y-118265205D01*
X140359774Y-118151937D01*
X140503937Y-118007774D01*
X140617205Y-117838256D01*
X140695226Y-117649898D01*
X140735000Y-117449939D01*
X140735000Y-117246061D01*
X140695226Y-117046102D01*
X140617205Y-116857744D01*
X140503937Y-116688226D01*
X140359774Y-116544063D01*
X140190256Y-116430795D01*
X140001898Y-116352774D01*
X139801939Y-116313000D01*
X139598061Y-116313000D01*
X139398102Y-116352774D01*
X139209744Y-116430795D01*
X139040226Y-116544063D01*
X138896063Y-116688226D01*
X138782795Y-116857744D01*
X138704774Y-117046102D01*
X138665000Y-117246061D01*
X107365001Y-117246061D01*
X107365001Y-115468061D01*
X132823000Y-115468061D01*
X132823000Y-115671939D01*
X132862774Y-115871898D01*
X132940795Y-116060256D01*
X133054063Y-116229774D01*
X133198226Y-116373937D01*
X133367744Y-116487205D01*
X133556102Y-116565226D01*
X133756061Y-116605000D01*
X133959939Y-116605000D01*
X134159898Y-116565226D01*
X134348256Y-116487205D01*
X134517774Y-116373937D01*
X134661937Y-116229774D01*
X134775205Y-116060256D01*
X134853226Y-115871898D01*
X134893000Y-115671939D01*
X134893000Y-115468061D01*
X134853226Y-115268102D01*
X134775205Y-115079744D01*
X134661937Y-114910226D01*
X134517774Y-114766063D01*
X134348256Y-114652795D01*
X134159898Y-114574774D01*
X133959939Y-114535000D01*
X133756061Y-114535000D01*
X133556102Y-114574774D01*
X133367744Y-114652795D01*
X133198226Y-114766063D01*
X133054063Y-114910226D01*
X132940795Y-115079744D01*
X132862774Y-115268102D01*
X132823000Y-115468061D01*
X107365001Y-115468061D01*
X107365001Y-103110000D01*
X109051928Y-103110000D01*
X109051928Y-105510000D01*
X109064188Y-105634482D01*
X109100498Y-105754180D01*
X109159463Y-105864494D01*
X109238815Y-105961185D01*
X109335506Y-106040537D01*
X109445820Y-106099502D01*
X109565518Y-106135812D01*
X109690000Y-106148072D01*
X110107162Y-106148072D01*
X110020801Y-106183844D01*
X109720256Y-106384662D01*
X109464662Y-106640256D01*
X109263844Y-106940801D01*
X109125518Y-107274750D01*
X109055000Y-107629268D01*
X109055000Y-107990732D01*
X109125518Y-108345250D01*
X109263844Y-108679199D01*
X109464662Y-108979744D01*
X109720256Y-109235338D01*
X110020801Y-109436156D01*
X110319787Y-109560000D01*
X110020801Y-109683844D01*
X109720256Y-109884662D01*
X109464662Y-110140256D01*
X109263844Y-110440801D01*
X109125518Y-110774750D01*
X109055000Y-111129268D01*
X109055000Y-111490732D01*
X109125518Y-111845250D01*
X109263844Y-112179199D01*
X109464662Y-112479744D01*
X109720256Y-112735338D01*
X110020801Y-112936156D01*
X110354750Y-113074482D01*
X110709268Y-113145000D01*
X111070732Y-113145000D01*
X111425250Y-113074482D01*
X111759199Y-112936156D01*
X112059744Y-112735338D01*
X112315338Y-112479744D01*
X112516156Y-112179199D01*
X112654482Y-111845250D01*
X112665857Y-111788061D01*
X117045000Y-111788061D01*
X117045000Y-111991939D01*
X117084774Y-112191898D01*
X117162795Y-112380256D01*
X117276063Y-112549774D01*
X117420226Y-112693937D01*
X117589744Y-112807205D01*
X117778102Y-112885226D01*
X117978061Y-112925000D01*
X118181939Y-112925000D01*
X118381898Y-112885226D01*
X118570256Y-112807205D01*
X118739774Y-112693937D01*
X118883937Y-112549774D01*
X118997205Y-112380256D01*
X119075226Y-112191898D01*
X119115000Y-111991939D01*
X119115000Y-111788061D01*
X119075226Y-111588102D01*
X118997205Y-111399744D01*
X118883937Y-111230226D01*
X118739774Y-111086063D01*
X118570256Y-110972795D01*
X118381898Y-110894774D01*
X118181939Y-110855000D01*
X117978061Y-110855000D01*
X117778102Y-110894774D01*
X117589744Y-110972795D01*
X117420226Y-111086063D01*
X117276063Y-111230226D01*
X117162795Y-111399744D01*
X117084774Y-111588102D01*
X117045000Y-111788061D01*
X112665857Y-111788061D01*
X112725000Y-111490732D01*
X112725000Y-111129268D01*
X112654482Y-110774750D01*
X112516156Y-110440801D01*
X112315338Y-110140256D01*
X112059744Y-109884662D01*
X111759199Y-109683844D01*
X111460213Y-109560000D01*
X111759199Y-109436156D01*
X112059744Y-109235338D01*
X112315338Y-108979744D01*
X112516156Y-108679199D01*
X112654482Y-108345250D01*
X112725000Y-107990732D01*
X112725000Y-107629268D01*
X112656521Y-107285000D01*
X112711939Y-107285000D01*
X112911898Y-107245226D01*
X113100256Y-107167205D01*
X113269774Y-107053937D01*
X113413937Y-106909774D01*
X113527205Y-106740256D01*
X113605226Y-106551898D01*
X113645000Y-106351939D01*
X113645000Y-106324061D01*
X133077000Y-106324061D01*
X133077000Y-106527939D01*
X133116774Y-106727898D01*
X133194795Y-106916256D01*
X133308063Y-107085774D01*
X133452226Y-107229937D01*
X133621744Y-107343205D01*
X133810102Y-107421226D01*
X134010061Y-107461000D01*
X134213939Y-107461000D01*
X134413898Y-107421226D01*
X134602256Y-107343205D01*
X134771774Y-107229937D01*
X134915937Y-107085774D01*
X135029205Y-106916256D01*
X135107226Y-106727898D01*
X135137030Y-106578061D01*
X136633000Y-106578061D01*
X136633000Y-106781939D01*
X136672774Y-106981898D01*
X136750795Y-107170256D01*
X136864063Y-107339774D01*
X137008226Y-107483937D01*
X137177744Y-107597205D01*
X137366102Y-107675226D01*
X137566061Y-107715000D01*
X137769939Y-107715000D01*
X137969898Y-107675226D01*
X138158256Y-107597205D01*
X138327774Y-107483937D01*
X138416000Y-107395711D01*
X138416001Y-111006382D01*
X138411114Y-111056000D01*
X138430615Y-111253994D01*
X138488368Y-111444379D01*
X138582154Y-111619840D01*
X138612819Y-111657205D01*
X138708368Y-111773633D01*
X138746901Y-111805256D01*
X141864743Y-114923099D01*
X141896367Y-114961633D01*
X142050160Y-115087847D01*
X142184670Y-115159744D01*
X142225620Y-115181632D01*
X142416005Y-115239385D01*
X142614000Y-115258886D01*
X142663608Y-115254000D01*
X147725645Y-115254000D01*
X152034870Y-119563226D01*
X152106063Y-119669774D01*
X152116970Y-119680681D01*
X152115506Y-119681463D01*
X152018815Y-119760815D01*
X151939463Y-119857506D01*
X151880498Y-119967820D01*
X151844188Y-120087518D01*
X151831928Y-120212000D01*
X151831928Y-122612000D01*
X151844188Y-122736482D01*
X151880498Y-122856180D01*
X151939463Y-122966494D01*
X152018815Y-123063185D01*
X152115506Y-123142537D01*
X152225820Y-123201502D01*
X152345518Y-123237812D01*
X152470000Y-123250072D01*
X154870000Y-123250072D01*
X154994482Y-123237812D01*
X155114180Y-123201502D01*
X155224494Y-123142537D01*
X155321185Y-123063185D01*
X155400537Y-122966494D01*
X155459502Y-122856180D01*
X155495812Y-122736482D01*
X155508072Y-122612000D01*
X155508072Y-122194838D01*
X155543844Y-122281199D01*
X155744662Y-122581744D01*
X156000256Y-122837338D01*
X156300801Y-123038156D01*
X156634750Y-123176482D01*
X156989268Y-123247000D01*
X157350732Y-123247000D01*
X157705250Y-123176482D01*
X158039199Y-123038156D01*
X158339744Y-122837338D01*
X158595338Y-122581744D01*
X158796156Y-122281199D01*
X158934482Y-121947250D01*
X159005000Y-121592732D01*
X159005000Y-121231268D01*
X158934482Y-120876750D01*
X158796156Y-120542801D01*
X158659353Y-120338061D01*
X162605000Y-120338061D01*
X162605000Y-120541939D01*
X162644774Y-120741898D01*
X162722795Y-120930256D01*
X162836063Y-121099774D01*
X162980226Y-121243937D01*
X163149744Y-121357205D01*
X163338102Y-121435226D01*
X163538061Y-121475000D01*
X163741939Y-121475000D01*
X163941898Y-121435226D01*
X164130256Y-121357205D01*
X164299774Y-121243937D01*
X164443937Y-121099774D01*
X164557205Y-120930256D01*
X164635226Y-120741898D01*
X164675000Y-120541939D01*
X164675000Y-120338061D01*
X164635226Y-120138102D01*
X164557205Y-119949744D01*
X164443937Y-119780226D01*
X164299774Y-119636063D01*
X164130256Y-119522795D01*
X163941898Y-119444774D01*
X163741939Y-119405000D01*
X163538061Y-119405000D01*
X163338102Y-119444774D01*
X163149744Y-119522795D01*
X162980226Y-119636063D01*
X162836063Y-119780226D01*
X162722795Y-119949744D01*
X162644774Y-120138102D01*
X162605000Y-120338061D01*
X158659353Y-120338061D01*
X158595338Y-120242256D01*
X158339744Y-119986662D01*
X158039199Y-119785844D01*
X157819447Y-119694820D01*
X157910256Y-119657205D01*
X158079774Y-119543937D01*
X158223937Y-119399774D01*
X158337205Y-119230256D01*
X158415226Y-119041898D01*
X158455000Y-118841939D01*
X158455000Y-118638061D01*
X158430000Y-118512377D01*
X158430000Y-115548061D01*
X158515000Y-115548061D01*
X158515000Y-115751939D01*
X158554774Y-115951898D01*
X158632795Y-116140256D01*
X158746063Y-116309774D01*
X158890226Y-116453937D01*
X159059744Y-116567205D01*
X159248102Y-116645226D01*
X159448061Y-116685000D01*
X159651939Y-116685000D01*
X159851898Y-116645226D01*
X160040256Y-116567205D01*
X160209774Y-116453937D01*
X160353937Y-116309774D01*
X160467205Y-116140256D01*
X160545226Y-115951898D01*
X160585000Y-115751939D01*
X160585000Y-115548061D01*
X160545226Y-115348102D01*
X160467205Y-115159744D01*
X160353937Y-114990226D01*
X160209774Y-114846063D01*
X160167866Y-114818061D01*
X165605000Y-114818061D01*
X165605000Y-115021939D01*
X165644774Y-115221898D01*
X165722795Y-115410256D01*
X165836063Y-115579774D01*
X165980226Y-115723937D01*
X166118048Y-115816026D01*
X166089000Y-115962061D01*
X166089000Y-116165939D01*
X166128774Y-116365898D01*
X166206795Y-116554256D01*
X166320063Y-116723774D01*
X166464226Y-116867937D01*
X166633744Y-116981205D01*
X166822102Y-117059226D01*
X167022061Y-117099000D01*
X167225939Y-117099000D01*
X167425898Y-117059226D01*
X167452852Y-117048061D01*
X174265000Y-117048061D01*
X174265000Y-117251939D01*
X174304774Y-117451898D01*
X174382795Y-117640256D01*
X174496063Y-117809774D01*
X174640226Y-117953937D01*
X174809744Y-118067205D01*
X174998102Y-118145226D01*
X175198061Y-118185000D01*
X175401939Y-118185000D01*
X175601898Y-118145226D01*
X175790256Y-118067205D01*
X175959774Y-117953937D01*
X176103937Y-117809774D01*
X176217205Y-117640256D01*
X176295226Y-117451898D01*
X176335000Y-117251939D01*
X176335000Y-117048061D01*
X176295226Y-116848102D01*
X176217205Y-116659744D01*
X176103937Y-116490226D01*
X175959774Y-116346063D01*
X175790256Y-116232795D01*
X175601898Y-116154774D01*
X175401939Y-116115000D01*
X175198061Y-116115000D01*
X174998102Y-116154774D01*
X174809744Y-116232795D01*
X174640226Y-116346063D01*
X174496063Y-116490226D01*
X174382795Y-116659744D01*
X174304774Y-116848102D01*
X174265000Y-117048061D01*
X167452852Y-117048061D01*
X167614256Y-116981205D01*
X167783774Y-116867937D01*
X167927937Y-116723774D01*
X168041205Y-116554256D01*
X168119226Y-116365898D01*
X168159000Y-116165939D01*
X168159000Y-115962061D01*
X168119226Y-115762102D01*
X168041205Y-115573744D01*
X167927937Y-115404226D01*
X167903711Y-115380000D01*
X185711928Y-115380000D01*
X185711928Y-117780000D01*
X185724188Y-117904482D01*
X185760498Y-118024180D01*
X185819463Y-118134494D01*
X185898815Y-118231185D01*
X185995506Y-118310537D01*
X186105820Y-118369502D01*
X186225518Y-118405812D01*
X186350000Y-118418072D01*
X188750000Y-118418072D01*
X188874482Y-118405812D01*
X188994180Y-118369502D01*
X189104494Y-118310537D01*
X189201185Y-118231185D01*
X189280537Y-118134494D01*
X189339502Y-118024180D01*
X189375812Y-117904482D01*
X189388072Y-117780000D01*
X189388072Y-115380000D01*
X189375812Y-115255518D01*
X189339502Y-115135820D01*
X189280537Y-115025506D01*
X189201185Y-114928815D01*
X189104494Y-114849463D01*
X188994180Y-114790498D01*
X188874482Y-114754188D01*
X188750000Y-114741928D01*
X188332838Y-114741928D01*
X188419199Y-114706156D01*
X188719744Y-114505338D01*
X188975338Y-114249744D01*
X189176156Y-113949199D01*
X189314482Y-113615250D01*
X189385000Y-113260732D01*
X189385000Y-112899268D01*
X189314482Y-112544750D01*
X189176156Y-112210801D01*
X188975338Y-111910256D01*
X188719744Y-111654662D01*
X188419199Y-111453844D01*
X188120213Y-111330000D01*
X188419199Y-111206156D01*
X188719744Y-111005338D01*
X188975338Y-110749744D01*
X189176156Y-110449199D01*
X189314482Y-110115250D01*
X189385000Y-109760732D01*
X189385000Y-109399268D01*
X189314482Y-109044750D01*
X189176156Y-108710801D01*
X188975338Y-108410256D01*
X188719744Y-108154662D01*
X188419199Y-107953844D01*
X188085250Y-107815518D01*
X187730732Y-107745000D01*
X187369268Y-107745000D01*
X187014750Y-107815518D01*
X186680801Y-107953844D01*
X186380256Y-108154662D01*
X186124662Y-108410256D01*
X185923844Y-108710801D01*
X185785518Y-109044750D01*
X185715000Y-109399268D01*
X185715000Y-109760732D01*
X185785518Y-110115250D01*
X185923844Y-110449199D01*
X186015615Y-110586544D01*
X186055026Y-110660276D01*
X186108063Y-110724902D01*
X186124662Y-110749744D01*
X186145789Y-110770871D01*
X186149999Y-110776001D01*
X186155129Y-110780211D01*
X186380256Y-111005338D01*
X186680801Y-111206156D01*
X186979787Y-111330000D01*
X186680801Y-111453844D01*
X186380256Y-111654662D01*
X186124662Y-111910256D01*
X185923844Y-112210801D01*
X185785518Y-112544750D01*
X185715000Y-112899268D01*
X185715000Y-113260732D01*
X185785518Y-113615250D01*
X185923844Y-113949199D01*
X186124662Y-114249744D01*
X186380256Y-114505338D01*
X186680801Y-114706156D01*
X186767162Y-114741928D01*
X186350000Y-114741928D01*
X186225518Y-114754188D01*
X186105820Y-114790498D01*
X185995506Y-114849463D01*
X185898815Y-114928815D01*
X185819463Y-115025506D01*
X185760498Y-115135820D01*
X185724188Y-115255518D01*
X185711928Y-115380000D01*
X167903711Y-115380000D01*
X167783774Y-115260063D01*
X167645952Y-115167974D01*
X167675000Y-115021939D01*
X167675000Y-114818061D01*
X167635226Y-114618102D01*
X167557205Y-114429744D01*
X167443937Y-114260226D01*
X167299774Y-114116063D01*
X167130256Y-114002795D01*
X166941898Y-113924774D01*
X166741939Y-113885000D01*
X166538061Y-113885000D01*
X166338102Y-113924774D01*
X166149744Y-114002795D01*
X165980226Y-114116063D01*
X165836063Y-114260226D01*
X165722795Y-114429744D01*
X165644774Y-114618102D01*
X165605000Y-114818061D01*
X160167866Y-114818061D01*
X160040256Y-114732795D01*
X159851898Y-114654774D01*
X159651939Y-114615000D01*
X159448061Y-114615000D01*
X159248102Y-114654774D01*
X159059744Y-114732795D01*
X158890226Y-114846063D01*
X158746063Y-114990226D01*
X158632795Y-115159744D01*
X158554774Y-115348102D01*
X158515000Y-115548061D01*
X158430000Y-115548061D01*
X158430000Y-109808061D01*
X165725000Y-109808061D01*
X165725000Y-110011939D01*
X165764774Y-110211898D01*
X165842795Y-110400256D01*
X165934605Y-110537659D01*
X165874774Y-110682102D01*
X165835000Y-110882061D01*
X165835000Y-111085939D01*
X165874774Y-111285898D01*
X165952795Y-111474256D01*
X166066063Y-111643774D01*
X166210226Y-111787937D01*
X166379744Y-111901205D01*
X166568102Y-111979226D01*
X166768061Y-112019000D01*
X166971939Y-112019000D01*
X167171898Y-111979226D01*
X167343704Y-111908061D01*
X174155000Y-111908061D01*
X174155000Y-112111939D01*
X174194774Y-112311898D01*
X174272795Y-112500256D01*
X174386063Y-112669774D01*
X174530226Y-112813937D01*
X174699744Y-112927205D01*
X174888102Y-113005226D01*
X175088061Y-113045000D01*
X175291939Y-113045000D01*
X175491898Y-113005226D01*
X175680256Y-112927205D01*
X175849774Y-112813937D01*
X175993937Y-112669774D01*
X176107205Y-112500256D01*
X176185226Y-112311898D01*
X176225000Y-112111939D01*
X176225000Y-111908061D01*
X176185226Y-111708102D01*
X176107205Y-111519744D01*
X175993937Y-111350226D01*
X175849774Y-111206063D01*
X175680256Y-111092795D01*
X175491898Y-111014774D01*
X175291939Y-110975000D01*
X175088061Y-110975000D01*
X174888102Y-111014774D01*
X174699744Y-111092795D01*
X174530226Y-111206063D01*
X174386063Y-111350226D01*
X174272795Y-111519744D01*
X174194774Y-111708102D01*
X174155000Y-111908061D01*
X167343704Y-111908061D01*
X167360256Y-111901205D01*
X167529774Y-111787937D01*
X167673937Y-111643774D01*
X167787205Y-111474256D01*
X167865226Y-111285898D01*
X167905000Y-111085939D01*
X167905000Y-110882061D01*
X167865226Y-110682102D01*
X167787205Y-110493744D01*
X167695395Y-110356341D01*
X167755226Y-110211898D01*
X167795000Y-110011939D01*
X167795000Y-109808061D01*
X167755226Y-109608102D01*
X167677205Y-109419744D01*
X167563937Y-109250226D01*
X167419774Y-109106063D01*
X167250256Y-108992795D01*
X167061898Y-108914774D01*
X166861939Y-108875000D01*
X166658061Y-108875000D01*
X166458102Y-108914774D01*
X166269744Y-108992795D01*
X166100226Y-109106063D01*
X165956063Y-109250226D01*
X165842795Y-109419744D01*
X165764774Y-109608102D01*
X165725000Y-109808061D01*
X158430000Y-109808061D01*
X158430000Y-109179608D01*
X158434886Y-109130000D01*
X158415385Y-108932005D01*
X158357632Y-108741620D01*
X158352904Y-108732774D01*
X158263847Y-108566160D01*
X158137633Y-108412367D01*
X158099100Y-108380744D01*
X156686417Y-106968061D01*
X174345000Y-106968061D01*
X174345000Y-107171939D01*
X174384774Y-107371898D01*
X174462795Y-107560256D01*
X174576063Y-107729774D01*
X174720226Y-107873937D01*
X174889744Y-107987205D01*
X175078102Y-108065226D01*
X175278061Y-108105000D01*
X175481939Y-108105000D01*
X175681898Y-108065226D01*
X175870256Y-107987205D01*
X176039774Y-107873937D01*
X176183937Y-107729774D01*
X176297205Y-107560256D01*
X176375226Y-107371898D01*
X176415000Y-107171939D01*
X176415000Y-106968061D01*
X176375226Y-106768102D01*
X176297205Y-106579744D01*
X176183937Y-106410226D01*
X176039774Y-106266063D01*
X175870256Y-106152795D01*
X175681898Y-106074774D01*
X175481939Y-106035000D01*
X175278061Y-106035000D01*
X175078102Y-106074774D01*
X174889744Y-106152795D01*
X174720226Y-106266063D01*
X174576063Y-106410226D01*
X174462795Y-106579744D01*
X174384774Y-106768102D01*
X174345000Y-106968061D01*
X156686417Y-106968061D01*
X155280417Y-105562061D01*
X159239000Y-105562061D01*
X159239000Y-105765939D01*
X159278774Y-105965898D01*
X159356795Y-106154256D01*
X159470063Y-106323774D01*
X159614226Y-106467937D01*
X159783744Y-106581205D01*
X159972102Y-106659226D01*
X160172061Y-106699000D01*
X160375939Y-106699000D01*
X160575898Y-106659226D01*
X160764256Y-106581205D01*
X160933774Y-106467937D01*
X161077937Y-106323774D01*
X161191205Y-106154256D01*
X161269226Y-105965898D01*
X161309000Y-105765939D01*
X161309000Y-105562061D01*
X161269226Y-105362102D01*
X161191205Y-105173744D01*
X161077937Y-105004226D01*
X160933774Y-104860063D01*
X160764256Y-104746795D01*
X160694887Y-104718061D01*
X163545000Y-104718061D01*
X163545000Y-104921939D01*
X163584774Y-105121898D01*
X163662795Y-105310256D01*
X163776063Y-105479774D01*
X163920226Y-105623937D01*
X164089744Y-105737205D01*
X164278102Y-105815226D01*
X164478061Y-105855000D01*
X164681939Y-105855000D01*
X164881898Y-105815226D01*
X164913680Y-105802061D01*
X165835000Y-105802061D01*
X165835000Y-106005939D01*
X165874774Y-106205898D01*
X165952795Y-106394256D01*
X166066063Y-106563774D01*
X166210226Y-106707937D01*
X166379744Y-106821205D01*
X166568102Y-106899226D01*
X166768061Y-106939000D01*
X166971939Y-106939000D01*
X167171898Y-106899226D01*
X167360256Y-106821205D01*
X167529774Y-106707937D01*
X167673937Y-106563774D01*
X167787205Y-106394256D01*
X167865226Y-106205898D01*
X167905000Y-106005939D01*
X167905000Y-105802061D01*
X167865226Y-105602102D01*
X167787205Y-105413744D01*
X167673937Y-105244226D01*
X167529774Y-105100063D01*
X167360256Y-104986795D01*
X167171898Y-104908774D01*
X166971939Y-104869000D01*
X166768061Y-104869000D01*
X166568102Y-104908774D01*
X166379744Y-104986795D01*
X166210226Y-105100063D01*
X166066063Y-105244226D01*
X165952795Y-105413744D01*
X165874774Y-105602102D01*
X165835000Y-105802061D01*
X164913680Y-105802061D01*
X165070256Y-105737205D01*
X165239774Y-105623937D01*
X165383937Y-105479774D01*
X165497205Y-105310256D01*
X165575226Y-105121898D01*
X165615000Y-104921939D01*
X165615000Y-104718061D01*
X165575226Y-104518102D01*
X165497205Y-104329744D01*
X165383937Y-104160226D01*
X165239774Y-104016063D01*
X165070256Y-103902795D01*
X164881898Y-103824774D01*
X164681939Y-103785000D01*
X164478061Y-103785000D01*
X164278102Y-103824774D01*
X164089744Y-103902795D01*
X163920226Y-104016063D01*
X163776063Y-104160226D01*
X163662795Y-104329744D01*
X163584774Y-104518102D01*
X163545000Y-104718061D01*
X160694887Y-104718061D01*
X160575898Y-104668774D01*
X160375939Y-104629000D01*
X160172061Y-104629000D01*
X159972102Y-104668774D01*
X159783744Y-104746795D01*
X159614226Y-104860063D01*
X159470063Y-105004226D01*
X159356795Y-105173744D01*
X159278774Y-105362102D01*
X159239000Y-105562061D01*
X155280417Y-105562061D01*
X153159261Y-103440906D01*
X153127633Y-103402367D01*
X152973840Y-103276153D01*
X152798380Y-103182368D01*
X152607994Y-103124615D01*
X152459608Y-103110000D01*
X152410000Y-103105114D01*
X152360392Y-103110000D01*
X147528356Y-103110000D01*
X147558356Y-103080000D01*
X185721928Y-103080000D01*
X185721928Y-105480000D01*
X185734188Y-105604482D01*
X185770498Y-105724180D01*
X185829463Y-105834494D01*
X185908815Y-105931185D01*
X186005506Y-106010537D01*
X186115820Y-106069502D01*
X186235518Y-106105812D01*
X186360000Y-106118072D01*
X188760000Y-106118072D01*
X188884482Y-106105812D01*
X189004180Y-106069502D01*
X189114494Y-106010537D01*
X189211185Y-105931185D01*
X189290537Y-105834494D01*
X189349502Y-105724180D01*
X189385812Y-105604482D01*
X189398072Y-105480000D01*
X189398072Y-103080000D01*
X189385812Y-102955518D01*
X189349502Y-102835820D01*
X189290537Y-102725506D01*
X189211185Y-102628815D01*
X189114494Y-102549463D01*
X189004180Y-102490498D01*
X188884482Y-102454188D01*
X188760000Y-102441928D01*
X188342838Y-102441928D01*
X188429199Y-102406156D01*
X188729744Y-102205338D01*
X188985338Y-101949744D01*
X189186156Y-101649199D01*
X189324482Y-101315250D01*
X189395000Y-100960732D01*
X189395000Y-100599268D01*
X189324482Y-100244750D01*
X189186156Y-99910801D01*
X188985338Y-99610256D01*
X188729744Y-99354662D01*
X188429199Y-99153844D01*
X188130213Y-99030000D01*
X188429199Y-98906156D01*
X188729744Y-98705338D01*
X188985338Y-98449744D01*
X189186156Y-98149199D01*
X189324482Y-97815250D01*
X189395000Y-97460732D01*
X189395000Y-97099268D01*
X189324482Y-96744750D01*
X189186156Y-96410801D01*
X188985338Y-96110256D01*
X188729744Y-95854662D01*
X188429199Y-95653844D01*
X188095250Y-95515518D01*
X187740732Y-95445000D01*
X187379268Y-95445000D01*
X187024750Y-95515518D01*
X186690801Y-95653844D01*
X186390256Y-95854662D01*
X186134662Y-96110256D01*
X185933844Y-96410801D01*
X185795518Y-96744750D01*
X185725000Y-97099268D01*
X185725000Y-97460732D01*
X185795518Y-97815250D01*
X185933844Y-98149199D01*
X186134662Y-98449744D01*
X186390256Y-98705338D01*
X186690801Y-98906156D01*
X186989787Y-99030000D01*
X186690801Y-99153844D01*
X186390256Y-99354662D01*
X186134662Y-99610256D01*
X185933844Y-99910801D01*
X185795518Y-100244750D01*
X185725000Y-100599268D01*
X185725000Y-100960732D01*
X185795518Y-101315250D01*
X185933844Y-101649199D01*
X186134662Y-101949744D01*
X186390256Y-102205338D01*
X186690801Y-102406156D01*
X186777162Y-102441928D01*
X186360000Y-102441928D01*
X186235518Y-102454188D01*
X186115820Y-102490498D01*
X186005506Y-102549463D01*
X185908815Y-102628815D01*
X185829463Y-102725506D01*
X185770498Y-102835820D01*
X185734188Y-102955518D01*
X185721928Y-103080000D01*
X147558356Y-103080000D01*
X147799100Y-102839256D01*
X147837633Y-102807633D01*
X147963847Y-102653840D01*
X148057632Y-102478380D01*
X148079541Y-102406156D01*
X148115385Y-102287995D01*
X148134886Y-102090000D01*
X148130000Y-102040392D01*
X148130000Y-101018061D01*
X163915000Y-101018061D01*
X163915000Y-101221939D01*
X163954774Y-101421898D01*
X164032795Y-101610256D01*
X164146063Y-101779774D01*
X164290226Y-101923937D01*
X164459744Y-102037205D01*
X164648102Y-102115226D01*
X164848061Y-102155000D01*
X165051939Y-102155000D01*
X165251898Y-102115226D01*
X165440256Y-102037205D01*
X165609774Y-101923937D01*
X165727939Y-101805772D01*
X165879744Y-101907205D01*
X166068102Y-101985226D01*
X166268061Y-102025000D01*
X166471939Y-102025000D01*
X166671898Y-101985226D01*
X166860256Y-101907205D01*
X167029774Y-101793937D01*
X167173937Y-101649774D01*
X167208490Y-101598061D01*
X174285000Y-101598061D01*
X174285000Y-101801939D01*
X174324774Y-102001898D01*
X174402795Y-102190256D01*
X174516063Y-102359774D01*
X174660226Y-102503937D01*
X174829744Y-102617205D01*
X175018102Y-102695226D01*
X175218061Y-102735000D01*
X175421939Y-102735000D01*
X175621898Y-102695226D01*
X175810256Y-102617205D01*
X175979774Y-102503937D01*
X176123937Y-102359774D01*
X176237205Y-102190256D01*
X176315226Y-102001898D01*
X176355000Y-101801939D01*
X176355000Y-101598061D01*
X176315226Y-101398102D01*
X176237205Y-101209744D01*
X176123937Y-101040226D01*
X175979774Y-100896063D01*
X175810256Y-100782795D01*
X175621898Y-100704774D01*
X175421939Y-100665000D01*
X175218061Y-100665000D01*
X175018102Y-100704774D01*
X174829744Y-100782795D01*
X174660226Y-100896063D01*
X174516063Y-101040226D01*
X174402795Y-101209744D01*
X174324774Y-101398102D01*
X174285000Y-101598061D01*
X167208490Y-101598061D01*
X167287205Y-101480256D01*
X167365226Y-101291898D01*
X167405000Y-101091939D01*
X167405000Y-100888061D01*
X167365226Y-100688102D01*
X167287205Y-100499744D01*
X167173937Y-100330226D01*
X167029774Y-100186063D01*
X166860256Y-100072795D01*
X166671898Y-99994774D01*
X166471939Y-99955000D01*
X166268061Y-99955000D01*
X166068102Y-99994774D01*
X165879744Y-100072795D01*
X165710226Y-100186063D01*
X165592061Y-100304228D01*
X165440256Y-100202795D01*
X165251898Y-100124774D01*
X165051939Y-100085000D01*
X164848061Y-100085000D01*
X164648102Y-100124774D01*
X164459744Y-100202795D01*
X164290226Y-100316063D01*
X164146063Y-100460226D01*
X164032795Y-100629744D01*
X163954774Y-100818102D01*
X163915000Y-101018061D01*
X148130000Y-101018061D01*
X148130000Y-98428061D01*
X148815000Y-98428061D01*
X148815000Y-98631939D01*
X148854774Y-98831898D01*
X148932795Y-99020256D01*
X149046063Y-99189774D01*
X149190226Y-99333937D01*
X149359744Y-99447205D01*
X149548102Y-99525226D01*
X149748061Y-99565000D01*
X149951939Y-99565000D01*
X150151898Y-99525226D01*
X150340256Y-99447205D01*
X150509774Y-99333937D01*
X150653937Y-99189774D01*
X150767205Y-99020256D01*
X150845226Y-98831898D01*
X150885000Y-98631939D01*
X150885000Y-98428061D01*
X150845226Y-98228102D01*
X150767205Y-98039744D01*
X150653937Y-97870226D01*
X150509774Y-97726063D01*
X150340256Y-97612795D01*
X150151898Y-97534774D01*
X149951939Y-97495000D01*
X149748061Y-97495000D01*
X149548102Y-97534774D01*
X149359744Y-97612795D01*
X149190226Y-97726063D01*
X149046063Y-97870226D01*
X148932795Y-98039744D01*
X148854774Y-98228102D01*
X148815000Y-98428061D01*
X148130000Y-98428061D01*
X148130000Y-95850061D01*
X165789000Y-95850061D01*
X165789000Y-96053939D01*
X165828774Y-96253898D01*
X165906795Y-96442256D01*
X166020063Y-96611774D01*
X166164226Y-96755937D01*
X166333744Y-96869205D01*
X166522102Y-96947226D01*
X166722061Y-96987000D01*
X166925939Y-96987000D01*
X167125898Y-96947226D01*
X167314256Y-96869205D01*
X167450663Y-96778061D01*
X174365000Y-96778061D01*
X174365000Y-96981939D01*
X174404774Y-97181898D01*
X174482795Y-97370256D01*
X174596063Y-97539774D01*
X174740226Y-97683937D01*
X174909744Y-97797205D01*
X175098102Y-97875226D01*
X175298061Y-97915000D01*
X175501939Y-97915000D01*
X175701898Y-97875226D01*
X175890256Y-97797205D01*
X176059774Y-97683937D01*
X176203937Y-97539774D01*
X176317205Y-97370256D01*
X176395226Y-97181898D01*
X176435000Y-96981939D01*
X176435000Y-96778061D01*
X176395226Y-96578102D01*
X176317205Y-96389744D01*
X176203937Y-96220226D01*
X176059774Y-96076063D01*
X175890256Y-95962795D01*
X175701898Y-95884774D01*
X175501939Y-95845000D01*
X175298061Y-95845000D01*
X175098102Y-95884774D01*
X174909744Y-95962795D01*
X174740226Y-96076063D01*
X174596063Y-96220226D01*
X174482795Y-96389744D01*
X174404774Y-96578102D01*
X174365000Y-96778061D01*
X167450663Y-96778061D01*
X167483774Y-96755937D01*
X167627937Y-96611774D01*
X167741205Y-96442256D01*
X167819226Y-96253898D01*
X167859000Y-96053939D01*
X167859000Y-95850061D01*
X167819226Y-95650102D01*
X167741205Y-95461744D01*
X167713640Y-95420490D01*
X167747205Y-95370256D01*
X167825226Y-95181898D01*
X167865000Y-94981939D01*
X167865000Y-94778061D01*
X167825226Y-94578102D01*
X167747205Y-94389744D01*
X167633937Y-94220226D01*
X167489774Y-94076063D01*
X167320256Y-93962795D01*
X167131898Y-93884774D01*
X166931939Y-93845000D01*
X166728061Y-93845000D01*
X166528102Y-93884774D01*
X166339744Y-93962795D01*
X166170226Y-94076063D01*
X166026063Y-94220226D01*
X165912795Y-94389744D01*
X165834774Y-94578102D01*
X165795000Y-94778061D01*
X165795000Y-94981939D01*
X165834774Y-95181898D01*
X165912795Y-95370256D01*
X165940360Y-95411510D01*
X165906795Y-95461744D01*
X165828774Y-95650102D01*
X165789000Y-95850061D01*
X148130000Y-95850061D01*
X148130000Y-94058061D01*
X153005000Y-94058061D01*
X153005000Y-94261939D01*
X153044774Y-94461898D01*
X153122795Y-94650256D01*
X153236063Y-94819774D01*
X153380226Y-94963937D01*
X153549744Y-95077205D01*
X153738102Y-95155226D01*
X153938061Y-95195000D01*
X154141939Y-95195000D01*
X154341898Y-95155226D01*
X154530256Y-95077205D01*
X154699774Y-94963937D01*
X154843937Y-94819774D01*
X154957205Y-94650256D01*
X155035226Y-94461898D01*
X155075000Y-94261939D01*
X155075000Y-94058061D01*
X155035226Y-93858102D01*
X154957205Y-93669744D01*
X154843937Y-93500226D01*
X154699774Y-93356063D01*
X154530256Y-93242795D01*
X154341898Y-93164774D01*
X154141939Y-93125000D01*
X153938061Y-93125000D01*
X153738102Y-93164774D01*
X153549744Y-93242795D01*
X153380226Y-93356063D01*
X153236063Y-93500226D01*
X153122795Y-93669744D01*
X153044774Y-93858102D01*
X153005000Y-94058061D01*
X148130000Y-94058061D01*
X148130000Y-93837623D01*
X148155000Y-93711939D01*
X148155000Y-93508061D01*
X148115226Y-93308102D01*
X148037205Y-93119744D01*
X147923937Y-92950226D01*
X147779774Y-92806063D01*
X147610256Y-92692795D01*
X147421898Y-92614774D01*
X147221939Y-92575000D01*
X147018061Y-92575000D01*
X146818102Y-92614774D01*
X146629744Y-92692795D01*
X146460226Y-92806063D01*
X146316063Y-92950226D01*
X146202795Y-93119744D01*
X146124774Y-93308102D01*
X146085000Y-93508061D01*
X146085000Y-93711939D01*
X146110000Y-93837624D01*
X146110001Y-101671643D01*
X144671645Y-103110000D01*
X144409608Y-103110000D01*
X144360000Y-103105114D01*
X144162005Y-103124615D01*
X143971620Y-103182368D01*
X143796160Y-103276153D01*
X143642367Y-103402367D01*
X143610744Y-103440900D01*
X140436000Y-106615645D01*
X140436000Y-99234355D01*
X140730355Y-98940000D01*
X143782377Y-98940000D01*
X143908061Y-98965000D01*
X144111939Y-98965000D01*
X144311898Y-98925226D01*
X144500256Y-98847205D01*
X144669774Y-98733937D01*
X144813937Y-98589774D01*
X144927205Y-98420256D01*
X145005226Y-98231898D01*
X145045000Y-98031939D01*
X145045000Y-97828061D01*
X145005226Y-97628102D01*
X144927205Y-97439744D01*
X144813937Y-97270226D01*
X144669774Y-97126063D01*
X144500256Y-97012795D01*
X144311898Y-96934774D01*
X144111939Y-96895000D01*
X143908061Y-96895000D01*
X143782377Y-96920000D01*
X140361604Y-96920000D01*
X140311999Y-96915114D01*
X140262394Y-96920000D01*
X140262392Y-96920000D01*
X140114006Y-96934615D01*
X139923620Y-96992368D01*
X139748160Y-97086153D01*
X139594367Y-97212367D01*
X139562739Y-97250906D01*
X138746906Y-98066739D01*
X138708367Y-98098367D01*
X138582153Y-98252160D01*
X138492305Y-98420256D01*
X138488368Y-98427621D01*
X138430615Y-98618006D01*
X138411114Y-98816000D01*
X138416000Y-98865608D01*
X138416001Y-105964290D01*
X138327774Y-105876063D01*
X138158256Y-105762795D01*
X137969898Y-105684774D01*
X137769939Y-105645000D01*
X137566061Y-105645000D01*
X137366102Y-105684774D01*
X137177744Y-105762795D01*
X137008226Y-105876063D01*
X136864063Y-106020226D01*
X136750795Y-106189744D01*
X136672774Y-106378102D01*
X136633000Y-106578061D01*
X135137030Y-106578061D01*
X135147000Y-106527939D01*
X135147000Y-106324061D01*
X135107226Y-106124102D01*
X135029205Y-105935744D01*
X134915937Y-105766226D01*
X134771774Y-105622063D01*
X134602256Y-105508795D01*
X134413898Y-105430774D01*
X134213939Y-105391000D01*
X134010061Y-105391000D01*
X133810102Y-105430774D01*
X133621744Y-105508795D01*
X133452226Y-105622063D01*
X133308063Y-105766226D01*
X133194795Y-105935744D01*
X133116774Y-106124102D01*
X133077000Y-106324061D01*
X113645000Y-106324061D01*
X113645000Y-106148061D01*
X113605226Y-105948102D01*
X113527205Y-105759744D01*
X113413937Y-105590226D01*
X113269774Y-105446063D01*
X113100256Y-105332795D01*
X112911898Y-105254774D01*
X112728072Y-105218209D01*
X112728072Y-104378061D01*
X127335000Y-104378061D01*
X127335000Y-104581939D01*
X127374774Y-104781898D01*
X127452795Y-104970256D01*
X127566063Y-105139774D01*
X127710226Y-105283937D01*
X127879744Y-105397205D01*
X128068102Y-105475226D01*
X128268061Y-105515000D01*
X128471939Y-105515000D01*
X128671898Y-105475226D01*
X128860256Y-105397205D01*
X129029774Y-105283937D01*
X129173937Y-105139774D01*
X129287205Y-104970256D01*
X129365226Y-104781898D01*
X129405000Y-104581939D01*
X129405000Y-104378061D01*
X129365226Y-104178102D01*
X129287205Y-103989744D01*
X129173937Y-103820226D01*
X129029774Y-103676063D01*
X128860256Y-103562795D01*
X128671898Y-103484774D01*
X128471939Y-103445000D01*
X128268061Y-103445000D01*
X128068102Y-103484774D01*
X127879744Y-103562795D01*
X127710226Y-103676063D01*
X127566063Y-103820226D01*
X127452795Y-103989744D01*
X127374774Y-104178102D01*
X127335000Y-104378061D01*
X112728072Y-104378061D01*
X112728072Y-103218061D01*
X115345000Y-103218061D01*
X115345000Y-103421939D01*
X115384774Y-103621898D01*
X115462795Y-103810256D01*
X115576063Y-103979774D01*
X115720226Y-104123937D01*
X115889744Y-104237205D01*
X116078102Y-104315226D01*
X116278061Y-104355000D01*
X116481939Y-104355000D01*
X116681898Y-104315226D01*
X116870256Y-104237205D01*
X117039774Y-104123937D01*
X117183937Y-103979774D01*
X117297205Y-103810256D01*
X117358760Y-103661650D01*
X117488102Y-103715226D01*
X117688061Y-103755000D01*
X117891939Y-103755000D01*
X118091898Y-103715226D01*
X118280256Y-103637205D01*
X118449774Y-103523937D01*
X118593937Y-103379774D01*
X118707205Y-103210256D01*
X118785226Y-103021898D01*
X118825000Y-102821939D01*
X118825000Y-102618061D01*
X118785226Y-102418102D01*
X118707205Y-102229744D01*
X118593937Y-102060226D01*
X118449774Y-101916063D01*
X118280256Y-101802795D01*
X118091898Y-101724774D01*
X117891939Y-101685000D01*
X117688061Y-101685000D01*
X117488102Y-101724774D01*
X117299744Y-101802795D01*
X117130226Y-101916063D01*
X116986063Y-102060226D01*
X116872795Y-102229744D01*
X116811240Y-102378350D01*
X116681898Y-102324774D01*
X116481939Y-102285000D01*
X116278061Y-102285000D01*
X116078102Y-102324774D01*
X115889744Y-102402795D01*
X115720226Y-102516063D01*
X115576063Y-102660226D01*
X115462795Y-102829744D01*
X115384774Y-103018102D01*
X115345000Y-103218061D01*
X112728072Y-103218061D01*
X112728072Y-103110000D01*
X112715812Y-102985518D01*
X112679502Y-102865820D01*
X112620537Y-102755506D01*
X112541185Y-102658815D01*
X112444494Y-102579463D01*
X112334180Y-102520498D01*
X112214482Y-102484188D01*
X112090000Y-102471928D01*
X109690000Y-102471928D01*
X109565518Y-102484188D01*
X109445820Y-102520498D01*
X109335506Y-102579463D01*
X109238815Y-102658815D01*
X109159463Y-102755506D01*
X109100498Y-102865820D01*
X109064188Y-102985518D01*
X109051928Y-103110000D01*
X107365001Y-103110000D01*
X107365001Y-90810000D01*
X109061928Y-90810000D01*
X109061928Y-93210000D01*
X109074188Y-93334482D01*
X109110498Y-93454180D01*
X109169463Y-93564494D01*
X109248815Y-93661185D01*
X109345506Y-93740537D01*
X109455820Y-93799502D01*
X109575518Y-93835812D01*
X109700000Y-93848072D01*
X110117162Y-93848072D01*
X110030801Y-93883844D01*
X109730256Y-94084662D01*
X109474662Y-94340256D01*
X109273844Y-94640801D01*
X109135518Y-94974750D01*
X109065000Y-95329268D01*
X109065000Y-95690732D01*
X109135518Y-96045250D01*
X109273844Y-96379199D01*
X109474662Y-96679744D01*
X109730256Y-96935338D01*
X110030801Y-97136156D01*
X110329787Y-97260000D01*
X110030801Y-97383844D01*
X109730256Y-97584662D01*
X109474662Y-97840256D01*
X109273844Y-98140801D01*
X109135518Y-98474750D01*
X109065000Y-98829268D01*
X109065000Y-99190732D01*
X109135518Y-99545250D01*
X109273844Y-99879199D01*
X109474662Y-100179744D01*
X109730256Y-100435338D01*
X110030801Y-100636156D01*
X110364750Y-100774482D01*
X110719268Y-100845000D01*
X111080732Y-100845000D01*
X111435250Y-100774482D01*
X111769199Y-100636156D01*
X112069744Y-100435338D01*
X112325338Y-100179744D01*
X112526156Y-99879199D01*
X112664482Y-99545250D01*
X112735000Y-99190732D01*
X112735000Y-98829268D01*
X112664482Y-98474750D01*
X112526156Y-98140801D01*
X112325338Y-97840256D01*
X112069744Y-97584662D01*
X111769199Y-97383844D01*
X111470213Y-97260000D01*
X111663202Y-97180061D01*
X133077000Y-97180061D01*
X133077000Y-97383939D01*
X133116774Y-97583898D01*
X133194795Y-97772256D01*
X133308063Y-97941774D01*
X133452226Y-98085937D01*
X133621744Y-98199205D01*
X133810102Y-98277226D01*
X134010061Y-98317000D01*
X134213939Y-98317000D01*
X134413898Y-98277226D01*
X134602256Y-98199205D01*
X134771774Y-98085937D01*
X134910997Y-97946714D01*
X136383653Y-97946714D01*
X136383653Y-98150592D01*
X136423427Y-98350551D01*
X136501448Y-98538909D01*
X136614716Y-98708427D01*
X136758879Y-98852590D01*
X136928397Y-98965858D01*
X137116755Y-99043879D01*
X137316714Y-99083653D01*
X137520592Y-99083653D01*
X137720551Y-99043879D01*
X137908909Y-98965858D01*
X138078427Y-98852590D01*
X138222590Y-98708427D01*
X138335858Y-98538909D01*
X138413879Y-98350551D01*
X138453653Y-98150592D01*
X138453653Y-97946714D01*
X138413879Y-97746755D01*
X138335858Y-97558397D01*
X138222590Y-97388879D01*
X138078427Y-97244716D01*
X137908909Y-97131448D01*
X137720551Y-97053427D01*
X137520592Y-97013653D01*
X137316714Y-97013653D01*
X137116755Y-97053427D01*
X136928397Y-97131448D01*
X136758879Y-97244716D01*
X136614716Y-97388879D01*
X136501448Y-97558397D01*
X136423427Y-97746755D01*
X136383653Y-97946714D01*
X134910997Y-97946714D01*
X134915937Y-97941774D01*
X135029205Y-97772256D01*
X135107226Y-97583898D01*
X135147000Y-97383939D01*
X135147000Y-97180061D01*
X135107226Y-96980102D01*
X135029205Y-96791744D01*
X134915937Y-96622226D01*
X134771774Y-96478063D01*
X134602256Y-96364795D01*
X134413898Y-96286774D01*
X134213939Y-96247000D01*
X134010061Y-96247000D01*
X133810102Y-96286774D01*
X133621744Y-96364795D01*
X133452226Y-96478063D01*
X133308063Y-96622226D01*
X133194795Y-96791744D01*
X133116774Y-96980102D01*
X133077000Y-97180061D01*
X111663202Y-97180061D01*
X111769199Y-97136156D01*
X112069744Y-96935338D01*
X112325338Y-96679744D01*
X112526156Y-96379199D01*
X112664482Y-96045250D01*
X112735000Y-95690732D01*
X112735000Y-95329268D01*
X112664482Y-94974750D01*
X112526156Y-94640801D01*
X112325338Y-94340256D01*
X112069744Y-94084662D01*
X111769199Y-93883844D01*
X111682838Y-93848072D01*
X112100000Y-93848072D01*
X112224482Y-93835812D01*
X112344180Y-93799502D01*
X112454494Y-93740537D01*
X112551185Y-93661185D01*
X112630537Y-93564494D01*
X112689502Y-93454180D01*
X112725812Y-93334482D01*
X112738072Y-93210000D01*
X112738072Y-92188061D01*
X115735000Y-92188061D01*
X115735000Y-92391939D01*
X115774774Y-92591898D01*
X115852795Y-92780256D01*
X115966063Y-92949774D01*
X116098206Y-93081917D01*
X116012795Y-93209744D01*
X115934774Y-93398102D01*
X115895000Y-93598061D01*
X115895000Y-93801939D01*
X115934774Y-94001898D01*
X116012795Y-94190256D01*
X116126063Y-94359774D01*
X116270226Y-94503937D01*
X116439744Y-94617205D01*
X116628102Y-94695226D01*
X116828061Y-94735000D01*
X117031939Y-94735000D01*
X117231898Y-94695226D01*
X117420256Y-94617205D01*
X117589774Y-94503937D01*
X117733937Y-94359774D01*
X117847205Y-94190256D01*
X117925226Y-94001898D01*
X117965000Y-93801939D01*
X117965000Y-93598061D01*
X117925226Y-93398102D01*
X117847205Y-93209744D01*
X117733937Y-93040226D01*
X117601794Y-92908083D01*
X117687205Y-92780256D01*
X117765226Y-92591898D01*
X117805000Y-92391939D01*
X117805000Y-92188061D01*
X117765226Y-91988102D01*
X117687205Y-91799744D01*
X117573937Y-91630226D01*
X117429774Y-91486063D01*
X117260256Y-91372795D01*
X117071898Y-91294774D01*
X116871939Y-91255000D01*
X116668061Y-91255000D01*
X116468102Y-91294774D01*
X116279744Y-91372795D01*
X116110226Y-91486063D01*
X115966063Y-91630226D01*
X115852795Y-91799744D01*
X115774774Y-91988102D01*
X115735000Y-92188061D01*
X112738072Y-92188061D01*
X112738072Y-91188061D01*
X142195000Y-91188061D01*
X142195000Y-91391939D01*
X142234774Y-91591898D01*
X142312795Y-91780256D01*
X142426063Y-91949774D01*
X142570226Y-92093937D01*
X142739744Y-92207205D01*
X142928102Y-92285226D01*
X143128061Y-92325000D01*
X143331939Y-92325000D01*
X143531898Y-92285226D01*
X143720256Y-92207205D01*
X143889774Y-92093937D01*
X144033937Y-91949774D01*
X144088535Y-91868061D01*
X174085000Y-91868061D01*
X174085000Y-92071939D01*
X174124774Y-92271898D01*
X174202795Y-92460256D01*
X174316063Y-92629774D01*
X174460226Y-92773937D01*
X174629744Y-92887205D01*
X174818102Y-92965226D01*
X175018061Y-93005000D01*
X175221939Y-93005000D01*
X175421898Y-92965226D01*
X175610256Y-92887205D01*
X175779774Y-92773937D01*
X175923937Y-92629774D01*
X176037205Y-92460256D01*
X176115226Y-92271898D01*
X176155000Y-92071939D01*
X176155000Y-91868061D01*
X176115226Y-91668102D01*
X176037205Y-91479744D01*
X175923937Y-91310226D01*
X175779774Y-91166063D01*
X175610256Y-91052795D01*
X175421898Y-90974774D01*
X175221939Y-90935000D01*
X175018061Y-90935000D01*
X174818102Y-90974774D01*
X174629744Y-91052795D01*
X174460226Y-91166063D01*
X174316063Y-91310226D01*
X174202795Y-91479744D01*
X174124774Y-91668102D01*
X174085000Y-91868061D01*
X144088535Y-91868061D01*
X144147205Y-91780256D01*
X144225226Y-91591898D01*
X144265000Y-91391939D01*
X144265000Y-91188061D01*
X144225226Y-90988102D01*
X144147205Y-90799744D01*
X144033937Y-90630226D01*
X143889774Y-90486063D01*
X143720256Y-90372795D01*
X143531898Y-90294774D01*
X143331939Y-90255000D01*
X143128061Y-90255000D01*
X142928102Y-90294774D01*
X142739744Y-90372795D01*
X142570226Y-90486063D01*
X142426063Y-90630226D01*
X142312795Y-90799744D01*
X142234774Y-90988102D01*
X142195000Y-91188061D01*
X112738072Y-91188061D01*
X112738072Y-90810000D01*
X112725812Y-90685518D01*
X112689502Y-90565820D01*
X112630537Y-90455506D01*
X112551185Y-90358815D01*
X112454494Y-90279463D01*
X112344180Y-90220498D01*
X112224482Y-90184188D01*
X112100000Y-90171928D01*
X109700000Y-90171928D01*
X109575518Y-90184188D01*
X109455820Y-90220498D01*
X109345506Y-90279463D01*
X109248815Y-90358815D01*
X109169463Y-90455506D01*
X109110498Y-90565820D01*
X109074188Y-90685518D01*
X109061928Y-90810000D01*
X107365001Y-90810000D01*
X107365001Y-87782061D01*
X132823000Y-87782061D01*
X132823000Y-87985939D01*
X132862774Y-88185898D01*
X132940795Y-88374256D01*
X133054063Y-88543774D01*
X133198226Y-88687937D01*
X133367744Y-88801205D01*
X133556102Y-88879226D01*
X133756061Y-88919000D01*
X133959939Y-88919000D01*
X134159898Y-88879226D01*
X134348256Y-88801205D01*
X134352961Y-88798061D01*
X136125000Y-88798061D01*
X136125000Y-89001939D01*
X136164774Y-89201898D01*
X136242795Y-89390256D01*
X136356063Y-89559774D01*
X136500226Y-89703937D01*
X136669744Y-89817205D01*
X136858102Y-89895226D01*
X137058061Y-89935000D01*
X137261939Y-89935000D01*
X137461898Y-89895226D01*
X137650256Y-89817205D01*
X137819774Y-89703937D01*
X137963937Y-89559774D01*
X138077205Y-89390256D01*
X138155226Y-89201898D01*
X138177869Y-89088061D01*
X154665000Y-89088061D01*
X154665000Y-89291939D01*
X154704774Y-89491898D01*
X154782795Y-89680256D01*
X154896063Y-89849774D01*
X155040226Y-89993937D01*
X155209744Y-90107205D01*
X155398102Y-90185226D01*
X155598061Y-90225000D01*
X155801939Y-90225000D01*
X156001898Y-90185226D01*
X156190256Y-90107205D01*
X156359774Y-89993937D01*
X156412288Y-89941423D01*
X156405000Y-89978061D01*
X156405000Y-90181939D01*
X156444774Y-90381898D01*
X156522795Y-90570256D01*
X156636063Y-90739774D01*
X156780226Y-90883937D01*
X156949744Y-90997205D01*
X157138102Y-91075226D01*
X157338061Y-91115000D01*
X157541939Y-91115000D01*
X157741898Y-91075226D01*
X157930256Y-90997205D01*
X158099774Y-90883937D01*
X158243937Y-90739774D01*
X158262112Y-90712572D01*
X158262774Y-90715898D01*
X158340795Y-90904256D01*
X158454063Y-91073774D01*
X158598226Y-91217937D01*
X158767744Y-91331205D01*
X158956102Y-91409226D01*
X159156061Y-91449000D01*
X159359939Y-91449000D01*
X159559898Y-91409226D01*
X159748256Y-91331205D01*
X159917774Y-91217937D01*
X159962412Y-91173299D01*
X160040793Y-91205766D01*
X160240752Y-91245540D01*
X160444630Y-91245540D01*
X160644589Y-91205766D01*
X160832947Y-91127745D01*
X161002465Y-91014477D01*
X161146628Y-90870314D01*
X161259896Y-90700796D01*
X161337917Y-90512438D01*
X161377691Y-90312479D01*
X161377691Y-90189271D01*
X161464625Y-90189271D01*
X161664584Y-90149497D01*
X161852942Y-90071476D01*
X162022460Y-89958208D01*
X162166623Y-89814045D01*
X162279891Y-89644527D01*
X162282569Y-89638061D01*
X165615000Y-89638061D01*
X165615000Y-89841939D01*
X165654774Y-90041898D01*
X165732795Y-90230256D01*
X165846063Y-90399774D01*
X165990226Y-90543937D01*
X166159744Y-90657205D01*
X166348102Y-90735226D01*
X166548061Y-90775000D01*
X166751939Y-90775000D01*
X166877623Y-90750000D01*
X185651928Y-90750000D01*
X185651928Y-93150000D01*
X185664188Y-93274482D01*
X185700498Y-93394180D01*
X185759463Y-93504494D01*
X185838815Y-93601185D01*
X185935506Y-93680537D01*
X186045820Y-93739502D01*
X186165518Y-93775812D01*
X186290000Y-93788072D01*
X188690000Y-93788072D01*
X188814482Y-93775812D01*
X188934180Y-93739502D01*
X189044494Y-93680537D01*
X189141185Y-93601185D01*
X189220537Y-93504494D01*
X189279502Y-93394180D01*
X189315812Y-93274482D01*
X189328072Y-93150000D01*
X189328072Y-90750000D01*
X189315812Y-90625518D01*
X189279502Y-90505820D01*
X189220537Y-90395506D01*
X189141185Y-90298815D01*
X189044494Y-90219463D01*
X188934180Y-90160498D01*
X188814482Y-90124188D01*
X188690000Y-90111928D01*
X188272838Y-90111928D01*
X188359199Y-90076156D01*
X188659744Y-89875338D01*
X188915338Y-89619744D01*
X189116156Y-89319199D01*
X189254482Y-88985250D01*
X189325000Y-88630732D01*
X189325000Y-88269268D01*
X189254482Y-87914750D01*
X189116156Y-87580801D01*
X188915338Y-87280256D01*
X188659744Y-87024662D01*
X188359199Y-86823844D01*
X188060213Y-86700000D01*
X188359199Y-86576156D01*
X188659744Y-86375338D01*
X188915338Y-86119744D01*
X189116156Y-85819199D01*
X189254482Y-85485250D01*
X189325000Y-85130732D01*
X189325000Y-84769268D01*
X189254482Y-84414750D01*
X189116156Y-84080801D01*
X188915338Y-83780256D01*
X188659744Y-83524662D01*
X188359199Y-83323844D01*
X188025250Y-83185518D01*
X187670732Y-83115000D01*
X187309268Y-83115000D01*
X186954750Y-83185518D01*
X186620801Y-83323844D01*
X186320256Y-83524662D01*
X186064662Y-83780256D01*
X185863844Y-84080801D01*
X185725518Y-84414750D01*
X185655000Y-84769268D01*
X185655000Y-85130732D01*
X185725518Y-85485250D01*
X185863844Y-85819199D01*
X186064662Y-86119744D01*
X186320256Y-86375338D01*
X186620801Y-86576156D01*
X186919787Y-86700000D01*
X186620801Y-86823844D01*
X186320256Y-87024662D01*
X186064662Y-87280256D01*
X185863844Y-87580801D01*
X185725518Y-87914750D01*
X185655000Y-88269268D01*
X185655000Y-88630732D01*
X185725518Y-88985250D01*
X185863844Y-89319199D01*
X186064662Y-89619744D01*
X186320256Y-89875338D01*
X186620801Y-90076156D01*
X186707162Y-90111928D01*
X186290000Y-90111928D01*
X186165518Y-90124188D01*
X186045820Y-90160498D01*
X185935506Y-90219463D01*
X185838815Y-90298815D01*
X185759463Y-90395506D01*
X185700498Y-90505820D01*
X185664188Y-90625518D01*
X185651928Y-90750000D01*
X166877623Y-90750000D01*
X166951898Y-90735226D01*
X167140256Y-90657205D01*
X167309774Y-90543937D01*
X167453937Y-90399774D01*
X167567205Y-90230256D01*
X167645226Y-90041898D01*
X167685000Y-89841939D01*
X167685000Y-89638061D01*
X167645226Y-89438102D01*
X167567205Y-89249744D01*
X167453937Y-89080226D01*
X167309774Y-88936063D01*
X167140256Y-88822795D01*
X166951898Y-88744774D01*
X166751939Y-88705000D01*
X166548061Y-88705000D01*
X166348102Y-88744774D01*
X166159744Y-88822795D01*
X165990226Y-88936063D01*
X165846063Y-89080226D01*
X165732795Y-89249744D01*
X165654774Y-89438102D01*
X165615000Y-89638061D01*
X162282569Y-89638061D01*
X162357912Y-89456169D01*
X162397686Y-89256210D01*
X162397686Y-89052332D01*
X162357912Y-88852373D01*
X162279891Y-88664015D01*
X162166623Y-88494497D01*
X162022460Y-88350334D01*
X161852942Y-88237066D01*
X161664584Y-88159045D01*
X161464625Y-88119271D01*
X161260747Y-88119271D01*
X161060788Y-88159045D01*
X160872430Y-88237066D01*
X160702912Y-88350334D01*
X160558749Y-88494497D01*
X160445481Y-88664015D01*
X160367460Y-88852373D01*
X160327686Y-89052332D01*
X160327686Y-89175540D01*
X160240752Y-89175540D01*
X160040793Y-89215314D01*
X159852435Y-89293335D01*
X159682917Y-89406603D01*
X159638279Y-89451241D01*
X159559898Y-89418774D01*
X159359939Y-89379000D01*
X159156061Y-89379000D01*
X158956102Y-89418774D01*
X158767744Y-89496795D01*
X158598226Y-89610063D01*
X158454063Y-89754226D01*
X158435888Y-89781428D01*
X158435226Y-89778102D01*
X158357205Y-89589744D01*
X158243937Y-89420226D01*
X158099774Y-89276063D01*
X157930256Y-89162795D01*
X157741898Y-89084774D01*
X157541939Y-89045000D01*
X157338061Y-89045000D01*
X157138102Y-89084774D01*
X156949744Y-89162795D01*
X156780226Y-89276063D01*
X156727712Y-89328577D01*
X156735000Y-89291939D01*
X156735000Y-89088061D01*
X156695226Y-88888102D01*
X156617205Y-88699744D01*
X156503937Y-88530226D01*
X156359774Y-88386063D01*
X156190256Y-88272795D01*
X156001898Y-88194774D01*
X155801939Y-88155000D01*
X155598061Y-88155000D01*
X155398102Y-88194774D01*
X155209744Y-88272795D01*
X155040226Y-88386063D01*
X154896063Y-88530226D01*
X154782795Y-88699744D01*
X154704774Y-88888102D01*
X154665000Y-89088061D01*
X138177869Y-89088061D01*
X138195000Y-89001939D01*
X138195000Y-88798061D01*
X138155226Y-88598102D01*
X138077205Y-88409744D01*
X137963937Y-88240226D01*
X137819774Y-88096063D01*
X137650256Y-87982795D01*
X137461898Y-87904774D01*
X137261939Y-87865000D01*
X137058061Y-87865000D01*
X136858102Y-87904774D01*
X136669744Y-87982795D01*
X136500226Y-88096063D01*
X136356063Y-88240226D01*
X136242795Y-88409744D01*
X136164774Y-88598102D01*
X136125000Y-88798061D01*
X134352961Y-88798061D01*
X134517774Y-88687937D01*
X134661937Y-88543774D01*
X134775205Y-88374256D01*
X134853226Y-88185898D01*
X134893000Y-87985939D01*
X134893000Y-87782061D01*
X134853226Y-87582102D01*
X134775205Y-87393744D01*
X134661937Y-87224226D01*
X134517774Y-87080063D01*
X134348256Y-86966795D01*
X134159898Y-86888774D01*
X133959939Y-86849000D01*
X133756061Y-86849000D01*
X133556102Y-86888774D01*
X133367744Y-86966795D01*
X133198226Y-87080063D01*
X133054063Y-87224226D01*
X132940795Y-87393744D01*
X132862774Y-87582102D01*
X132823000Y-87782061D01*
X107365001Y-87782061D01*
X107365001Y-86748061D01*
X152515000Y-86748061D01*
X152515000Y-86951939D01*
X152554774Y-87151898D01*
X152632795Y-87340256D01*
X152746063Y-87509774D01*
X152890226Y-87653937D01*
X153059744Y-87767205D01*
X153248102Y-87845226D01*
X153448061Y-87885000D01*
X153651939Y-87885000D01*
X153851898Y-87845226D01*
X154040256Y-87767205D01*
X154209774Y-87653937D01*
X154353937Y-87509774D01*
X154467205Y-87340256D01*
X154545226Y-87151898D01*
X154585000Y-86951939D01*
X154585000Y-86748061D01*
X154545226Y-86548102D01*
X154545210Y-86548061D01*
X174195000Y-86548061D01*
X174195000Y-86751939D01*
X174234774Y-86951898D01*
X174312795Y-87140256D01*
X174426063Y-87309774D01*
X174570226Y-87453937D01*
X174739744Y-87567205D01*
X174928102Y-87645226D01*
X175128061Y-87685000D01*
X175331939Y-87685000D01*
X175531898Y-87645226D01*
X175720256Y-87567205D01*
X175889774Y-87453937D01*
X176033937Y-87309774D01*
X176147205Y-87140256D01*
X176225226Y-86951898D01*
X176265000Y-86751939D01*
X176265000Y-86548061D01*
X176225226Y-86348102D01*
X176147205Y-86159744D01*
X176033937Y-85990226D01*
X175889774Y-85846063D01*
X175720256Y-85732795D01*
X175531898Y-85654774D01*
X175331939Y-85615000D01*
X175128061Y-85615000D01*
X174928102Y-85654774D01*
X174739744Y-85732795D01*
X174570226Y-85846063D01*
X174426063Y-85990226D01*
X174312795Y-86159744D01*
X174234774Y-86348102D01*
X174195000Y-86548061D01*
X154545210Y-86548061D01*
X154467205Y-86359744D01*
X154353937Y-86190226D01*
X154209774Y-86046063D01*
X154040256Y-85932795D01*
X153851898Y-85854774D01*
X153651939Y-85815000D01*
X153448061Y-85815000D01*
X153248102Y-85854774D01*
X153059744Y-85932795D01*
X152890226Y-86046063D01*
X152746063Y-86190226D01*
X152632795Y-86359744D01*
X152554774Y-86548102D01*
X152515000Y-86748061D01*
X107365001Y-86748061D01*
X107365001Y-84923061D01*
X115865000Y-84923061D01*
X115865000Y-85126939D01*
X115904774Y-85326898D01*
X115982795Y-85515256D01*
X116096063Y-85684774D01*
X116240226Y-85828937D01*
X116409744Y-85942205D01*
X116598102Y-86020226D01*
X116798061Y-86060000D01*
X117001939Y-86060000D01*
X117201898Y-86020226D01*
X117390256Y-85942205D01*
X117559774Y-85828937D01*
X117703937Y-85684774D01*
X117817205Y-85515256D01*
X117895226Y-85326898D01*
X117935000Y-85126939D01*
X117935000Y-84923061D01*
X117895226Y-84723102D01*
X117817205Y-84534744D01*
X117703937Y-84365226D01*
X117559774Y-84221063D01*
X117390256Y-84107795D01*
X117201898Y-84029774D01*
X117001939Y-83990000D01*
X116798061Y-83990000D01*
X116598102Y-84029774D01*
X116409744Y-84107795D01*
X116240226Y-84221063D01*
X116096063Y-84365226D01*
X115982795Y-84534744D01*
X115904774Y-84723102D01*
X115865000Y-84923061D01*
X107365001Y-84923061D01*
X107365001Y-83968061D01*
X142305000Y-83968061D01*
X142305000Y-84171939D01*
X142344774Y-84371898D01*
X142422795Y-84560256D01*
X142536063Y-84729774D01*
X142680226Y-84873937D01*
X142849744Y-84987205D01*
X143038102Y-85065226D01*
X143200221Y-85097473D01*
X143242795Y-85200256D01*
X143356063Y-85369774D01*
X143500226Y-85513937D01*
X143669744Y-85627205D01*
X143858102Y-85705226D01*
X144058061Y-85745000D01*
X144261939Y-85745000D01*
X144461898Y-85705226D01*
X144650256Y-85627205D01*
X144819774Y-85513937D01*
X144963937Y-85369774D01*
X145077205Y-85200256D01*
X145155226Y-85011898D01*
X145195000Y-84811939D01*
X145195000Y-84608061D01*
X145155226Y-84408102D01*
X145077205Y-84219744D01*
X144963937Y-84050226D01*
X144819774Y-83906063D01*
X144650256Y-83792795D01*
X144461898Y-83714774D01*
X144299779Y-83682527D01*
X144257205Y-83579744D01*
X144143937Y-83410226D01*
X143999774Y-83266063D01*
X143830256Y-83152795D01*
X143641898Y-83074774D01*
X143441939Y-83035000D01*
X143238061Y-83035000D01*
X143038102Y-83074774D01*
X142849744Y-83152795D01*
X142680226Y-83266063D01*
X142536063Y-83410226D01*
X142422795Y-83579744D01*
X142344774Y-83768102D01*
X142305000Y-83968061D01*
X107365001Y-83968061D01*
X107365001Y-81818061D01*
X115375000Y-81818061D01*
X115375000Y-82021939D01*
X115414774Y-82221898D01*
X115492795Y-82410256D01*
X115606063Y-82579774D01*
X115750226Y-82723937D01*
X115919744Y-82837205D01*
X116108102Y-82915226D01*
X116308061Y-82955000D01*
X116511939Y-82955000D01*
X116711898Y-82915226D01*
X116900256Y-82837205D01*
X117069774Y-82723937D01*
X117213937Y-82579774D01*
X117327205Y-82410256D01*
X117405226Y-82221898D01*
X117445000Y-82021939D01*
X117445000Y-81818061D01*
X117405226Y-81618102D01*
X117327205Y-81429744D01*
X117213937Y-81260226D01*
X117069774Y-81116063D01*
X116900256Y-81002795D01*
X116711898Y-80924774D01*
X116511939Y-80885000D01*
X116308061Y-80885000D01*
X116108102Y-80924774D01*
X115919744Y-81002795D01*
X115750226Y-81116063D01*
X115606063Y-81260226D01*
X115492795Y-81429744D01*
X115414774Y-81618102D01*
X115375000Y-81818061D01*
X107365001Y-81818061D01*
X107365001Y-76159228D01*
X107473948Y-76706939D01*
X107687656Y-77222876D01*
X107997912Y-77687207D01*
X108392793Y-78082088D01*
X108857124Y-78392344D01*
X109373061Y-78606052D01*
X109920777Y-78715000D01*
X110479223Y-78715000D01*
X111026939Y-78606052D01*
X111542876Y-78392344D01*
X112007207Y-78082088D01*
X112402088Y-77687207D01*
X112712344Y-77222876D01*
X112926052Y-76706939D01*
X113035000Y-76159223D01*
X113035000Y-75600777D01*
X112926052Y-75053061D01*
X112712344Y-74537124D01*
X112402088Y-74072793D01*
X112007207Y-73677912D01*
X111542876Y-73367656D01*
X111026939Y-73153948D01*
X110630048Y-73075001D01*
X114538088Y-73075001D01*
X114363080Y-73158359D01*
G37*
G04 #@! TD.AperFunction*
M02*
